<?xml version="1.0" encoding="utf-8" standalone="no"?>
<!DOCTYPE svg PUBLIC "-//W3C//DTD SVG 1.1//EN"
  "http://www.w3.org/Graphics/SVG/1.1/DTD/svg11.dtd">
<!-- Created with matplotlib (https://matplotlib.org/) -->
<svg height="432pt" version="1.1" viewBox="0 0 432 432" width="432pt" xmlns="http://www.w3.org/2000/svg" xmlns:xlink="http://www.w3.org/1999/xlink">
 <metadata>
  <rdf:RDF xmlns:cc="http://creativecommons.org/ns#" xmlns:dc="http://purl.org/dc/elements/1.1/" xmlns:rdf="http://www.w3.org/1999/02/22-rdf-syntax-ns#">
   <cc:Work>
    <dc:type rdf:resource="http://purl.org/dc/dcmitype/StillImage"/>
    <dc:date>2021-02-22T21:46:56.595161</dc:date>
    <dc:format>image/svg+xml</dc:format>
    <dc:creator>
     <cc:Agent>
      <dc:title>Matplotlib v3.3.3, https://matplotlib.org/</dc:title>
     </cc:Agent>
    </dc:creator>
   </cc:Work>
  </rdf:RDF>
 </metadata>
 <defs>
  <style type="text/css">*{stroke-linecap:butt;stroke-linejoin:round;}</style>
 </defs>
 <g id="figure_1">
  <g id="patch_1">
   <path d="M 0 432 
L 432 432 
L 432 0 
L 0 0 
z
" style="fill:#ffffff;"/>
  </g>
  <g id="axes_1">
   <g id="patch_2">
    <path d="M 54 378 
L 388.8 378 
L 388.8 51.84 
L 54 51.84 
z
" style="fill:#eaeaf2;"/>
   </g>
   <g id="matplotlib.axis_1">
    <g id="xtick_1">
     <g id="line2d_1">
      <path clip-path="url(#p072e9b4588)" d="M 137.7 378 
L 137.7 51.84 
" style="fill:none;stroke:#ffffff;stroke-linecap:round;"/>
     </g>
     <g id="text_1">
      <!-- night_1 -->
      <g style="fill:#262626;" transform="translate(118.208516 396.255313)scale(0.11 -0.11)">
       <defs>
        <path d="M 9.1875 0 
L 9.1875 54.296875 
L 16.703125 54.296875 
L 17.484375 46.484375 
L 17.78125 46.484375 
Q 26.65625 55.171875 34.96875 55.671875 
Q 35.546875 55.671875 36.03125 55.671875 
Q 52.546875 55.46875 52.640625 34.375 
L 52.640625 0 
L 43.453125 0 
L 43.453125 33.203125 
Q 43.453125 44.828125 37.3125 47.078125 
Q 35.453125 47.65625 33.203125 47.65625 
Q 27.34375 47.65625 21.296875 42.28125 
Q 19.921875 41.015625 18.265625 39.359375 
L 18.265625 0 
z
" id="TaipeiSansTCBeta-Regular-110"/>
        <path d="M 9.1875 0 
L 9.1875 54.296875 
L 18.265625 54.296875 
L 18.265625 0 
z
M 13.765625 65.53125 
Q 9.46875 65.53125 8.015625 69.046875 
Q 7.515625 70.21875 7.515625 71.390625 
Q 7.515625 75.78125 11.53125 77.046875 
Q 12.703125 77.34375 13.765625 77.34375 
Q 18.265625 77.34375 19.734375 73.734375 
Q 20.125 72.5625 20.125 71.390625 
Q 20.125 67.484375 16.40625 66.015625 
Q 15.140625 65.53125 13.765625 65.53125 
z
" id="TaipeiSansTCBeta-Regular-105"/>
        <path d="M 27.546875 -25 
Q 13.1875 -25 7.625 -17.96875 
Q 4.984375 -14.65625 4.984375 -10.359375 
Q 5.078125 -3.421875 13.09375 1.859375 
L 13.09375 2.34375 
Q 8.203125 5.28125 8.109375 11.234375 
Q 8.109375 16.890625 13.875 21.09375 
Q 14.0625 21.1875 14.15625 21.296875 
L 14.15625 21.6875 
Q 7.8125 26.765625 7.234375 34.765625 
Q 7.125 35.640625 7.125 36.328125 
Q 7.125 46.484375 15.140625 52.046875 
Q 20.609375 55.671875 27.546875 55.671875 
Q 31.34375 55.671875 35.0625 54.296875 
L 54 54.296875 
L 54 47.265625 
L 42.875 47.265625 
Q 47.265625 42.96875 47.265625 36.140625 
Q 47.265625 25.78125 39.265625 20.515625 
Q 34.1875 17.1875 27.546875 17.1875 
Q 23.4375 17.1875 19.4375 19.140625 
Q 16.015625 16.015625 15.921875 12.59375 
Q 15.921875 7.421875 23.046875 6.84375 
Q 24.21875 6.734375 25.390625 6.734375 
L 36.03125 6.734375 
Q 53.609375 6.734375 54.78125 -4.390625 
Q 54.890625 -5.28125 54.890625 -6.15625 
Q 54.890625 -14.453125 46.78125 -19.828125 
Q 39.0625 -25 27.546875 -25 
z
M 27.546875 23.4375 
Q 33.6875 23.4375 36.921875 28.71875 
Q 38.96875 32.03125 38.96875 36.328125 
Q 38.96875 44.4375 33.109375 47.65625 
Q 30.5625 49.03125 27.546875 49.03125 
Q 20.796875 49.03125 17.578125 43.359375 
Q 15.921875 40.328125 15.921875 36.328125 
Q 15.921875 28.609375 21.578125 25.09375 
Q 24.3125 23.4375 27.546875 23.4375 
z
M 28.8125 -18.84375 
Q 38.375 -18.84375 43.453125 -13.578125 
Q 46.09375 -10.75 46.09375 -7.625 
Q 46.09375 -1.765625 38.09375 -0.984375 
Q 36.625 -0.875 34.96875 -0.875 
L 25.59375 -0.875 
Q 22.171875 -0.875 18.5625 0 
Q 13.09375 -4.109375 12.984375 -9.1875 
Q 12.984375 -15.046875 20.21875 -17.578125 
Q 23.921875 -18.84375 28.8125 -18.84375 
z
" id="TaipeiSansTCBeta-Regular-103"/>
        <path d="M 9.1875 0 
L 9.1875 79.59375 
L 18.265625 79.59375 
L 18.265625 57.8125 
L 17.96875 46.578125 
Q 27.15625 55.5625 36.03125 55.671875 
Q 52.546875 55.46875 52.640625 34.375 
L 52.640625 0 
L 43.453125 0 
L 43.453125 33.203125 
Q 43.453125 44.828125 37.3125 47.078125 
Q 35.453125 47.65625 33.203125 47.65625 
Q 27.34375 47.65625 21.296875 42.28125 
Q 19.921875 41.015625 18.265625 39.359375 
L 18.265625 0 
z
" id="TaipeiSansTCBeta-Regular-104"/>
        <path d="M 26.265625 -1.265625 
Q 12.796875 -1.265625 11.140625 12.109375 
Q 10.84375 14.359375 10.84375 16.796875 
L 10.84375 46.875 
L 2.734375 46.875 
L 2.734375 53.8125 
L 11.234375 54.296875 
L 12.3125 69.53125 
L 19.921875 69.53125 
L 19.921875 54.296875 
L 34.578125 54.296875 
L 34.578125 46.875 
L 19.921875 46.875 
L 19.921875 16.609375 
Q 19.921875 7.625 25.59375 6.34375 
Q 26.859375 6.0625 28.328125 6.0625 
Q 30.765625 6.0625 34.46875 7.515625 
L 36.328125 0.6875 
Q 30.078125 -1.265625 26.265625 -1.265625 
z
" id="TaipeiSansTCBeta-Regular-116"/>
        <path d="M 1.265625 -13.96875 
L 1.265625 -7.90625 
L 54.5 -7.90625 
L 54.5 -13.96875 
z
" id="TaipeiSansTCBeta-Regular-95"/>
        <path d="M 8.796875 0 
L 8.796875 7.625 
L 25.09375 7.625 
L 25.09375 62.3125 
L 12.109375 62.3125 
L 12.109375 68.0625 
Q 21.09375 69.734375 27.34375 73.34375 
L 34.28125 73.34375 
L 34.28125 7.625 
L 49.03125 7.625 
L 49.03125 0 
z
" id="TaipeiSansTCBeta-Regular-49"/>
       </defs>
       <use xlink:href="#TaipeiSansTCBeta-Regular-110"/>
       <use x="61.035156" xlink:href="#TaipeiSansTCBeta-Regular-105"/>
       <use x="88.476562" xlink:href="#TaipeiSansTCBeta-Regular-103"/>
       <use x="144.726562" xlink:href="#TaipeiSansTCBeta-Regular-104"/>
       <use x="205.371094" xlink:href="#TaipeiSansTCBeta-Regular-116"/>
       <use x="243.066406" xlink:href="#TaipeiSansTCBeta-Regular-95"/>
       <use x="298.925781" xlink:href="#TaipeiSansTCBeta-Regular-49"/>
      </g>
     </g>
    </g>
    <g id="xtick_2">
     <g id="line2d_2">
      <path clip-path="url(#p072e9b4588)" d="M 305.1 378 
L 305.1 51.84 
" style="fill:none;stroke:#ffffff;stroke-linecap:round;"/>
     </g>
     <g id="text_2">
      <!-- night_2 -->
      <g style="fill:#262626;" transform="translate(285.608516 396.255313)scale(0.11 -0.11)">
       <defs>
        <path d="M 4.390625 0 
L 4.390625 5.375 
Q 31.640625 29.203125 36.71875 44.828125 
Q 37.984375 48.921875 37.984375 52.734375 
Q 37.984375 62.796875 30.765625 66.015625 
Q 27.9375 67.1875 24.515625 67.1875 
Q 16.40625 67.09375 9.28125 58.6875 
L 4 63.875 
Q 12.59375 73.34375 22.171875 74.515625 
Q 23.921875 74.703125 25.59375 74.703125 
Q 37.890625 74.703125 43.5625 65.71875 
Q 46.875 60.359375 46.875 53.03125 
Q 46.875 37.59375 28.328125 17.484375 
Q 23.828125 12.59375 18.171875 7.234375 
Q 27.046875 7.90625 30.171875 7.90625 
L 50.484375 7.90625 
L 50.484375 0 
z
" id="TaipeiSansTCBeta-Regular-50"/>
       </defs>
       <use xlink:href="#TaipeiSansTCBeta-Regular-110"/>
       <use x="61.035156" xlink:href="#TaipeiSansTCBeta-Regular-105"/>
       <use x="88.476562" xlink:href="#TaipeiSansTCBeta-Regular-103"/>
       <use x="144.726562" xlink:href="#TaipeiSansTCBeta-Regular-104"/>
       <use x="205.371094" xlink:href="#TaipeiSansTCBeta-Regular-116"/>
       <use x="243.066406" xlink:href="#TaipeiSansTCBeta-Regular-95"/>
       <use x="298.925781" xlink:href="#TaipeiSansTCBeta-Regular-50"/>
      </g>
     </g>
    </g>
   </g>
   <g id="matplotlib.axis_2">
    <g id="ytick_1">
     <g id="line2d_3">
      <path clip-path="url(#p072e9b4588)" d="M 54 363.174545 
L 388.8 363.174545 
" style="fill:none;stroke:#ffffff;stroke-linecap:round;"/>
     </g>
     <g id="text_3">
      <!-- 1.0 -->
      <g style="fill:#262626;" transform="translate(29.246094 367.552202)scale(0.11 -0.11)">
       <defs>
        <path d="M 13.875 -1.265625 
Q 9.671875 -1.265625 8.015625 2.4375 
Q 7.328125 3.90625 7.328125 5.5625 
Q 7.328125 10.0625 10.9375 12.015625 
Q 12.40625 12.703125 13.875 12.703125 
Q 17.78125 12.703125 19.734375 9.078125 
Q 20.515625 7.421875 20.515625 5.5625 
Q 20.515625 1.078125 16.609375 -0.6875 
Q 15.234375 -1.265625 13.875 -1.265625 
z
" id="TaipeiSansTCBeta-Regular-46"/>
        <path d="M 27.828125 -1.265625 
Q 14.15625 -1.265625 8.40625 13.875 
Q 4.890625 23.046875 4.890625 36.921875 
Q 4.890625 64.359375 17.78125 72.078125 
Q 22.265625 74.703125 27.828125 74.703125 
Q 41.796875 74.703125 47.359375 59.1875 
Q 50.59375 50.203125 50.59375 36.921875 
Q 50.59375 10.0625 38.375 1.765625 
Q 33.6875 -1.265625 27.828125 -1.265625 
z
M 27.828125 5.953125 
Q 37.703125 5.953125 40.625 22.5625 
Q 41.703125 28.8125 41.703125 36.921875 
Q 41.703125 64.265625 30.28125 67 
Q 29 67.28125 27.828125 67.28125 
Q 17.09375 67.28125 14.546875 49.03125 
Q 13.765625 43.65625 13.765625 36.921875 
Q 13.765625 10.453125 24.3125 6.546875 
Q 26.078125 5.953125 27.828125 5.953125 
z
" id="TaipeiSansTCBeta-Regular-48"/>
       </defs>
       <use xlink:href="#TaipeiSansTCBeta-Regular-49"/>
       <use x="55.46875" xlink:href="#TaipeiSansTCBeta-Regular-46"/>
       <use x="83.203125" xlink:href="#TaipeiSansTCBeta-Regular-48"/>
      </g>
     </g>
    </g>
    <g id="ytick_2">
     <g id="line2d_4">
      <path clip-path="url(#p072e9b4588)" d="M 54 326.110909 
L 388.8 326.110909 
" style="fill:none;stroke:#ffffff;stroke-linecap:round;"/>
     </g>
     <g id="text_4">
      <!-- 1.5 -->
      <g style="fill:#262626;" transform="translate(29.246094 330.488565)scale(0.11 -0.11)">
       <defs>
        <path d="M 26.078125 -1.265625 
Q 12.5 -1.171875 2.828125 8.40625 
L 7.328125 14.359375 
Q 15.921875 6.640625 25.296875 6.34375 
Q 33.40625 6.34375 37.890625 12.890625 
Q 40.921875 17.390625 40.921875 23.640625 
Q 40.921875 34.578125 33.203125 38.578125 
Q 29.890625 40.328125 25.6875 40.328125 
Q 20.125 40.328125 14.359375 36.625 
Q 13.875 36.328125 13.484375 36.03125 
L 8.59375 38.96875 
L 10.9375 73.34375 
L 46.578125 73.34375 
L 46.578125 65.53125 
L 18.953125 65.53125 
L 17.09375 44.34375 
Q 22.359375 47.171875 28.03125 47.171875 
Q 40.828125 47.171875 46.578125 37.984375 
Q 50.09375 32.234375 50.09375 23.921875 
Q 50.09375 10.640625 40.625 3.515625 
Q 34.28125 -1.265625 26.078125 -1.265625 
z
" id="TaipeiSansTCBeta-Regular-53"/>
       </defs>
       <use xlink:href="#TaipeiSansTCBeta-Regular-49"/>
       <use x="55.46875" xlink:href="#TaipeiSansTCBeta-Regular-46"/>
       <use x="83.203125" xlink:href="#TaipeiSansTCBeta-Regular-53"/>
      </g>
     </g>
    </g>
    <g id="ytick_3">
     <g id="line2d_5">
      <path clip-path="url(#p072e9b4588)" d="M 54 289.047273 
L 388.8 289.047273 
" style="fill:none;stroke:#ffffff;stroke-linecap:round;"/>
     </g>
     <g id="text_5">
      <!-- 2.0 -->
      <g style="fill:#262626;" transform="translate(29.246094 293.424929)scale(0.11 -0.11)">
       <use xlink:href="#TaipeiSansTCBeta-Regular-50"/>
       <use x="55.46875" xlink:href="#TaipeiSansTCBeta-Regular-46"/>
       <use x="83.203125" xlink:href="#TaipeiSansTCBeta-Regular-48"/>
      </g>
     </g>
    </g>
    <g id="ytick_4">
     <g id="line2d_6">
      <path clip-path="url(#p072e9b4588)" d="M 54 251.983636 
L 388.8 251.983636 
" style="fill:none;stroke:#ffffff;stroke-linecap:round;"/>
     </g>
     <g id="text_6">
      <!-- 2.5 -->
      <g style="fill:#262626;" transform="translate(29.246094 256.361293)scale(0.11 -0.11)">
       <use xlink:href="#TaipeiSansTCBeta-Regular-50"/>
       <use x="55.46875" xlink:href="#TaipeiSansTCBeta-Regular-46"/>
       <use x="83.203125" xlink:href="#TaipeiSansTCBeta-Regular-53"/>
      </g>
     </g>
    </g>
    <g id="ytick_5">
     <g id="line2d_7">
      <path clip-path="url(#p072e9b4588)" d="M 54 214.92 
L 388.8 214.92 
" style="fill:none;stroke:#ffffff;stroke-linecap:round;"/>
     </g>
     <g id="text_7">
      <!-- 3.0 -->
      <g style="fill:#262626;" transform="translate(29.246094 219.297656)scale(0.11 -0.11)">
       <defs>
        <path d="M 26.375 -1.265625 
Q 12.109375 -1.171875 2.9375 8.6875 
L 7.515625 14.75 
Q 15.625 6.453125 25.6875 6.34375 
Q 34.671875 6.34375 38.578125 12.59375 
Q 40.625 15.828125 40.625 19.921875 
Q 40.4375 34.46875 17.78125 34.578125 
L 17.78125 41.609375 
Q 37.890625 41.796875 38.09375 55.5625 
Q 38.09375 63.484375 31.25 66.3125 
Q 28.71875 67.28125 25.6875 67.390625 
Q 17.578125 67 10.546875 60.0625 
L 5.5625 65.921875 
Q 15.140625 74.703125 26.078125 74.703125 
Q 38.484375 74.703125 44.140625 67.09375 
Q 47.359375 62.5 47.359375 56.34375 
Q 47.359375 44.828125 36.625 39.546875 
Q 35.453125 39.0625 34.28125 38.578125 
L 34.28125 38.1875 
Q 43.65625 36.03125 47.75 28.515625 
Q 49.90625 24.421875 49.90625 19.625 
Q 49.90625 8.5 40.828125 2.640625 
Q 34.578125 -1.265625 26.375 -1.265625 
z
" id="TaipeiSansTCBeta-Regular-51"/>
       </defs>
       <use xlink:href="#TaipeiSansTCBeta-Regular-51"/>
       <use x="55.46875" xlink:href="#TaipeiSansTCBeta-Regular-46"/>
       <use x="83.203125" xlink:href="#TaipeiSansTCBeta-Regular-48"/>
      </g>
     </g>
    </g>
    <g id="ytick_6">
     <g id="line2d_8">
      <path clip-path="url(#p072e9b4588)" d="M 54 177.856364 
L 388.8 177.856364 
" style="fill:none;stroke:#ffffff;stroke-linecap:round;"/>
     </g>
     <g id="text_8">
      <!-- 3.5 -->
      <g style="fill:#262626;" transform="translate(29.246094 182.23402)scale(0.11 -0.11)">
       <use xlink:href="#TaipeiSansTCBeta-Regular-51"/>
       <use x="55.46875" xlink:href="#TaipeiSansTCBeta-Regular-46"/>
       <use x="83.203125" xlink:href="#TaipeiSansTCBeta-Regular-53"/>
      </g>
     </g>
    </g>
    <g id="ytick_7">
     <g id="line2d_9">
      <path clip-path="url(#p072e9b4588)" d="M 54 140.792727 
L 388.8 140.792727 
" style="fill:none;stroke:#ffffff;stroke-linecap:round;"/>
     </g>
     <g id="text_9">
      <!-- 4.0 -->
      <g style="fill:#262626;" transform="translate(29.246094 145.170384)scale(0.11 -0.11)">
       <defs>
        <path d="M 11.53125 27.546875 
L 33.890625 27.546875 
L 33.890625 50 
Q 33.890625 52.046875 34.46875 63.28125 
L 34.078125 63.28125 
Q 31.640625 58.296875 28.21875 52.546875 
z
M 52.34375 27.546875 
L 52.34375 20.21875 
L 42.578125 20.21875 
L 42.578125 0 
L 33.890625 0 
L 33.890625 20.21875 
L 1.953125 20.21875 
L 1.953125 26.171875 
L 32.515625 73.34375 
L 42.578125 73.34375 
L 42.578125 27.546875 
z
" id="TaipeiSansTCBeta-Regular-52"/>
       </defs>
       <use xlink:href="#TaipeiSansTCBeta-Regular-52"/>
       <use x="55.46875" xlink:href="#TaipeiSansTCBeta-Regular-46"/>
       <use x="83.203125" xlink:href="#TaipeiSansTCBeta-Regular-48"/>
      </g>
     </g>
    </g>
    <g id="ytick_8">
     <g id="line2d_10">
      <path clip-path="url(#p072e9b4588)" d="M 54 103.729091 
L 388.8 103.729091 
" style="fill:none;stroke:#ffffff;stroke-linecap:round;"/>
     </g>
     <g id="text_10">
      <!-- 4.5 -->
      <g style="fill:#262626;" transform="translate(29.246094 108.106747)scale(0.11 -0.11)">
       <use xlink:href="#TaipeiSansTCBeta-Regular-52"/>
       <use x="55.46875" xlink:href="#TaipeiSansTCBeta-Regular-46"/>
       <use x="83.203125" xlink:href="#TaipeiSansTCBeta-Regular-53"/>
      </g>
     </g>
    </g>
    <g id="ytick_9">
     <g id="line2d_11">
      <path clip-path="url(#p072e9b4588)" d="M 54 66.665455 
L 388.8 66.665455 
" style="fill:none;stroke:#ffffff;stroke-linecap:round;"/>
     </g>
     <g id="text_11">
      <!-- 5.0 -->
      <g style="fill:#262626;" transform="translate(29.246094 71.043111)scale(0.11 -0.11)">
       <use xlink:href="#TaipeiSansTCBeta-Regular-53"/>
       <use x="55.46875" xlink:href="#TaipeiSansTCBeta-Regular-46"/>
       <use x="83.203125" xlink:href="#TaipeiSansTCBeta-Regular-48"/>
      </g>
     </g>
    </g>
   </g>
   <g id="line2d_12">
    <path clip-path="url(#p072e9b4588)" d="M 125.145 289.047273 
L 150.255 289.047273 
L 150.255 140.792727 
L 125.145 140.792727 
L 125.145 289.047273 
" style="fill:none;stroke:#4c4c4c;stroke-linecap:round;"/>
   </g>
   <g id="line2d_13">
    <path clip-path="url(#p072e9b4588)" d="M 137.7 289.047273 
L 137.7 363.174545 
" style="fill:none;stroke:#4c4c4c;stroke-linecap:round;"/>
   </g>
   <g id="line2d_14">
    <path clip-path="url(#p072e9b4588)" d="M 137.7 140.792727 
L 137.7 66.665455 
" style="fill:none;stroke:#4c4c4c;stroke-linecap:round;"/>
   </g>
   <g id="line2d_15">
    <path clip-path="url(#p072e9b4588)" d="M 131.4225 363.174545 
L 143.9775 363.174545 
" style="fill:none;stroke:#1a1a1a;stroke-linecap:round;"/>
   </g>
   <g id="line2d_16">
    <path clip-path="url(#p072e9b4588)" d="M 131.4225 66.665455 
L 143.9775 66.665455 
" style="fill:none;stroke:#1a1a1a;stroke-linecap:round;"/>
   </g>
   <g id="line2d_17"/>
   <g id="line2d_18">
    <path clip-path="url(#p072e9b4588)" d="M 292.545 289.047273 
L 317.655 289.047273 
L 317.655 140.792727 
L 292.545 140.792727 
L 292.545 289.047273 
" style="fill:none;stroke:#4c4c4c;stroke-linecap:round;"/>
   </g>
   <g id="line2d_19">
    <path clip-path="url(#p072e9b4588)" d="M 305.1 289.047273 
L 305.1 363.174545 
" style="fill:none;stroke:#4c4c4c;stroke-linecap:round;"/>
   </g>
   <g id="line2d_20">
    <path clip-path="url(#p072e9b4588)" d="M 305.1 140.792727 
L 305.1 66.665455 
" style="fill:none;stroke:#4c4c4c;stroke-linecap:round;"/>
   </g>
   <g id="line2d_21">
    <path clip-path="url(#p072e9b4588)" d="M 298.8225 363.174545 
L 311.3775 363.174545 
" style="fill:none;stroke:#1a1a1a;stroke-linecap:round;"/>
   </g>
   <g id="line2d_22">
    <path clip-path="url(#p072e9b4588)" d="M 298.8225 66.665455 
L 311.3775 66.665455 
" style="fill:none;stroke:#1a1a1a;stroke-linecap:round;"/>
   </g>
   <g id="line2d_23"/>
   <g id="line2d_24">
    <path clip-path="url(#p072e9b4588)" d="M 125.145 214.92 
L 150.255 214.92 
" style="fill:none;stroke:#b0b0b0;stroke-linecap:round;"/>
   </g>
   <g id="line2d_25">
    <defs>
     <path d="M 0 -3 
L -3 3 
L 3 3 
z
" id="m5b4d8303af" style="stroke:#55a868;stroke-linejoin:miter;"/>
    </defs>
    <g clip-path="url(#p072e9b4588)">
     <use style="fill:#55a868;stroke:#55a868;stroke-linejoin:miter;" x="137.7" xlink:href="#m5b4d8303af" y="221.337946"/>
    </g>
   </g>
   <g id="line2d_26">
    <path clip-path="url(#p072e9b4588)" d="M 292.545 214.92 
L 317.655 214.92 
" style="fill:none;stroke:#b0b0b0;stroke-linecap:round;"/>
   </g>
   <g id="line2d_27">
    <g clip-path="url(#p072e9b4588)">
     <use style="fill:#55a868;stroke:#55a868;stroke-linejoin:miter;" x="305.1" xlink:href="#m5b4d8303af" y="230.964864"/>
    </g>
   </g>
   <g id="patch_3">
    <path d="M 54 378 
L 54 51.84 
" style="fill:none;stroke:#ffffff;stroke-linecap:square;stroke-linejoin:miter;stroke-width:1.25;"/>
   </g>
   <g id="patch_4">
    <path d="M 388.8 378 
L 388.8 51.84 
" style="fill:none;stroke:#ffffff;stroke-linecap:square;stroke-linejoin:miter;stroke-width:1.25;"/>
   </g>
   <g id="patch_5">
    <path d="M 54 378 
L 388.8 378 
" style="fill:none;stroke:#ffffff;stroke-linecap:square;stroke-linejoin:miter;stroke-width:1.25;"/>
   </g>
   <g id="patch_6">
    <path d="M 54 51.84 
L 388.8 51.84 
" style="fill:none;stroke:#ffffff;stroke-linecap:square;stroke-linejoin:miter;stroke-width:1.25;"/>
   </g>
  </g>
 </g>
 <defs>
  <clipPath id="p072e9b4588">
   <rect height="326.16" width="334.8" x="54" y="51.84"/>
  </clipPath>
 </defs>
</svg>
