<?xml version="1.0" encoding="utf-8" standalone="no"?>
<!DOCTYPE svg PUBLIC "-//W3C//DTD SVG 1.1//EN"
  "http://www.w3.org/Graphics/SVG/1.1/DTD/svg11.dtd">
<!-- Created with matplotlib (https://matplotlib.org/) -->
<svg height="432pt" version="1.1" viewBox="0 0 432 432" width="432pt" xmlns="http://www.w3.org/2000/svg" xmlns:xlink="http://www.w3.org/1999/xlink">
 <metadata>
  <rdf:RDF xmlns:cc="http://creativecommons.org/ns#" xmlns:dc="http://purl.org/dc/elements/1.1/" xmlns:rdf="http://www.w3.org/1999/02/22-rdf-syntax-ns#">
   <cc:Work>
    <dc:type rdf:resource="http://purl.org/dc/dcmitype/StillImage"/>
    <dc:date>2021-02-22T21:46:58.995188</dc:date>
    <dc:format>image/svg+xml</dc:format>
    <dc:creator>
     <cc:Agent>
      <dc:title>Matplotlib v3.3.3, https://matplotlib.org/</dc:title>
     </cc:Agent>
    </dc:creator>
   </cc:Work>
  </rdf:RDF>
 </metadata>
 <defs>
  <style type="text/css">*{stroke-linecap:butt;stroke-linejoin:round;}</style>
 </defs>
 <g id="figure_1">
  <g id="patch_1">
   <path d="M 0 432 
L 432 432 
L 432 0 
L 0 0 
z
" style="fill:#ffffff;"/>
  </g>
  <g id="axes_1">
   <g id="patch_2">
    <path d="M 54 378 
L 388.8 378 
L 388.8 51.84 
L 54 51.84 
z
" style="fill:#eaeaf2;"/>
   </g>
   <g id="matplotlib.axis_1">
    <g id="xtick_1">
     <g id="line2d_1">
      <path clip-path="url(#pbcfd1f111b)" d="M 137.7 378 
L 137.7 51.84 
" style="fill:none;stroke:#ffffff;stroke-linecap:round;"/>
     </g>
     <g id="text_1">
      <!-- pedes_3 -->
      <g style="fill:#262626;" transform="translate(116.101328 396.255313)scale(0.11 -0.11)">
       <defs>
        <path d="M 9.1875 -22.859375 
L 9.1875 54.296875 
L 16.703125 54.296875 
L 17.484375 48.140625 
L 17.78125 48.140625 
Q 26.953125 55.5625 35.0625 55.671875 
Q 48.140625 55.671875 53.609375 43.953125 
Q 56.734375 37.40625 56.734375 28.03125 
Q 56.734375 12.5 47.46875 4.296875 
Q 41.21875 -1.265625 33.109375 -1.265625 
Q 25.6875 -1.171875 18.0625 4.984375 
L 18.265625 -4.5 
L 18.265625 -22.859375 
z
M 31.640625 6.34375 
Q 39.9375 6.34375 44.234375 14.453125 
Q 47.171875 20.015625 47.171875 27.9375 
Q 46.96875 47.953125 32.90625 48.046875 
Q 26.265625 47.953125 18.265625 40.53125 
L 18.265625 12.015625 
Q 24.90625 6.34375 31.640625 6.34375 
z
" id="TaipeiSansTCBeta-Regular-112"/>
        <path d="M 31.0625 -1.265625 
Q 18.84375 -1.265625 11.53125 7.515625 
Q 5.078125 15.328125 5.078125 27.15625 
Q 5.078125 41.21875 14.0625 49.421875 
Q 20.90625 55.671875 29.59375 55.671875 
Q 42.78125 55.671875 48.25 44.625 
Q 51.171875 38.484375 51.171875 30.171875 
Q 51.171875 27.546875 50.78125 25 
L 14.15625 25 
Q 14.75 13.671875 22.5625 8.6875 
Q 26.765625 5.953125 32.234375 5.953125 
Q 39.546875 6.0625 45.796875 10.25 
L 49.125 4.296875 
Q 40.53125 -1.265625 31.0625 -1.265625 
z
M 14.0625 31.546875 
L 43.171875 31.546875 
Q 43.171875 45.125 33.984375 47.859375 
Q 31.9375 48.4375 29.6875 48.4375 
Q 21.96875 48.4375 17.484375 41.609375 
Q 14.65625 37.3125 14.0625 31.546875 
z
" id="TaipeiSansTCBeta-Regular-101"/>
        <path d="M 27.734375 -1.265625 
Q 15.140625 -1.265625 9.1875 9.46875 
Q 5.28125 16.703125 5.28125 27.15625 
Q 5.28125 41.5 14.0625 49.703125 
Q 20.515625 55.671875 28.8125 55.671875 
Q 35.9375 55.671875 42.390625 50.6875 
Q 43.265625 50 44.140625 49.3125 
L 43.5625 58.6875 
L 43.5625 79.59375 
L 52.734375 79.59375 
L 52.734375 0 
L 45.3125 0 
L 44.4375 6.453125 
L 44.234375 6.453125 
Q 36.328125 -1.171875 27.734375 -1.265625 
z
M 29.6875 6.34375 
Q 36.921875 6.453125 43.5625 13.765625 
L 43.5625 42.28125 
Q 37.015625 48.046875 30.375 48.046875 
Q 22.65625 48.046875 18.171875 40.71875 
Q 14.75 35.0625 14.75 27.25 
Q 14.75 12.203125 23.25 7.8125 
Q 26.171875 6.34375 29.6875 6.34375 
z
" id="TaipeiSansTCBeta-Regular-100"/>
        <path d="M 23.4375 -1.265625 
Q 12.5 -1.265625 3.71875 5.671875 
Q 3.421875 5.953125 3.125 6.15625 
L 7.625 12.203125 
Q 15.625 5.765625 23.734375 5.765625 
Q 31.84375 5.765625 33.890625 11.328125 
Q 34.375 12.796875 34.375 14.265625 
Q 34.375 19.140625 26.765625 22.65625 
Q 25.09375 23.34375 21.96875 24.609375 
Q 11.8125 28.421875 8.40625 32.625 
Q 5.765625 36.03125 5.765625 40.328125 
Q 5.765625 48.53125 12.890625 52.828125 
Q 17.78125 55.671875 24.515625 55.671875 
Q 33.59375 55.5625 41.40625 49.609375 
L 37.015625 43.65625 
Q 30.375 48.53125 24.515625 48.53125 
Q 16.703125 48.53125 15.046875 43.171875 
Q 14.65625 41.890625 14.65625 40.71875 
Q 14.65625 36.53125 20.703125 33.6875 
Q 22.078125 33.109375 26.5625 31.34375 
Q 35.546875 27.9375 38.671875 25.09375 
Q 43.171875 21 43.171875 14.84375 
Q 43.171875 6.34375 35.9375 1.859375 
Q 30.765625 -1.265625 23.4375 -1.265625 
z
" id="TaipeiSansTCBeta-Regular-115"/>
        <path d="M 1.265625 -13.96875 
L 1.265625 -7.90625 
L 54.5 -7.90625 
L 54.5 -13.96875 
z
" id="TaipeiSansTCBeta-Regular-95"/>
        <path d="M 26.375 -1.265625 
Q 12.109375 -1.171875 2.9375 8.6875 
L 7.515625 14.75 
Q 15.625 6.453125 25.6875 6.34375 
Q 34.671875 6.34375 38.578125 12.59375 
Q 40.625 15.828125 40.625 19.921875 
Q 40.4375 34.46875 17.78125 34.578125 
L 17.78125 41.609375 
Q 37.890625 41.796875 38.09375 55.5625 
Q 38.09375 63.484375 31.25 66.3125 
Q 28.71875 67.28125 25.6875 67.390625 
Q 17.578125 67 10.546875 60.0625 
L 5.5625 65.921875 
Q 15.140625 74.703125 26.078125 74.703125 
Q 38.484375 74.703125 44.140625 67.09375 
Q 47.359375 62.5 47.359375 56.34375 
Q 47.359375 44.828125 36.625 39.546875 
Q 35.453125 39.0625 34.28125 38.578125 
L 34.28125 38.1875 
Q 43.65625 36.03125 47.75 28.515625 
Q 49.90625 24.421875 49.90625 19.625 
Q 49.90625 8.5 40.828125 2.640625 
Q 34.578125 -1.265625 26.375 -1.265625 
z
" id="TaipeiSansTCBeta-Regular-51"/>
       </defs>
       <use xlink:href="#TaipeiSansTCBeta-Regular-112"/>
       <use x="61.914062" xlink:href="#TaipeiSansTCBeta-Regular-101"/>
       <use x="117.285156" xlink:href="#TaipeiSansTCBeta-Regular-100"/>
       <use x="179.199219" xlink:href="#TaipeiSansTCBeta-Regular-101"/>
       <use x="234.570312" xlink:href="#TaipeiSansTCBeta-Regular-115"/>
       <use x="281.347656" xlink:href="#TaipeiSansTCBeta-Regular-95"/>
       <use x="337.207031" xlink:href="#TaipeiSansTCBeta-Regular-51"/>
      </g>
     </g>
    </g>
    <g id="xtick_2">
     <g id="line2d_2">
      <path clip-path="url(#pbcfd1f111b)" d="M 305.1 378 
L 305.1 51.84 
" style="fill:none;stroke:#ffffff;stroke-linecap:round;"/>
     </g>
     <g id="text_2">
      <!-- pedes_4 -->
      <g style="fill:#262626;" transform="translate(283.501328 396.255313)scale(0.11 -0.11)">
       <defs>
        <path d="M 11.53125 27.546875 
L 33.890625 27.546875 
L 33.890625 50 
Q 33.890625 52.046875 34.46875 63.28125 
L 34.078125 63.28125 
Q 31.640625 58.296875 28.21875 52.546875 
z
M 52.34375 27.546875 
L 52.34375 20.21875 
L 42.578125 20.21875 
L 42.578125 0 
L 33.890625 0 
L 33.890625 20.21875 
L 1.953125 20.21875 
L 1.953125 26.171875 
L 32.515625 73.34375 
L 42.578125 73.34375 
L 42.578125 27.546875 
z
" id="TaipeiSansTCBeta-Regular-52"/>
       </defs>
       <use xlink:href="#TaipeiSansTCBeta-Regular-112"/>
       <use x="61.914062" xlink:href="#TaipeiSansTCBeta-Regular-101"/>
       <use x="117.285156" xlink:href="#TaipeiSansTCBeta-Regular-100"/>
       <use x="179.199219" xlink:href="#TaipeiSansTCBeta-Regular-101"/>
       <use x="234.570312" xlink:href="#TaipeiSansTCBeta-Regular-115"/>
       <use x="281.347656" xlink:href="#TaipeiSansTCBeta-Regular-95"/>
       <use x="337.207031" xlink:href="#TaipeiSansTCBeta-Regular-52"/>
      </g>
     </g>
    </g>
   </g>
   <g id="matplotlib.axis_2">
    <g id="ytick_1">
     <g id="line2d_3">
      <path clip-path="url(#pbcfd1f111b)" d="M 54 363.174545 
L 388.8 363.174545 
" style="fill:none;stroke:#ffffff;stroke-linecap:round;"/>
     </g>
     <g id="text_3">
      <!-- 1.0 -->
      <g style="fill:#262626;" transform="translate(29.246094 367.552202)scale(0.11 -0.11)">
       <defs>
        <path d="M 8.796875 0 
L 8.796875 7.625 
L 25.09375 7.625 
L 25.09375 62.3125 
L 12.109375 62.3125 
L 12.109375 68.0625 
Q 21.09375 69.734375 27.34375 73.34375 
L 34.28125 73.34375 
L 34.28125 7.625 
L 49.03125 7.625 
L 49.03125 0 
z
" id="TaipeiSansTCBeta-Regular-49"/>
        <path d="M 13.875 -1.265625 
Q 9.671875 -1.265625 8.015625 2.4375 
Q 7.328125 3.90625 7.328125 5.5625 
Q 7.328125 10.0625 10.9375 12.015625 
Q 12.40625 12.703125 13.875 12.703125 
Q 17.78125 12.703125 19.734375 9.078125 
Q 20.515625 7.421875 20.515625 5.5625 
Q 20.515625 1.078125 16.609375 -0.6875 
Q 15.234375 -1.265625 13.875 -1.265625 
z
" id="TaipeiSansTCBeta-Regular-46"/>
        <path d="M 27.828125 -1.265625 
Q 14.15625 -1.265625 8.40625 13.875 
Q 4.890625 23.046875 4.890625 36.921875 
Q 4.890625 64.359375 17.78125 72.078125 
Q 22.265625 74.703125 27.828125 74.703125 
Q 41.796875 74.703125 47.359375 59.1875 
Q 50.59375 50.203125 50.59375 36.921875 
Q 50.59375 10.0625 38.375 1.765625 
Q 33.6875 -1.265625 27.828125 -1.265625 
z
M 27.828125 5.953125 
Q 37.703125 5.953125 40.625 22.5625 
Q 41.703125 28.8125 41.703125 36.921875 
Q 41.703125 64.265625 30.28125 67 
Q 29 67.28125 27.828125 67.28125 
Q 17.09375 67.28125 14.546875 49.03125 
Q 13.765625 43.65625 13.765625 36.921875 
Q 13.765625 10.453125 24.3125 6.546875 
Q 26.078125 5.953125 27.828125 5.953125 
z
" id="TaipeiSansTCBeta-Regular-48"/>
       </defs>
       <use xlink:href="#TaipeiSansTCBeta-Regular-49"/>
       <use x="55.46875" xlink:href="#TaipeiSansTCBeta-Regular-46"/>
       <use x="83.203125" xlink:href="#TaipeiSansTCBeta-Regular-48"/>
      </g>
     </g>
    </g>
    <g id="ytick_2">
     <g id="line2d_4">
      <path clip-path="url(#pbcfd1f111b)" d="M 54 326.110909 
L 388.8 326.110909 
" style="fill:none;stroke:#ffffff;stroke-linecap:round;"/>
     </g>
     <g id="text_4">
      <!-- 1.5 -->
      <g style="fill:#262626;" transform="translate(29.246094 330.488565)scale(0.11 -0.11)">
       <defs>
        <path d="M 26.078125 -1.265625 
Q 12.5 -1.171875 2.828125 8.40625 
L 7.328125 14.359375 
Q 15.921875 6.640625 25.296875 6.34375 
Q 33.40625 6.34375 37.890625 12.890625 
Q 40.921875 17.390625 40.921875 23.640625 
Q 40.921875 34.578125 33.203125 38.578125 
Q 29.890625 40.328125 25.6875 40.328125 
Q 20.125 40.328125 14.359375 36.625 
Q 13.875 36.328125 13.484375 36.03125 
L 8.59375 38.96875 
L 10.9375 73.34375 
L 46.578125 73.34375 
L 46.578125 65.53125 
L 18.953125 65.53125 
L 17.09375 44.34375 
Q 22.359375 47.171875 28.03125 47.171875 
Q 40.828125 47.171875 46.578125 37.984375 
Q 50.09375 32.234375 50.09375 23.921875 
Q 50.09375 10.640625 40.625 3.515625 
Q 34.28125 -1.265625 26.078125 -1.265625 
z
" id="TaipeiSansTCBeta-Regular-53"/>
       </defs>
       <use xlink:href="#TaipeiSansTCBeta-Regular-49"/>
       <use x="55.46875" xlink:href="#TaipeiSansTCBeta-Regular-46"/>
       <use x="83.203125" xlink:href="#TaipeiSansTCBeta-Regular-53"/>
      </g>
     </g>
    </g>
    <g id="ytick_3">
     <g id="line2d_5">
      <path clip-path="url(#pbcfd1f111b)" d="M 54 289.047273 
L 388.8 289.047273 
" style="fill:none;stroke:#ffffff;stroke-linecap:round;"/>
     </g>
     <g id="text_5">
      <!-- 2.0 -->
      <g style="fill:#262626;" transform="translate(29.246094 293.424929)scale(0.11 -0.11)">
       <defs>
        <path d="M 4.390625 0 
L 4.390625 5.375 
Q 31.640625 29.203125 36.71875 44.828125 
Q 37.984375 48.921875 37.984375 52.734375 
Q 37.984375 62.796875 30.765625 66.015625 
Q 27.9375 67.1875 24.515625 67.1875 
Q 16.40625 67.09375 9.28125 58.6875 
L 4 63.875 
Q 12.59375 73.34375 22.171875 74.515625 
Q 23.921875 74.703125 25.59375 74.703125 
Q 37.890625 74.703125 43.5625 65.71875 
Q 46.875 60.359375 46.875 53.03125 
Q 46.875 37.59375 28.328125 17.484375 
Q 23.828125 12.59375 18.171875 7.234375 
Q 27.046875 7.90625 30.171875 7.90625 
L 50.484375 7.90625 
L 50.484375 0 
z
" id="TaipeiSansTCBeta-Regular-50"/>
       </defs>
       <use xlink:href="#TaipeiSansTCBeta-Regular-50"/>
       <use x="55.46875" xlink:href="#TaipeiSansTCBeta-Regular-46"/>
       <use x="83.203125" xlink:href="#TaipeiSansTCBeta-Regular-48"/>
      </g>
     </g>
    </g>
    <g id="ytick_4">
     <g id="line2d_6">
      <path clip-path="url(#pbcfd1f111b)" d="M 54 251.983636 
L 388.8 251.983636 
" style="fill:none;stroke:#ffffff;stroke-linecap:round;"/>
     </g>
     <g id="text_6">
      <!-- 2.5 -->
      <g style="fill:#262626;" transform="translate(29.246094 256.361293)scale(0.11 -0.11)">
       <use xlink:href="#TaipeiSansTCBeta-Regular-50"/>
       <use x="55.46875" xlink:href="#TaipeiSansTCBeta-Regular-46"/>
       <use x="83.203125" xlink:href="#TaipeiSansTCBeta-Regular-53"/>
      </g>
     </g>
    </g>
    <g id="ytick_5">
     <g id="line2d_7">
      <path clip-path="url(#pbcfd1f111b)" d="M 54 214.92 
L 388.8 214.92 
" style="fill:none;stroke:#ffffff;stroke-linecap:round;"/>
     </g>
     <g id="text_7">
      <!-- 3.0 -->
      <g style="fill:#262626;" transform="translate(29.246094 219.297656)scale(0.11 -0.11)">
       <use xlink:href="#TaipeiSansTCBeta-Regular-51"/>
       <use x="55.46875" xlink:href="#TaipeiSansTCBeta-Regular-46"/>
       <use x="83.203125" xlink:href="#TaipeiSansTCBeta-Regular-48"/>
      </g>
     </g>
    </g>
    <g id="ytick_6">
     <g id="line2d_8">
      <path clip-path="url(#pbcfd1f111b)" d="M 54 177.856364 
L 388.8 177.856364 
" style="fill:none;stroke:#ffffff;stroke-linecap:round;"/>
     </g>
     <g id="text_8">
      <!-- 3.5 -->
      <g style="fill:#262626;" transform="translate(29.246094 182.23402)scale(0.11 -0.11)">
       <use xlink:href="#TaipeiSansTCBeta-Regular-51"/>
       <use x="55.46875" xlink:href="#TaipeiSansTCBeta-Regular-46"/>
       <use x="83.203125" xlink:href="#TaipeiSansTCBeta-Regular-53"/>
      </g>
     </g>
    </g>
    <g id="ytick_7">
     <g id="line2d_9">
      <path clip-path="url(#pbcfd1f111b)" d="M 54 140.792727 
L 388.8 140.792727 
" style="fill:none;stroke:#ffffff;stroke-linecap:round;"/>
     </g>
     <g id="text_9">
      <!-- 4.0 -->
      <g style="fill:#262626;" transform="translate(29.246094 145.170384)scale(0.11 -0.11)">
       <use xlink:href="#TaipeiSansTCBeta-Regular-52"/>
       <use x="55.46875" xlink:href="#TaipeiSansTCBeta-Regular-46"/>
       <use x="83.203125" xlink:href="#TaipeiSansTCBeta-Regular-48"/>
      </g>
     </g>
    </g>
    <g id="ytick_8">
     <g id="line2d_10">
      <path clip-path="url(#pbcfd1f111b)" d="M 54 103.729091 
L 388.8 103.729091 
" style="fill:none;stroke:#ffffff;stroke-linecap:round;"/>
     </g>
     <g id="text_10">
      <!-- 4.5 -->
      <g style="fill:#262626;" transform="translate(29.246094 108.106747)scale(0.11 -0.11)">
       <use xlink:href="#TaipeiSansTCBeta-Regular-52"/>
       <use x="55.46875" xlink:href="#TaipeiSansTCBeta-Regular-46"/>
       <use x="83.203125" xlink:href="#TaipeiSansTCBeta-Regular-53"/>
      </g>
     </g>
    </g>
    <g id="ytick_9">
     <g id="line2d_11">
      <path clip-path="url(#pbcfd1f111b)" d="M 54 66.665455 
L 388.8 66.665455 
" style="fill:none;stroke:#ffffff;stroke-linecap:round;"/>
     </g>
     <g id="text_11">
      <!-- 5.0 -->
      <g style="fill:#262626;" transform="translate(29.246094 71.043111)scale(0.11 -0.11)">
       <use xlink:href="#TaipeiSansTCBeta-Regular-53"/>
       <use x="55.46875" xlink:href="#TaipeiSansTCBeta-Regular-46"/>
       <use x="83.203125" xlink:href="#TaipeiSansTCBeta-Regular-48"/>
      </g>
     </g>
    </g>
   </g>
   <g id="line2d_12">
    <path clip-path="url(#pbcfd1f111b)" d="M 125.145 214.92 
L 150.255 214.92 
L 150.255 66.665455 
L 125.145 66.665455 
L 125.145 214.92 
" style="fill:none;stroke:#4c4c4c;stroke-linecap:round;"/>
   </g>
   <g id="line2d_13">
    <path clip-path="url(#pbcfd1f111b)" d="M 137.7 214.92 
L 137.7 363.174545 
" style="fill:none;stroke:#4c4c4c;stroke-linecap:round;"/>
   </g>
   <g id="line2d_14">
    <path clip-path="url(#pbcfd1f111b)" d="M 137.7 66.665455 
L 137.7 66.665455 
" style="fill:none;stroke:#4c4c4c;stroke-linecap:round;"/>
   </g>
   <g id="line2d_15">
    <path clip-path="url(#pbcfd1f111b)" d="M 131.4225 363.174545 
L 143.9775 363.174545 
" style="fill:none;stroke:#1a1a1a;stroke-linecap:round;"/>
   </g>
   <g id="line2d_16">
    <path clip-path="url(#pbcfd1f111b)" d="M 131.4225 66.665455 
L 143.9775 66.665455 
" style="fill:none;stroke:#1a1a1a;stroke-linecap:round;"/>
   </g>
   <g id="line2d_17"/>
   <g id="line2d_18">
    <path clip-path="url(#pbcfd1f111b)" d="M 292.545 214.92 
L 317.655 214.92 
L 317.655 140.792727 
L 292.545 140.792727 
L 292.545 214.92 
" style="fill:none;stroke:#4c4c4c;stroke-linecap:round;"/>
   </g>
   <g id="line2d_19">
    <path clip-path="url(#pbcfd1f111b)" d="M 305.1 214.92 
L 305.1 289.047273 
" style="fill:none;stroke:#4c4c4c;stroke-linecap:round;"/>
   </g>
   <g id="line2d_20">
    <path clip-path="url(#pbcfd1f111b)" d="M 305.1 140.792727 
L 305.1 66.665455 
" style="fill:none;stroke:#4c4c4c;stroke-linecap:round;"/>
   </g>
   <g id="line2d_21">
    <path clip-path="url(#pbcfd1f111b)" d="M 298.8225 289.047273 
L 311.3775 289.047273 
" style="fill:none;stroke:#1a1a1a;stroke-linecap:round;"/>
   </g>
   <g id="line2d_22">
    <path clip-path="url(#pbcfd1f111b)" d="M 298.8225 66.665455 
L 311.3775 66.665455 
" style="fill:none;stroke:#1a1a1a;stroke-linecap:round;"/>
   </g>
   <g id="line2d_23">
    <defs>
     <path d="M 0 3 
C 0.795609 3 1.55874 2.683901 2.12132 2.12132 
C 2.683901 1.55874 3 0.795609 3 0 
C 3 -0.795609 2.683901 -1.55874 2.12132 -2.12132 
C 1.55874 -2.683901 0.795609 -3 0 -3 
C -0.795609 -3 -1.55874 -2.683901 -2.12132 -2.12132 
C -2.683901 -1.55874 -3 -0.795609 -3 0 
C -3 0.795609 -2.683901 1.55874 -2.12132 2.12132 
C -1.55874 2.683901 -0.795609 3 0 3 
z
" id="mb01030ff6b" style="stroke:#000000;"/>
    </defs>
    <g clip-path="url(#pbcfd1f111b)">
     <use style="fill-opacity:0;stroke:#000000;" x="305.1" xlink:href="#mb01030ff6b" y="363.174545"/>
     <use style="fill-opacity:0;stroke:#000000;" x="305.1" xlink:href="#mb01030ff6b" y="363.174545"/>
     <use style="fill-opacity:0;stroke:#000000;" x="305.1" xlink:href="#mb01030ff6b" y="363.174545"/>
     <use style="fill-opacity:0;stroke:#000000;" x="305.1" xlink:href="#mb01030ff6b" y="363.174545"/>
     <use style="fill-opacity:0;stroke:#000000;" x="305.1" xlink:href="#mb01030ff6b" y="363.174545"/>
     <use style="fill-opacity:0;stroke:#000000;" x="305.1" xlink:href="#mb01030ff6b" y="363.174545"/>
     <use style="fill-opacity:0;stroke:#000000;" x="305.1" xlink:href="#mb01030ff6b" y="363.174545"/>
     <use style="fill-opacity:0;stroke:#000000;" x="305.1" xlink:href="#mb01030ff6b" y="363.174545"/>
     <use style="fill-opacity:0;stroke:#000000;" x="305.1" xlink:href="#mb01030ff6b" y="363.174545"/>
     <use style="fill-opacity:0;stroke:#000000;" x="305.1" xlink:href="#mb01030ff6b" y="363.174545"/>
     <use style="fill-opacity:0;stroke:#000000;" x="305.1" xlink:href="#mb01030ff6b" y="363.174545"/>
     <use style="fill-opacity:0;stroke:#000000;" x="305.1" xlink:href="#mb01030ff6b" y="363.174545"/>
     <use style="fill-opacity:0;stroke:#000000;" x="305.1" xlink:href="#mb01030ff6b" y="363.174545"/>
     <use style="fill-opacity:0;stroke:#000000;" x="305.1" xlink:href="#mb01030ff6b" y="363.174545"/>
     <use style="fill-opacity:0;stroke:#000000;" x="305.1" xlink:href="#mb01030ff6b" y="363.174545"/>
     <use style="fill-opacity:0;stroke:#000000;" x="305.1" xlink:href="#mb01030ff6b" y="363.174545"/>
     <use style="fill-opacity:0;stroke:#000000;" x="305.1" xlink:href="#mb01030ff6b" y="363.174545"/>
     <use style="fill-opacity:0;stroke:#000000;" x="305.1" xlink:href="#mb01030ff6b" y="363.174545"/>
     <use style="fill-opacity:0;stroke:#000000;" x="305.1" xlink:href="#mb01030ff6b" y="363.174545"/>
     <use style="fill-opacity:0;stroke:#000000;" x="305.1" xlink:href="#mb01030ff6b" y="363.174545"/>
    </g>
   </g>
   <g id="line2d_24">
    <path clip-path="url(#pbcfd1f111b)" d="M 125.145 140.792727 
L 150.255 140.792727 
" style="fill:none;stroke:#b0b0b0;stroke-linecap:round;"/>
   </g>
   <g id="line2d_25">
    <defs>
     <path d="M 0 -3 
L -3 3 
L 3 3 
z
" id="mc5f31f074c" style="stroke:#55a868;stroke-linejoin:miter;"/>
    </defs>
    <g clip-path="url(#pbcfd1f111b)">
     <use style="fill:#55a868;stroke:#55a868;stroke-linejoin:miter;" x="137.7" xlink:href="#mc5f31f074c" y="178.33771"/>
    </g>
   </g>
   <g id="line2d_26">
    <path clip-path="url(#pbcfd1f111b)" d="M 292.545 140.792727 
L 317.655 140.792727 
" style="fill:none;stroke:#b0b0b0;stroke-linecap:round;"/>
   </g>
   <g id="line2d_27">
    <g clip-path="url(#pbcfd1f111b)">
     <use style="fill:#55a868;stroke:#55a868;stroke-linejoin:miter;" x="305.1" xlink:href="#mc5f31f074c" y="185.718347"/>
    </g>
   </g>
   <g id="patch_3">
    <path d="M 54 378 
L 54 51.84 
" style="fill:none;stroke:#ffffff;stroke-linecap:square;stroke-linejoin:miter;stroke-width:1.25;"/>
   </g>
   <g id="patch_4">
    <path d="M 388.8 378 
L 388.8 51.84 
" style="fill:none;stroke:#ffffff;stroke-linecap:square;stroke-linejoin:miter;stroke-width:1.25;"/>
   </g>
   <g id="patch_5">
    <path d="M 54 378 
L 388.8 378 
" style="fill:none;stroke:#ffffff;stroke-linecap:square;stroke-linejoin:miter;stroke-width:1.25;"/>
   </g>
   <g id="patch_6">
    <path d="M 54 51.84 
L 388.8 51.84 
" style="fill:none;stroke:#ffffff;stroke-linecap:square;stroke-linejoin:miter;stroke-width:1.25;"/>
   </g>
  </g>
 </g>
 <defs>
  <clipPath id="pbcfd1f111b">
   <rect height="326.16" width="334.8" x="54" y="51.84"/>
  </clipPath>
 </defs>
</svg>
