<?xml version="1.0" encoding="utf-8" standalone="no"?>
<!DOCTYPE svg PUBLIC "-//W3C//DTD SVG 1.1//EN"
  "http://www.w3.org/Graphics/SVG/1.1/DTD/svg11.dtd">
<!-- Created with matplotlib (https://matplotlib.org/) -->
<svg height="864pt" version="1.1" viewBox="0 0 720 864" width="720pt" xmlns="http://www.w3.org/2000/svg" xmlns:xlink="http://www.w3.org/1999/xlink">
 <metadata>
  <rdf:RDF xmlns:cc="http://creativecommons.org/ns#" xmlns:dc="http://purl.org/dc/elements/1.1/" xmlns:rdf="http://www.w3.org/1999/02/22-rdf-syntax-ns#">
   <cc:Work>
    <dc:type rdf:resource="http://purl.org/dc/dcmitype/StillImage"/>
    <dc:date>2021-02-22T21:17:19.278333</dc:date>
    <dc:format>image/svg+xml</dc:format>
    <dc:creator>
     <cc:Agent>
      <dc:title>Matplotlib v3.3.3, https://matplotlib.org/</dc:title>
     </cc:Agent>
    </dc:creator>
   </cc:Work>
  </rdf:RDF>
 </metadata>
 <defs>
  <style type="text/css">*{stroke-linecap:butt;stroke-linejoin:round;}</style>
 </defs>
 <g id="figure_1">
  <g id="patch_1">
   <path d="M 0 864 
L 720 864 
L 720 0 
L 0 0 
z
" style="fill:#ffffff;"/>
  </g>
  <g id="axes_1">
   <g id="patch_2">
    <path d="M 90 400.189091 
L 648 400.189091 
L 648 103.68 
L 90 103.68 
z
" style="fill:#eaeaf2;"/>
   </g>
   <g id="matplotlib.axis_1">
    <g id="xtick_1">
     <g id="line2d_1">
      <path clip-path="url(#pee7fcfa248)" d="M 90 400.189091 
L 90 103.68 
" style="fill:none;stroke:#ffffff;stroke-linecap:round;"/>
     </g>
     <g id="text_1">
      <!-- 0.0 -->
      <g style="fill:#262626;" transform="translate(82.373047 418.444403)scale(0.11 -0.11)">
       <defs>
        <path d="M 27.828125 -1.265625 
Q 14.15625 -1.265625 8.40625 13.875 
Q 4.890625 23.046875 4.890625 36.921875 
Q 4.890625 64.359375 17.78125 72.078125 
Q 22.265625 74.703125 27.828125 74.703125 
Q 41.796875 74.703125 47.359375 59.1875 
Q 50.59375 50.203125 50.59375 36.921875 
Q 50.59375 10.0625 38.375 1.765625 
Q 33.6875 -1.265625 27.828125 -1.265625 
z
M 27.828125 5.953125 
Q 37.703125 5.953125 40.625 22.5625 
Q 41.703125 28.8125 41.703125 36.921875 
Q 41.703125 64.265625 30.28125 67 
Q 29 67.28125 27.828125 67.28125 
Q 17.09375 67.28125 14.546875 49.03125 
Q 13.765625 43.65625 13.765625 36.921875 
Q 13.765625 10.453125 24.3125 6.546875 
Q 26.078125 5.953125 27.828125 5.953125 
z
" id="TaipeiSansTCBeta-Regular-48"/>
        <path d="M 13.875 -1.265625 
Q 9.671875 -1.265625 8.015625 2.4375 
Q 7.328125 3.90625 7.328125 5.5625 
Q 7.328125 10.0625 10.9375 12.015625 
Q 12.40625 12.703125 13.875 12.703125 
Q 17.78125 12.703125 19.734375 9.078125 
Q 20.515625 7.421875 20.515625 5.5625 
Q 20.515625 1.078125 16.609375 -0.6875 
Q 15.234375 -1.265625 13.875 -1.265625 
z
" id="TaipeiSansTCBeta-Regular-46"/>
       </defs>
       <use xlink:href="#TaipeiSansTCBeta-Regular-48"/>
       <use x="55.46875" xlink:href="#TaipeiSansTCBeta-Regular-46"/>
       <use x="83.203125" xlink:href="#TaipeiSansTCBeta-Regular-48"/>
      </g>
     </g>
    </g>
    <g id="xtick_2">
     <g id="line2d_2">
      <path clip-path="url(#pee7fcfa248)" d="M 196.285714 400.189091 
L 196.285714 103.68 
" style="fill:none;stroke:#ffffff;stroke-linecap:round;"/>
     </g>
     <g id="text_2">
      <!-- 0.2 -->
      <g style="fill:#262626;" transform="translate(188.658761 418.444403)scale(0.11 -0.11)">
       <defs>
        <path d="M 4.390625 0 
L 4.390625 5.375 
Q 31.640625 29.203125 36.71875 44.828125 
Q 37.984375 48.921875 37.984375 52.734375 
Q 37.984375 62.796875 30.765625 66.015625 
Q 27.9375 67.1875 24.515625 67.1875 
Q 16.40625 67.09375 9.28125 58.6875 
L 4 63.875 
Q 12.59375 73.34375 22.171875 74.515625 
Q 23.921875 74.703125 25.59375 74.703125 
Q 37.890625 74.703125 43.5625 65.71875 
Q 46.875 60.359375 46.875 53.03125 
Q 46.875 37.59375 28.328125 17.484375 
Q 23.828125 12.59375 18.171875 7.234375 
Q 27.046875 7.90625 30.171875 7.90625 
L 50.484375 7.90625 
L 50.484375 0 
z
" id="TaipeiSansTCBeta-Regular-50"/>
       </defs>
       <use xlink:href="#TaipeiSansTCBeta-Regular-48"/>
       <use x="55.46875" xlink:href="#TaipeiSansTCBeta-Regular-46"/>
       <use x="83.203125" xlink:href="#TaipeiSansTCBeta-Regular-50"/>
      </g>
     </g>
    </g>
    <g id="xtick_3">
     <g id="line2d_3">
      <path clip-path="url(#pee7fcfa248)" d="M 302.571429 400.189091 
L 302.571429 103.68 
" style="fill:none;stroke:#ffffff;stroke-linecap:round;"/>
     </g>
     <g id="text_3">
      <!-- 0.4 -->
      <g style="fill:#262626;" transform="translate(294.944475 418.444403)scale(0.11 -0.11)">
       <defs>
        <path d="M 11.53125 27.546875 
L 33.890625 27.546875 
L 33.890625 50 
Q 33.890625 52.046875 34.46875 63.28125 
L 34.078125 63.28125 
Q 31.640625 58.296875 28.21875 52.546875 
z
M 52.34375 27.546875 
L 52.34375 20.21875 
L 42.578125 20.21875 
L 42.578125 0 
L 33.890625 0 
L 33.890625 20.21875 
L 1.953125 20.21875 
L 1.953125 26.171875 
L 32.515625 73.34375 
L 42.578125 73.34375 
L 42.578125 27.546875 
z
" id="TaipeiSansTCBeta-Regular-52"/>
       </defs>
       <use xlink:href="#TaipeiSansTCBeta-Regular-48"/>
       <use x="55.46875" xlink:href="#TaipeiSansTCBeta-Regular-46"/>
       <use x="83.203125" xlink:href="#TaipeiSansTCBeta-Regular-52"/>
      </g>
     </g>
    </g>
    <g id="xtick_4">
     <g id="line2d_4">
      <path clip-path="url(#pee7fcfa248)" d="M 408.857143 400.189091 
L 408.857143 103.68 
" style="fill:none;stroke:#ffffff;stroke-linecap:round;"/>
     </g>
     <g id="text_4">
      <!-- 0.6 -->
      <g style="fill:#262626;" transform="translate(401.23019 418.444403)scale(0.11 -0.11)">
       <defs>
        <path d="M 30.078125 5.765625 
Q 36.625 5.765625 40.140625 12.3125 
Q 42.484375 16.703125 42.484375 22.46875 
Q 42.484375 35.25 33.796875 37.984375 
Q 31.734375 38.671875 29.296875 38.671875 
Q 21.1875 38.671875 14.75 29.984375 
Q 14.453125 29.59375 14.265625 29.296875 
Q 15.625 9.46875 26.171875 6.34375 
Q 28.125 5.765625 30.078125 5.765625 
z
M 49.8125 67.1875 
L 44.828125 61.53125 
Q 40.140625 67 33.015625 67.09375 
Q 20.703125 67.09375 16.21875 52.640625 
Q 14.265625 45.90625 14.0625 36.625 
Q 20.015625 43.84375 28.03125 45.21875 
Q 29.5 45.515625 30.765625 45.515625 
Q 44.4375 45.515625 49.125 34.078125 
Q 51.078125 29.109375 51.078125 22.46875 
Q 51.078125 10.546875 43.265625 3.71875 
Q 37.5 -1.265625 30.078125 -1.265625 
Q 17.390625 -1.265625 10.75 10.546875 
Q 5.5625 19.921875 5.5625 34.96875 
Q 5.5625 61.03125 18.953125 70.40625 
Q 25 74.703125 32.71875 74.703125 
Q 42.78125 74.609375 49.8125 67.1875 
z
" id="TaipeiSansTCBeta-Regular-54"/>
       </defs>
       <use xlink:href="#TaipeiSansTCBeta-Regular-48"/>
       <use x="55.46875" xlink:href="#TaipeiSansTCBeta-Regular-46"/>
       <use x="83.203125" xlink:href="#TaipeiSansTCBeta-Regular-54"/>
      </g>
     </g>
    </g>
    <g id="xtick_5">
     <g id="line2d_5">
      <path clip-path="url(#pee7fcfa248)" d="M 515.142857 400.189091 
L 515.142857 103.68 
" style="fill:none;stroke:#ffffff;stroke-linecap:round;"/>
     </g>
     <g id="text_5">
      <!-- 0.8 -->
      <g style="fill:#262626;" transform="translate(507.515904 418.444403)scale(0.11 -0.11)">
       <defs>
        <path d="M 27.9375 -1.265625 
Q 15.921875 -1.265625 9.1875 6.0625 
Q 4.5 11.234375 4.5 18.171875 
Q 4.5 29.203125 14.75 36.421875 
Q 16.3125 37.5 17.96875 38.375 
L 17.96875 38.875 
Q 8.203125 45.796875 8.109375 55.765625 
Q 8.109375 65.71875 16.015625 71 
Q 21.1875 74.421875 28.21875 74.421875 
Q 39.9375 74.421875 45.3125 66.109375 
Q 48.34375 61.328125 48.34375 55.078125 
Q 48.34375 46.390625 40.328125 38.96875 
Q 39.359375 38.09375 38.484375 37.40625 
L 38.484375 36.921875 
Q 50.78125 29.6875 50.875 17.671875 
Q 50.875 8.40625 42.96875 3.03125 
Q 36.71875 -1.265625 27.9375 -1.265625 
z
M 32.90625 39.84375 
Q 40.4375 46.578125 40.53125 54.59375 
Q 40.53125 62.203125 34.96875 65.828125 
Q 31.9375 67.671875 28.03125 67.671875 
Q 21.09375 67.671875 17.96875 62.109375 
Q 16.40625 59.28125 16.40625 55.765625 
Q 16.40625 48.046875 25.390625 43.265625 
Q 28.125 41.703125 32.90625 39.84375 
z
M 28.125 5.46875 
Q 36.71875 5.46875 40.4375 11.421875 
Q 42.1875 14.359375 42.1875 17.875 
Q 42.1875 25.6875 33.40625 30.765625 
Q 30.078125 32.71875 22.75 35.640625 
Q 13.28125 28.609375 12.796875 19.046875 
Q 12.796875 11.8125 19.046875 7.90625 
Q 23.046875 5.46875 28.125 5.46875 
z
" id="TaipeiSansTCBeta-Regular-56"/>
       </defs>
       <use xlink:href="#TaipeiSansTCBeta-Regular-48"/>
       <use x="55.46875" xlink:href="#TaipeiSansTCBeta-Regular-46"/>
       <use x="83.203125" xlink:href="#TaipeiSansTCBeta-Regular-56"/>
      </g>
     </g>
    </g>
    <g id="xtick_6">
     <g id="line2d_6">
      <path clip-path="url(#pee7fcfa248)" d="M 621.428571 400.189091 
L 621.428571 103.68 
" style="fill:none;stroke:#ffffff;stroke-linecap:round;"/>
     </g>
     <g id="text_6">
      <!-- 1.0 -->
      <g style="fill:#262626;" transform="translate(613.801618 418.444403)scale(0.11 -0.11)">
       <defs>
        <path d="M 8.796875 0 
L 8.796875 7.625 
L 25.09375 7.625 
L 25.09375 62.3125 
L 12.109375 62.3125 
L 12.109375 68.0625 
Q 21.09375 69.734375 27.34375 73.34375 
L 34.28125 73.34375 
L 34.28125 7.625 
L 49.03125 7.625 
L 49.03125 0 
z
" id="TaipeiSansTCBeta-Regular-49"/>
       </defs>
       <use xlink:href="#TaipeiSansTCBeta-Regular-49"/>
       <use x="55.46875" xlink:href="#TaipeiSansTCBeta-Regular-46"/>
       <use x="83.203125" xlink:href="#TaipeiSansTCBeta-Regular-48"/>
      </g>
     </g>
    </g>
   </g>
   <g id="matplotlib.axis_2">
    <g id="ytick_1">
     <g id="line2d_7">
      <path clip-path="url(#pee7fcfa248)" d="M 90 251.934545 
L 648 251.934545 
" style="fill:none;stroke:#ffffff;stroke-linecap:round;"/>
     </g>
     <g id="text_7">
      <!-- 自行車（含自有交通工具） -->
      <g style="fill:#262626;" transform="translate(-51.5 256.312202)scale(0.11 -0.11)">
       <defs>
        <path d="M 24.03125 4.78125 
L 77.34375 4.78125 
L 77.34375 19.625 
L 24.03125 19.625 
z
M 77.34375 41.109375 
L 24.03125 41.109375 
L 24.03125 26.5625 
L 77.34375 26.5625 
z
M 77.34375 62.984375 
L 24.03125 62.984375 
L 24.03125 48.140625 
L 77.34375 48.140625 
z
M 49.125 70.125 
L 84.96875 70.125 
L 84.96875 -7.328125 
L 77.34375 -7.328125 
L 77.34375 -2.25 
L 24.03125 -2.25 
L 24.03125 -7.8125 
L 16.609375 -7.8125 
L 16.609375 70.125 
L 41.703125 70.125 
Q 44.625 78.90625 45.609375 83.796875 
L 54.109375 82.71875 
Q 52.25 77.25 49.125 70.125 
z
" id="TaipeiSansTCBeta-Regular-33258"/>
        <path d="M 92.28125 77.640625 
L 92.28125 70.609375 
L 43.453125 70.609375 
L 43.453125 77.640625 
z
M 26.765625 83.6875 
L 33.890625 80.859375 
Q 25.09375 69.046875 11.71875 58.59375 
Q 9.96875 57.234375 8.296875 56.0625 
Q 5.078125 60.75 3.90625 62.015625 
Q 14.84375 69.34375 23.4375 79.390625 
Q 25.390625 81.734375 26.765625 83.6875 
z
M 30.859375 62.40625 
L 37.796875 59.765625 
Q 33.40625 52.640625 26.765625 44.734375 
L 26.765625 -7.90625 
L 19.4375 -7.90625 
L 19.4375 36.53125 
Q 12.984375 29.984375 8.109375 26.078125 
Q 5.171875 30.078125 2.9375 32.328125 
Q 16.3125 41.890625 26.859375 56.453125 
Q 29.109375 59.46875 30.859375 62.40625 
z
M 95.21875 50.296875 
L 95.21875 43.171875 
L 80.078125 43.171875 
L 80.078125 1.859375 
Q 80.078125 -3.8125 76.953125 -5.5625 
Q 76.375 -5.859375 75.6875 -6.15625 
Q 71.78125 -7.328125 56.9375 -7.328125 
Q 56.453125 -4 54.5 -0.09375 
Q 65.921875 -0.390625 70.125 -0.203125 
Q 72.359375 0.59375 72.5625 1.953125 
L 72.5625 43.171875 
L 39.15625 43.171875 
L 39.15625 50.296875 
z
" id="TaipeiSansTCBeta-Regular-34892"/>
        <path d="M 23.140625 27.9375 
L 46 27.9375 
L 46 38.1875 
L 23.140625 38.1875 
z
M 23.140625 54.296875 
L 23.140625 44.140625 
L 46 44.140625 
L 46 54.296875 
z
M 76.859375 54.296875 
L 53.515625 54.296875 
L 53.515625 44.140625 
L 76.859375 44.140625 
z
M 76.859375 27.9375 
L 76.859375 38.1875 
L 53.515625 38.1875 
L 53.515625 27.9375 
z
M 94.828125 13.578125 
L 94.828125 6.9375 
L 53.515625 6.9375 
L 53.515625 -7.90625 
L 46 -7.90625 
L 46 6.9375 
L 5.5625 6.9375 
L 5.5625 13.578125 
L 46 13.578125 
L 46 21.78125 
L 16.015625 21.78125 
L 16.015625 60.546875 
L 46 60.546875 
L 46 67.78125 
L 8.59375 67.78125 
L 8.59375 74.609375 
L 46 74.609375 
L 46 83.59375 
L 53.515625 83.59375 
L 53.515625 74.609375 
L 91.40625 74.609375 
L 91.40625 67.78125 
L 53.515625 67.78125 
L 53.515625 60.546875 
L 84.28125 60.546875 
L 84.28125 21.78125 
L 53.515625 21.78125 
L 53.515625 13.578125 
z
" id="TaipeiSansTCBeta-Regular-36554"/>
        <path d="M 89.359375 -9.578125 
Q 69.53125 10.640625 69.53125 37.984375 
Q 69.625 65.53125 89.359375 85.640625 
L 95.40625 82.515625 
Q 76.765625 63.1875 76.765625 37.984375 
Q 76.859375 12.703125 95.40625 -6.546875 
z
" id="TaipeiSansTCBeta-Regular-65288"/>
        <path d="M 73.828125 2.828125 
L 73.828125 20.703125 
L 26.5625 20.703125 
L 26.5625 2.828125 
z
M 74.21875 48.921875 
L 79.78125 46.875 
Q 74.703125 36.8125 68.65625 27.34375 
L 81.453125 27.34375 
L 81.453125 -7.71875 
L 73.828125 -7.71875 
L 73.828125 -3.8125 
L 26.5625 -3.8125 
L 26.5625 -7.71875 
L 19.34375 -7.71875 
L 19.34375 27.34375 
L 59.96875 27.34375 
Q 62.796875 31.734375 68.65625 41.890625 
L 17.578125 41.890625 
L 17.578125 48.4375 
L 72.75 48.4375 
z
M 32.03125 62.984375 
L 68.171875 62.984375 
Q 57.03125 69.921875 49.609375 77.640625 
Q 42.78125 70.015625 32.03125 62.984375 
z
M 45.703125 83.796875 
L 52.734375 83.796875 
Q 65.4375 70.515625 85.640625 61.53125 
Q 91.21875 59.078125 96.484375 57.328125 
Q 94.4375 55.171875 92 51.078125 
Q 81.453125 55.078125 69.734375 62.109375 
L 69.734375 56.734375 
L 31.0625 56.734375 
L 31.0625 62.40625 
Q 20.125 55.375 8.109375 50.390625 
Q 6.25 53.8125 3.90625 56.34375 
Q 22.5625 63.1875 37.109375 75.203125 
Q 42.28125 79.59375 45.703125 83.796875 
z
" id="TaipeiSansTCBeta-Regular-21547"/>
        <path d="M 74.703125 35.359375 
L 74.703125 45.515625 
L 33.015625 45.515625 
L 33.015625 35.359375 
z
M 33.015625 18.453125 
L 74.703125 18.453125 
L 74.703125 28.90625 
L 33.015625 28.90625 
z
M 93.65625 63.765625 
L 39.9375 63.765625 
Q 36.921875 57.421875 33.796875 52.25 
L 82.03125 52.25 
L 82.03125 1.65625 
Q 82.03125 -3.8125 79.203125 -5.46875 
Q 78.515625 -5.859375 77.828125 -6.15625 
Q 73.828125 -7.515625 60.359375 -7.515625 
Q 59.96875 -4.390625 58.015625 -0.203125 
Q 62.59375 -0.390625 72.359375 -0.390625 
Q 74.609375 -0.09375 74.703125 1.65625 
L 74.703125 12.109375 
L 33.015625 12.109375 
L 33.015625 -7.625 
L 25.6875 -7.625 
L 25.6875 40.625 
Q 17.875 31.0625 8.984375 24.8125 
Q 7.234375 27.734375 4.296875 30.46875 
Q 21.09375 41.890625 31.84375 63.765625 
L 6.734375 63.765625 
L 6.734375 70.796875 
L 34.859375 70.796875 
Q 37.890625 78.609375 39.265625 83.6875 
L 46.6875 81.9375 
Q 44.53125 75.09375 42.78125 70.796875 
L 93.65625 70.796875 
z
" id="TaipeiSansTCBeta-Regular-26377"/>
        <path d="M 93.5625 70.703125 
L 93.5625 63.484375 
L 6.546875 63.484375 
L 6.546875 70.703125 
L 46.09375 70.703125 
L 46.09375 83.796875 
L 53.515625 83.796875 
L 53.515625 70.703125 
z
M 61.8125 56.34375 
L 67.671875 60.84375 
Q 84.765625 49.21875 93.359375 40.046875 
Q 94.046875 39.265625 94.53125 38.671875 
L 87.984375 33.59375 
Q 81.15625 42 65.71875 53.515625 
Q 63.671875 55.078125 61.8125 56.34375 
z
M 32.03125 60.359375 
L 39.453125 57.515625 
Q 30.859375 45.703125 16.109375 35.453125 
Q 13.875 33.890625 11.8125 32.625 
Q 8.203125 36.71875 5.671875 38.484375 
Q 19.4375 45.796875 28.8125 56.34375 
Q 30.671875 58.40625 32.03125 60.359375 
z
M 64.359375 43.265625 
L 72.078125 41.109375 
Q 66.3125 26.265625 55.765625 15.828125 
Q 71.1875 3.609375 96.09375 -0.59375 
Q 93.5625 -3.03125 91.21875 -7.625 
Q 66.109375 -2.828125 50 10.640625 
Q 34.46875 -1.5625 8.984375 -8.015625 
Q 7.8125 -4.984375 4.59375 -1.375 
Q 4.390625 -1.078125 4.296875 -0.984375 
Q 29.984375 4.5 44.53125 15.828125 
Q 34.765625 26.265625 28.90625 40.625 
L 36.03125 42.78125 
Q 41.015625 30.171875 50.203125 20.796875 
Q 59.46875 30.171875 64.359375 43.265625 
z
" id="TaipeiSansTCBeta-Regular-20132"/>
        <path d="M 60.15625 53.03125 
L 43.359375 53.03125 
L 43.359375 44.234375 
L 60.15625 44.234375 
z
M 84.28125 44.234375 
L 84.28125 53.03125 
L 66.890625 53.03125 
L 66.890625 44.234375 
z
M 66.890625 29.59375 
L 84.28125 29.59375 
L 84.28125 38.671875 
L 66.890625 38.671875 
z
M 43.359375 29.59375 
L 60.15625 29.59375 
L 60.15625 38.671875 
L 43.359375 38.671875 
z
M 43.359375 23.921875 
L 43.359375 7.328125 
L 36.421875 7.328125 
L 36.421875 58.6875 
L 64.9375 58.6875 
Q 55.765625 63.28125 45.90625 67 
L 50.59375 71.1875 
Q 54.78125 69.734375 64.453125 65.71875 
Q 72.171875 69.234375 78.21875 73.640625 
L 36.53125 73.640625 
L 36.53125 79.5 
L 85.25 79.5 
L 86.71875 79.890625 
L 91.3125 76.375 
Q 83.203125 68.75 71.09375 62.703125 
Q 71.78125 62.40625 78.8125 58.6875 
L 91.40625 58.6875 
L 91.40625 14.75 
Q 91.40625 10.0625 88.765625 8.59375 
Q 88.375 8.40625 87.984375 8.203125 
Q 84.96875 7.125 74.515625 7.125 
Q 74.03125 10.0625 72.359375 13.1875 
Q 75 13.09375 82.625 13.09375 
Q 84.1875 13.28125 84.28125 14.84375 
L 84.28125 23.921875 
L 66.890625 23.921875 
L 66.890625 7.71875 
L 60.15625 7.71875 
L 60.15625 23.921875 
z
M 29.296875 70.703125 
L 24.125 65.828125 
Q 19.828125 71.1875 10.359375 76.859375 
Q 9.375 77.4375 8.59375 77.9375 
L 13.484375 82.421875 
Q 22.953125 77.4375 28.328125 71.78125 
Q 28.90625 71.1875 29.296875 70.703125 
z
M 26.46875 50.984375 
L 21.484375 45.796875 
Q 16.609375 51.171875 6.453125 57.03125 
Q 5.765625 57.421875 5.171875 57.71875 
L 9.859375 62.3125 
Q 19.234375 57.8125 25.296875 52.15625 
Q 25.984375 51.46875 26.46875 50.984375 
z
M 24.21875 37.5 
L 24.21875 12.203125 
Q 31.25 1.765625 49.90625 0.984375 
Q 70.609375 0.296875 93.0625 1.375 
Q 94.734375 1.46875 96.09375 1.5625 
Q 94.234375 -1.5625 93.5625 -5.5625 
Q 69.140625 -6.453125 50 -5.765625 
Q 31.34375 -5.078125 22.359375 4.59375 
Q 21.78125 5.28125 21.1875 5.953125 
Q 15.234375 0 7.625 -6.84375 
L 3.71875 0.296875 
Q 8.890625 4 17.1875 11.625 
L 17.1875 30.5625 
L 4.6875 30.5625 
L 4.6875 37.5 
z
" id="TaipeiSansTCBeta-Regular-36890"/>
        <path d="M 53.8125 7.421875 
L 94.734375 7.421875 
L 94.734375 0 
L 5.46875 0 
L 5.46875 7.421875 
L 45.703125 7.421875 
L 45.703125 64.84375 
L 10.75 64.84375 
L 10.75 72.359375 
L 89.75 72.359375 
L 89.75 64.84375 
L 53.8125 64.84375 
z
" id="TaipeiSansTCBeta-Regular-24037"/>
        <path d="M 28.515625 30.078125 
L 28.515625 21.09375 
L 72.46875 21.09375 
L 72.46875 30.078125 
z
M 72.46875 72.65625 
L 28.515625 72.65625 
L 28.515625 64.15625 
L 72.46875 64.15625 
z
M 72.46875 44.4375 
L 28.515625 44.4375 
L 28.515625 35.75 
L 72.46875 35.75 
z
M 72.46875 50.09375 
L 72.46875 58.5 
L 28.515625 58.5 
L 28.515625 50.09375 
z
M 94.734375 21.09375 
L 94.734375 14.265625 
L 5.46875 14.265625 
L 5.46875 21.09375 
L 21.390625 21.09375 
L 21.390625 78.90625 
L 79.890625 78.90625 
L 79.890625 21.09375 
z
M 32.90625 13.484375 
L 39.9375 8.984375 
Q 28.90625 0.484375 12.203125 -6.734375 
Q 10.9375 -7.234375 9.765625 -7.71875 
Q 7.03125 -4.59375 4.390625 -2.25 
Q 18.453125 3.03125 29.109375 10.546875 
Q 31.34375 12.109375 32.90625 13.484375 
z
M 60.546875 8.6875 
L 65.234375 13.765625 
Q 82.328125 6.15625 95.796875 -2.15625 
L 89.9375 -7.71875 
Q 77.546875 0.6875 60.546875 8.6875 
z
" id="TaipeiSansTCBeta-Regular-20855"/>
        <path d="M 10.640625 85.640625 
Q 30.46875 65.4375 30.46875 37.984375 
Q 30.375 10.546875 10.640625 -9.578125 
L 4.59375 -6.546875 
Q 23.25 12.796875 23.25 37.984375 
Q 23.140625 63.28125 4.59375 82.515625 
z
" id="TaipeiSansTCBeta-Regular-65289"/>
       </defs>
       <use xlink:href="#TaipeiSansTCBeta-Regular-33258"/>
       <use x="100" xlink:href="#TaipeiSansTCBeta-Regular-34892"/>
       <use x="200" xlink:href="#TaipeiSansTCBeta-Regular-36554"/>
       <use x="300" xlink:href="#TaipeiSansTCBeta-Regular-65288"/>
       <use x="400" xlink:href="#TaipeiSansTCBeta-Regular-21547"/>
       <use x="500" xlink:href="#TaipeiSansTCBeta-Regular-33258"/>
       <use x="600" xlink:href="#TaipeiSansTCBeta-Regular-26377"/>
       <use x="700" xlink:href="#TaipeiSansTCBeta-Regular-20132"/>
       <use x="800" xlink:href="#TaipeiSansTCBeta-Regular-36890"/>
       <use x="900" xlink:href="#TaipeiSansTCBeta-Regular-24037"/>
       <use x="1000" xlink:href="#TaipeiSansTCBeta-Regular-20855"/>
       <use x="1100" xlink:href="#TaipeiSansTCBeta-Regular-65289"/>
      </g>
     </g>
    </g>
    <g id="text_8">
     <!-- 主要移動方式 -->
     <g style="fill:#262626;" transform="translate(-58.243125 287.934545)rotate(-90)scale(0.12 -0.12)">
      <defs>
       <path d="M 53.90625 2.9375 
L 94.4375 2.9375 
L 94.4375 -4.390625 
L 5.953125 -4.390625 
L 5.953125 2.9375 
L 46 2.9375 
L 46 27.4375 
L 15.234375 27.4375 
L 15.234375 34.578125 
L 46 34.578125 
L 46 56.546875 
L 10.640625 56.546875 
L 10.640625 63.765625 
L 54.5 63.765625 
Q 48.25 71.09375 37.796875 78.90625 
Q 37.59375 79 37.5 79.109375 
L 43.453125 83.296875 
Q 54.5 75.484375 61.03125 68.0625 
Q 61.53125 67.578125 61.8125 67.1875 
L 57.125 63.765625 
L 89.359375 63.765625 
L 89.359375 56.546875 
L 53.90625 56.546875 
L 53.90625 34.578125 
L 85.25 34.578125 
L 85.25 27.4375 
L 53.90625 27.4375 
z
" id="TaipeiSansTCBeta-Regular-20027"/>
       <path d="M 67.1875 23.25 
L 36.8125 23.25 
Q 32.515625 17.1875 30.5625 14.453125 
Q 40.4375 12.59375 53.90625 9.46875 
Q 62.5 14.75 67.1875 23.25 
z
M 19.234375 58.203125 
L 19.234375 44.734375 
L 34.28125 44.734375 
L 34.28125 58.203125 
z
M 41.40625 72.65625 
L 41.40625 64.265625 
L 57.515625 64.265625 
L 57.515625 72.65625 
z
M 81.15625 58.203125 
L 64.65625 58.203125 
L 64.65625 44.734375 
L 81.15625 44.734375 
z
M 41.40625 44.734375 
L 57.515625 44.734375 
L 57.515625 58.203125 
L 41.40625 58.203125 
z
M 95.21875 23.25 
L 75.390625 23.25 
Q 70.796875 13.578125 62.796875 7.328125 
Q 80.5625 2.640625 92.09375 -1.765625 
L 87.59375 -7.8125 
Q 73.828125 -2.25 55.28125 2.640625 
Q 39.15625 -5.46875 9.1875 -7.515625 
Q 8.015625 -3.328125 6.34375 -1.078125 
Q 31.640625 0.390625 44.734375 5.171875 
Q 35.359375 7.421875 26.65625 9.078125 
L 24.609375 6.453125 
L 17.578125 8.796875 
Q 19.828125 11.625 28.21875 23.25 
L 4.890625 23.25 
L 4.890625 29.390625 
L 32.515625 29.390625 
Q 37.015625 36.140625 38.484375 38.578125 
L 12.203125 38.578125 
L 12.203125 64.265625 
L 34.28125 64.265625 
L 34.28125 72.65625 
L 7.328125 72.65625 
L 7.328125 79.296875 
L 92.671875 79.296875 
L 92.671875 72.65625 
L 64.65625 72.65625 
L 64.65625 64.265625 
L 88.484375 64.265625 
L 88.484375 38.578125 
L 43.953125 38.578125 
L 46.578125 37.890625 
Q 45.515625 36.140625 41.015625 29.390625 
L 95.21875 29.390625 
z
" id="TaipeiSansTCBeta-Regular-35201"/>
       <path d="M 95.796875 35.0625 
Q 84.46875 1.953125 42.1875 -7.71875 
Q 40.828125 -4 38.375 -1.375 
Q 56.453125 2.15625 68.84375 10.640625 
Q 63.765625 15.625 54.5 21.390625 
Q 49.03125 17.875 44.734375 15.71875 
Q 42.875 18.84375 40.046875 20.796875 
Q 57.515625 28.90625 66.796875 42.09375 
Q 68.359375 44.234375 69.4375 46.296875 
Q 58.6875 38.765625 44.4375 34.671875 
Q 42.875 38.1875 40.53125 40.71875 
Q 54.59375 44.234375 64.75 51.265625 
Q 59.078125 56.9375 52.25 61.328125 
Q 46.78125 57.625 43.453125 55.859375 
Q 41.796875 58.59375 38.96875 60.75 
Q 38.765625 60.84375 38.671875 60.9375 
Q 53.90625 68.265625 62.40625 80.953125 
Q 63.375 82.328125 64.0625 83.59375 
L 71.484375 82.328125 
Q 70.015625 79.59375 66.5 75 
L 84.671875 75 
L 86.140625 75.296875 
L 90.71875 73.140625 
Q 84.46875 56.9375 69.4375 46.296875 
L 76.859375 45.015625 
Q 74.421875 40.828125 71.390625 36.921875 
L 89.75 36.921875 
L 91.109375 37.203125 
z
M 20.515625 48.734375 
L 5.171875 48.734375 
L 5.171875 55.671875 
L 21.484375 55.671875 
L 21.484375 70.90625 
Q 14.15625 69.4375 6.9375 68.359375 
Q 6.25 71 4.59375 74.21875 
Q 25.875 77.546875 36.234375 82.234375 
L 41.40625 76.5625 
Q 35.15625 74.03125 28.71875 72.5625 
L 28.71875 55.671875 
L 41.21875 55.671875 
L 41.21875 48.734375 
L 28.71875 48.734375 
L 28.71875 42.578125 
Q 33.40625 38.578125 41.015625 30.375 
Q 41.890625 29.390625 42.28125 28.90625 
L 37.796875 23.046875 
Q 35.453125 27.25 28.71875 35.359375 
L 28.71875 -7.421875 
L 21.484375 -7.421875 
L 21.484375 36.8125 
Q 14.359375 19.4375 7.03125 10.640625 
Q 6.25 12.984375 3.328125 17.390625 
Q 11.421875 26.375 18.265625 42.96875 
Q 19.53125 46 20.515625 48.734375 
z
M 74.3125 14.84375 
Q 81.9375 21.6875 86.234375 30.5625 
L 65.71875 30.5625 
Q 62.796875 27.640625 59.859375 25.390625 
Q 68.84375 20.3125 74.3125 14.84375 
z
M 69.921875 55.171875 
Q 76.953125 61.328125 80.953125 68.84375 
L 61.03125 68.84375 
Q 59.671875 67.484375 57.03125 65.140625 
Q 64.65625 60.359375 69.921875 55.171875 
z
" id="TaipeiSansTCBeta-Regular-31227"/>
       <path d="M 13.578125 30.078125 
L 26.171875 30.078125 
L 26.171875 37.40625 
L 13.578125 37.40625 
z
M 13.578125 49.515625 
L 13.578125 42.28125 
L 26.171875 42.28125 
L 26.171875 49.515625 
z
M 46 49.515625 
L 32.90625 49.515625 
L 32.90625 42.28125 
L 46 42.28125 
z
M 46 30.078125 
L 46 37.40625 
L 32.90625 37.40625 
L 32.90625 30.078125 
z
M 72.265625 60.546875 
L 93.453125 60.546875 
Q 93.453125 60.453125 93.359375 56.734375 
Q 92.1875 12.703125 90.328125 3.125 
Q 89.453125 -1.46875 87.984375 -3.328125 
Q 86.03125 -6.546875 81.734375 -7.03125 
Q 81.546875 -7.03125 81.34375 -7.03125 
Q 77.4375 -7.515625 69.234375 -7.03125 
Q 68.84375 -3.03125 67.09375 0 
Q 73.046875 -0.484375 78.21875 -0.484375 
Q 80.671875 -0.390625 81.84375 1.078125 
Q 84.46875 4.390625 85.75 34.28125 
Q 86.03125 42.484375 86.328125 53.515625 
L 71.96875 53.515625 
Q 70.703125 23.921875 62.59375 8.40625 
Q 57.234375 -1.65625 48.640625 -8.109375 
Q 46.578125 -5.28125 43.0625 -2.828125 
Q 44.625 -1.765625 47.46875 0.6875 
Q 18.84375 -2.640625 5.5625 -4 
L 4.5 2.546875 
Q 12.984375 3.21875 26.171875 4.5 
L 26.171875 13.09375 
L 7.328125 13.09375 
L 7.328125 18.84375 
L 26.171875 18.84375 
L 26.171875 24.90625 
L 7.515625 24.90625 
L 7.515625 54.59375 
L 26.171875 54.59375 
L 26.171875 60.9375 
L 4.59375 60.9375 
L 4.59375 66.703125 
L 26.171875 66.703125 
L 26.171875 73.34375 
Q 13.28125 72.359375 7.421875 72.171875 
Q 6.84375 75.390625 5.5625 77.734375 
Q 33.890625 79.203125 48.734375 82.625 
L 52.4375 76.859375 
Q 45.609375 75.390625 32.90625 74.03125 
L 32.90625 66.703125 
L 54.109375 66.703125 
L 54.109375 60.9375 
L 32.90625 60.9375 
L 32.90625 54.59375 
L 52.34375 54.59375 
L 52.34375 24.90625 
L 32.90625 24.90625 
L 32.90625 18.84375 
L 52.546875 18.84375 
L 52.546875 13.09375 
L 32.90625 13.09375 
L 32.90625 5.171875 
Q 39.546875 5.765625 52.9375 7.328125 
L 52.9375 6.84375 
Q 62.5 19.828125 64.65625 45.21875 
Q 64.9375 49.125 65.140625 53.515625 
L 53.421875 53.515625 
L 53.421875 60.546875 
L 65.328125 60.546875 
Q 65.53125 67.671875 65.53125 82.421875 
L 72.46875 82.421875 
Q 72.46875 67.578125 72.265625 60.546875 
z
" id="TaipeiSansTCBeta-Regular-21205"/>
       <path d="M 94.4375 59.375 
L 44.34375 59.375 
Q 43.84375 50.484375 42.78125 42.96875 
L 82.625 42.96875 
Q 82.625 42.875 82.421875 39.359375 
Q 80.171875 7.125 76.65625 -0.875 
Q 75.6875 -2.9375 74.515625 -4.109375 
Q 71.6875 -7.03125 66.5 -7.421875 
Q 66.21875 -7.421875 66.015625 -7.421875 
Q 59.96875 -7.71875 49.3125 -7.125 
Q 48.921875 -3.125 46.6875 0.09375 
Q 53.8125 -0.59375 63.375 -0.59375 
Q 67 -0.484375 68.0625 0.484375 
Q 71.96875 3.90625 74.125 28.90625 
Q 74.421875 32.234375 74.703125 36.03125 
L 41.703125 36.03125 
Q 36.421875 9.765625 18.5625 -2.9375 
Q 14.453125 -5.765625 9.859375 -8.015625 
Q 7.71875 -4.390625 4.59375 -1.859375 
Q 25.984375 7.71875 32.515625 31.0625 
Q 35.453125 41.5 36.328125 59.375 
L 5.5625 59.375 
L 5.5625 66.5 
L 45.90625 66.5 
L 45.90625 83.890625 
L 53.421875 83.890625 
L 53.421875 66.5 
L 94.4375 66.5 
z
" id="TaipeiSansTCBeta-Regular-26041"/>
       <path d="M 90.234375 71 
L 84.96875 66.3125 
Q 80.28125 71.96875 71.296875 78.421875 
Q 71 78.609375 70.796875 78.8125 
L 75.78125 82.90625 
Q 85.453125 76.375 90.234375 71 
z
M 34.46875 35.84375 
L 34.46875 8.40625 
Q 51.265625 11.921875 55.859375 12.890625 
L 56.546875 6.34375 
Q 32.234375 0.59375 8.59375 -4.6875 
L 6.34375 2.640625 
Q 8.984375 3.125 15.53125 4.5 
Q 23.140625 6.0625 27.25 6.84375 
L 27.25 35.84375 
L 9.375 35.84375 
L 9.375 42.96875 
L 53.21875 42.96875 
L 53.21875 35.84375 
z
M 94.34375 57.8125 
L 65.140625 57.8125 
Q 67.671875 23.734375 75.78125 8.296875 
Q 80.171875 0 85.25 -0.09375 
Q 88.484375 -0.09375 89.453125 12.015625 
Q 89.65625 14.9375 89.84375 18.65625 
Q 92.484375 16.109375 96.390625 14.65625 
Q 95.21875 -1.265625 91.21875 -5.375 
Q 88.875 -7.8125 84.671875 -7.8125 
Q 69.046875 -7.8125 61.71875 26.375 
Q 58.890625 39.9375 57.515625 57.8125 
L 5.859375 57.8125 
L 5.859375 65.140625 
L 57.03125 65.140625 
Q 56.734375 71 56.546875 83.109375 
L 56.546875 83.203125 
L 64.265625 83.203125 
Q 64.265625 74.8125 64.75 65.140625 
L 94.34375 65.140625 
z
" id="TaipeiSansTCBeta-Regular-24335"/>
      </defs>
      <use xlink:href="#TaipeiSansTCBeta-Regular-20027"/>
      <use x="100" xlink:href="#TaipeiSansTCBeta-Regular-35201"/>
      <use x="200" xlink:href="#TaipeiSansTCBeta-Regular-31227"/>
      <use x="300" xlink:href="#TaipeiSansTCBeta-Regular-21205"/>
      <use x="400" xlink:href="#TaipeiSansTCBeta-Regular-26041"/>
      <use x="500" xlink:href="#TaipeiSansTCBeta-Regular-24335"/>
     </g>
    </g>
   </g>
   <g id="patch_3">
    <path clip-path="url(#pee7fcfa248)" d="M 90 326.061818 
L 263.413534 326.061818 
L 263.413534 177.807273 
L 90 177.807273 
z
" style="fill:#4c72b0;stroke:#ffffff;stroke-linejoin:miter;"/>
   </g>
   <g id="patch_4">
    <path clip-path="url(#pee7fcfa248)" d="M 263.413534 326.061818 
L 587.864662 326.061818 
L 587.864662 177.807273 
L 263.413534 177.807273 
z
" style="fill:#dd8452;stroke:#ffffff;stroke-linejoin:miter;"/>
   </g>
   <g id="patch_5">
    <path clip-path="url(#pee7fcfa248)" d="M 587.864662 326.061818 
L 615.834586 326.061818 
L 615.834586 177.807273 
L 587.864662 177.807273 
z
" style="fill:#55a868;stroke:#ffffff;stroke-linejoin:miter;"/>
   </g>
   <g id="patch_6">
    <path clip-path="url(#pee7fcfa248)" d="M 90 326.061818 
L 90 326.061818 
L 90 177.807273 
L 90 177.807273 
z
" style="fill:#c44e52;stroke:#ffffff;stroke-linejoin:miter;"/>
   </g>
   <g id="patch_7">
    <path clip-path="url(#pee7fcfa248)" d="M 615.834586 326.061818 
L 621.428571 326.061818 
L 621.428571 177.807273 
L 615.834586 177.807273 
z
" style="fill:#8172b3;stroke:#ffffff;stroke-linejoin:miter;"/>
   </g>
   <g id="patch_8">
    <path d="M 90 400.189091 
L 90 103.68 
" style="fill:none;stroke:#ffffff;stroke-linecap:square;stroke-linejoin:miter;stroke-width:1.25;"/>
   </g>
   <g id="patch_9">
    <path d="M 648 400.189091 
L 648 103.68 
" style="fill:none;stroke:#ffffff;stroke-linecap:square;stroke-linejoin:miter;stroke-width:1.25;"/>
   </g>
   <g id="patch_10">
    <path d="M 90 400.189091 
L 648 400.189091 
" style="fill:none;stroke:#ffffff;stroke-linecap:square;stroke-linejoin:miter;stroke-width:1.25;"/>
   </g>
   <g id="patch_11">
    <path d="M 90 103.68 
L 648 103.68 
" style="fill:none;stroke:#ffffff;stroke-linecap:square;stroke-linejoin:miter;stroke-width:1.25;"/>
   </g>
   <g id="text_9">
    <!-- 在騎乘交通工具時的路線選擇 -->
    <g style="fill:#262626;" transform="translate(291 97.68)scale(0.12 -0.12)">
     <defs>
      <path d="M 67.09375 29.78125 
L 67.09375 1.65625 
L 93.453125 1.65625 
L 93.453125 -5.28125 
L 33.40625 -5.28125 
L 33.40625 1.65625 
L 59.671875 1.65625 
L 59.671875 29.78125 
L 37.3125 29.78125 
L 37.3125 36.8125 
L 59.671875 36.8125 
L 59.671875 55.859375 
L 67.09375 55.859375 
L 67.09375 36.8125 
L 89.65625 36.8125 
L 89.65625 29.78125 
z
M 42 68.171875 
L 93.453125 68.171875 
L 93.453125 61.140625 
L 38.96875 61.140625 
Q 33.40625 49.703125 26.859375 40.71875 
L 26.859375 -7.328125 
L 19.625 -7.328125 
L 19.625 31.9375 
Q 14.65625 26.5625 8.015625 21.78125 
Q 6.9375 24.90625 4.203125 28.515625 
Q 20.3125 40.046875 30.5625 61.140625 
L 6.640625 61.140625 
L 6.640625 68.171875 
L 33.890625 68.171875 
Q 36.921875 75.296875 39.15625 83.6875 
L 46.78125 81.84375 
Q 45.3125 76.5625 42 68.171875 
z
" id="TaipeiSansTCBeta-Regular-22312"/>
      <path d="M 93.453125 51.078125 
L 88.875 46 
Q 82.125 51.375 69.625 58.984375 
Q 63.765625 49.8125 49.21875 45.609375 
Q 48.140625 48.34375 45.703125 50.59375 
Q 45.609375 50.6875 45.515625 50.78125 
Q 58.890625 54.390625 63.578125 62.5 
Q 64.9375 64.84375 65.828125 67.578125 
L 47.265625 67.578125 
L 47.265625 73.828125 
L 67.1875 73.828125 
Q 67.671875 77.046875 68.0625 83.5 
L 75 83.5 
Q 74.609375 76.953125 74.21875 73.828125 
L 93.953125 73.828125 
L 93.953125 67.578125 
L 73.046875 67.578125 
Q 72.65625 66.109375 71.96875 64.453125 
Q 86.421875 56.25 93.453125 51.078125 
z
M 8.5 -1.765625 
L 4.296875 0.09375 
Q 7.125 9.859375 8.203125 22.171875 
L 12.3125 20.796875 
Q 10.84375 6.34375 8.5 -1.765625 
z
M 15.046875 20.703125 
L 18.5625 21.1875 
Q 20.21875 11.03125 20.125 3.03125 
L 16.21875 2.4375 
Q 16.609375 10.15625 15.046875 20.703125 
z
M 14.65625 42.96875 
L 14.65625 33.59375 
L 24.421875 33.59375 
L 24.421875 42.96875 
z
M 24.421875 73.4375 
L 14.65625 73.4375 
L 14.65625 64.359375 
L 24.421875 64.359375 
z
M 24.421875 48.921875 
L 24.421875 58.40625 
L 14.65625 58.40625 
L 14.65625 48.921875 
z
M 30.171875 33.59375 
L 43.5625 33.59375 
Q 43.5625 33.5 43.359375 30.46875 
Q 42.09375 2.828125 39.84375 -2.546875 
Q 39.359375 -3.71875 38.765625 -4.390625 
Q 36.71875 -6.9375 33.59375 -7.125 
Q 30.46875 -7.421875 24.8125 -7.125 
Q 24.609375 -3.71875 23.25 -1.078125 
Q 26.765625 -1.46875 31.0625 -1.46875 
Q 33.015625 -1.375 33.796875 -0.296875 
Q 35.359375 1.765625 36.328125 11.625 
L 33.015625 10.15625 
Q 31.34375 16.890625 27.828125 23.34375 
L 31.0625 24.515625 
Q 35.15625 17 36.328125 12.015625 
Q 36.71875 16.015625 37.40625 27.546875 
L 8.796875 27.546875 
L 8.796875 79.5 
L 42.484375 79.5 
L 42.484375 73.4375 
L 30.171875 73.4375 
L 30.171875 64.359375 
L 40.53125 64.359375 
L 40.53125 58.40625 
L 30.171875 58.40625 
L 30.171875 48.921875 
L 40.53125 48.921875 
L 40.53125 42.96875 
L 30.171875 42.96875 
z
M 28.90625 6.546875 
L 25.09375 5.5625 
Q 24.421875 12.5 21.484375 21.578125 
L 25 22.359375 
Q 27.9375 14.546875 28.90625 6.546875 
z
M 68.65625 25.59375 
L 56.9375 25.59375 
L 56.9375 14.0625 
L 68.65625 14.0625 
z
M 74.703125 8.5 
L 56.9375 8.5 
L 56.9375 1.859375 
L 50.984375 1.859375 
L 50.984375 31.15625 
L 74.703125 31.15625 
z
M 95.796875 44.140625 
L 95.796875 37.59375 
L 89.453125 37.59375 
L 89.453125 0.484375 
Q 89.453125 -4.390625 86.921875 -5.953125 
Q 86.328125 -6.25 85.75 -6.546875 
Q 82.421875 -7.71875 71.484375 -7.71875 
Q 70.90625 -4.890625 68.84375 -0.984375 
Q 77.34375 -1.265625 80.375 -1.078125 
Q 82.234375 -0.6875 82.328125 0.59375 
L 82.328125 37.59375 
L 44.140625 37.59375 
L 44.140625 44.140625 
z
" id="TaipeiSansTCBeta-Regular-39438"/>
      <path d="M 64.15625 53.328125 
L 71.09375 53.328125 
L 71.09375 43.0625 
Q 78.21875 45.703125 85.25 49.421875 
L 89.84375 43.953125 
Q 80.953125 40.046875 71.09375 37.015625 
L 71.09375 28.90625 
Q 71.09375 26.765625 72.359375 26.46875 
Q 73.046875 26.265625 74.421875 26.265625 
L 84.28125 26.265625 
Q 86.234375 26.265625 86.71875 28.03125 
Q 87.203125 29.5 87.3125 33.6875 
Q 89.84375 31.734375 93.5625 31.15625 
Q 92.78125 22.75 89.65625 20.90625 
Q 87.890625 19.921875 85.0625 19.921875 
L 73.640625 19.921875 
Q 67 19.921875 65.234375 22.75 
Q 64.15625 24.8125 64.15625 28.90625 
z
M 8.109375 21.578125 
L 6.640625 28.03125 
Q 8.109375 28.21875 28.609375 31.34375 
L 28.609375 40.140625 
L 9.46875 40.140625 
L 9.46875 46.1875 
L 28.609375 46.1875 
L 28.609375 53.125 
L 35.546875 53.125 
L 35.546875 20.796875 
L 28.609375 20.796875 
L 28.609375 25.390625 
z
M 53.71875 55.953125 
L 53.71875 33.109375 
Q 61.8125 19.734375 77.34375 10.0625 
Q 86.53125 4.390625 96 1.5625 
Q 93.5625 -0.78125 91.109375 -4.59375 
Q 73.046875 1.65625 58.984375 16.796875 
Q 56.15625 19.921875 53.71875 23.140625 
L 53.71875 -7.515625 
L 46.09375 -7.515625 
L 46.09375 22.5625 
Q 33.6875 6.546875 15.046875 -1.765625 
Q 11.8125 -3.125 8.59375 -4.203125 
Q 6.25 -0.296875 3.8125 1.953125 
Q 21.78125 7.03125 35.84375 20.515625 
Q 42.09375 26.46875 46.09375 33.015625 
L 46.09375 55.953125 
L 6.734375 55.953125 
L 6.734375 62.796875 
L 46.09375 62.796875 
L 46.09375 71.96875 
Q 30.375 70.796875 14.84375 70.515625 
Q 14.546875 73.25 13.09375 76.765625 
Q 56.9375 78.21875 79.984375 82.90625 
Q 80.46875 83.015625 80.859375 83.109375 
L 84.28125 76.5625 
Q 71.96875 74.125 53.71875 72.5625 
L 53.71875 62.796875 
L 93.0625 62.796875 
L 93.0625 55.953125 
z
" id="TaipeiSansTCBeta-Regular-20056"/>
      <path d="M 29.296875 70.40625 
L 14.84375 70.40625 
L 14.84375 48.25 
L 29.296875 48.25 
z
M 14.84375 18.5625 
L 29.296875 18.5625 
L 29.296875 41.703125 
L 14.84375 41.703125 
z
M 36.328125 77.15625 
L 36.328125 11.921875 
L 14.84375 11.921875 
L 14.84375 3.8125 
L 8.015625 3.8125 
L 8.015625 77.15625 
z
M 44.53125 21.09375 
L 50.484375 24.515625 
Q 58.5 16.703125 62.796875 8.890625 
Q 63.1875 8.109375 63.484375 7.515625 
L 57.234375 3.515625 
Q 53.515625 11.234375 45.796875 19.734375 
Q 45.125 20.515625 44.53125 21.09375 
z
M 96.09375 45.90625 
L 83.40625 45.90625 
L 83.40625 34.578125 
L 95.015625 34.578125 
L 95.015625 28.03125 
L 83.40625 28.03125 
L 83.40625 1.171875 
Q 83.40625 -4.59375 79.890625 -6.15625 
Q 79.5 -6.25 79.296875 -6.34375 
Q 75.78125 -7.515625 63.09375 -7.515625 
Q 62.5 -3.609375 60.75 -0.59375 
Q 70.515625 -0.875 74.03125 -0.6875 
Q 75.984375 0 76.171875 1.265625 
L 76.171875 28.03125 
L 38.375 28.03125 
L 38.375 34.578125 
L 76.171875 34.578125 
L 76.171875 45.90625 
L 37.890625 45.90625 
L 37.890625 52.546875 
L 62.984375 52.546875 
L 62.984375 65.234375 
L 42.1875 65.234375 
L 42.1875 71.78125 
L 62.984375 71.78125 
L 62.984375 83.6875 
L 70.3125 83.6875 
L 70.3125 71.78125 
L 91.796875 71.78125 
L 91.796875 65.234375 
L 70.3125 65.234375 
L 70.3125 52.546875 
L 96.09375 52.546875 
z
" id="TaipeiSansTCBeta-Regular-26178"/>
      <path d="M 36.8125 40.140625 
L 36.8125 61.03125 
L 15.828125 61.03125 
L 15.828125 40.140625 
z
M 15.828125 9.46875 
L 36.8125 9.46875 
L 36.8125 33.5 
L 15.828125 33.5 
z
M 24.21875 83.890625 
L 32.234375 82.421875 
Q 29.109375 73.25 26.953125 67.671875 
L 43.5625 67.671875 
L 43.5625 2.828125 
L 15.828125 2.828125 
L 15.828125 -5.078125 
L 8.984375 -5.078125 
L 8.984375 67.671875 
L 20.21875 67.671875 
Q 23.34375 77.9375 24.21875 83.890625 
z
M 92.484375 67.96875 
L 92.484375 64.15625 
Q 90.828125 17.09375 88.578125 5.859375 
Q 87.40625 0.484375 85.640625 -1.65625 
Q 82.90625 -5.171875 78.125 -5.671875 
Q 77.828125 -5.671875 77.734375 -5.671875 
Q 73.4375 -6.15625 62.890625 -5.5625 
Q 62.5 -1.765625 60.359375 1.65625 
Q 66.890625 1.078125 75.203125 1.078125 
Q 78.125 1.171875 79.296875 2.640625 
Q 82.625 6.15625 84.078125 31.453125 
Q 84.765625 42.671875 85.359375 61.140625 
L 59.96875 61.140625 
Q 55.078125 49.609375 50.59375 43.5625 
Q 49.125 44.921875 44.53125 47.75 
Q 54.203125 60.359375 59.765625 84.078125 
L 66.890625 82.421875 
Q 65.140625 75.203125 62.59375 67.96875 
z
M 76.65625 23.046875 
L 70.40625 19.140625 
Q 65.828125 28.03125 55.171875 42.1875 
L 61.03125 45.609375 
Q 71.875 31.640625 76.65625 23.046875 
z
" id="TaipeiSansTCBeta-Regular-30340"/>
      <path d="M 54.59375 28.421875 
L 84.375 28.421875 
Q 77.046875 32.8125 69.625 40.234375 
Q 62.796875 33.5 54.59375 28.421875 
z
M 57.03125 2.734375 
L 82.03125 2.734375 
L 82.03125 21.875 
L 57.03125 21.875 
z
M 42.390625 34.578125 
L 42.390625 29.78125 
Q 55.171875 35.25 65.046875 45.40625 
Q 60.0625 51.375 55.765625 59.078125 
Q 51.5625 52.640625 46.6875 47.5625 
Q 43.84375 50.390625 41.5 51.953125 
L 41.5 49.03125 
L 29.984375 49.03125 
L 29.984375 34.578125 
z
M 15.828125 73.046875 
L 15.828125 55.46875 
L 34.578125 55.46875 
L 34.578125 73.046875 
z
M 79.5 67 
L 60.359375 67 
L 59.375 65.140625 
Q 63.765625 56.734375 69.34375 50.09375 
Q 75.6875 57.8125 79.5 67 
z
M 84.078125 73.828125 
L 88.671875 71.6875 
Q 84.078125 57.234375 74.125 45.125 
Q 84.578125 35.0625 96.875 30.375 
Q 94.34375 27.9375 92.28125 24.3125 
Q 91.703125 24.609375 90.53125 25.09375 
Q 89.546875 25.484375 89.0625 25.6875 
L 89.0625 -7.234375 
L 82.03125 -7.234375 
L 82.03125 -3.90625 
L 57.03125 -3.90625 
L 57.03125 -7.515625 
L 50.09375 -7.515625 
L 50.09375 25.78125 
Q 48.828125 25.203125 44.140625 23.046875 
Q 43.0625 25.296875 40.53125 28.03125 
L 29.984375 28.03125 
L 29.984375 10.0625 
Q 34.375 11.03125 43.0625 13.1875 
L 43.84375 6.546875 
Q 38.875 5.375 29 2.9375 
Q 12.203125 -1.171875 5.46875 -2.828125 
L 4.109375 4.390625 
L 9.1875 5.46875 
L 9.1875 39.65625 
L 15.53125 39.65625 
L 15.53125 6.84375 
L 23.25 8.59375 
L 23.25 49.03125 
L 9.1875 49.03125 
L 9.1875 79.5 
L 41.5 79.5 
L 41.5 53.03125 
Q 53.328125 64.265625 59.28125 82.625 
Q 59.46875 83.203125 59.578125 83.6875 
L 66.703125 82.03125 
Q 66.015625 79.984375 63.484375 73.53125 
L 82.8125 73.53125 
z
" id="TaipeiSansTCBeta-Regular-36335"/>
      <path d="M 9.1875 26.953125 
L 15.53125 25.875 
Q 13.09375 9.578125 8.59375 0.484375 
Q 6.84375 1.859375 3.125 3.21875 
Q 7.234375 11.234375 9.1875 26.953125 
z
M 34.1875 34.96875 
L 26.265625 34.46875 
L 26.265625 -7.625 
L 19.734375 -7.625 
L 19.734375 34.078125 
L 4 33.109375 
L 3.328125 39.84375 
L 10.15625 40.140625 
Q 14.84375 46.1875 16.40625 48.4375 
Q 11.8125 55.375 4 62.890625 
L 8.015625 67.578125 
Q 11.03125 64.84375 11.03125 64.84375 
Q 15.625 72.75 19.921875 83.59375 
L 26.375 81.15625 
Q 19.625 67.484375 14.9375 60.640625 
Q 17.484375 58.015625 20.3125 54.203125 
Q 25.6875 62.3125 30.953125 72.265625 
L 37.203125 69.4375 
Q 25.984375 51.5625 17.1875 40.53125 
L 31.640625 41.21875 
Q 29.78125 45.125 27.15625 49.609375 
L 32.515625 51.765625 
Q 39.15625 41.5 42 32.125 
Q 42.09375 31.734375 42.1875 31.34375 
L 36.328125 28.609375 
Q 35.75 31.0625 34.1875 34.96875 
z
M 29.6875 25.59375 
L 35.15625 27.25 
Q 39.265625 18.171875 40.53125 9.46875 
L 34.671875 7.71875 
Q 33.796875 16.5 29.6875 25.59375 
z
M 57.71875 29.890625 
L 61.8125 28.328125 
Q 56.84375 5.953125 40.921875 -3.421875 
Q 40.71875 -3.515625 40.625 -3.609375 
Q 38.671875 -0.59375 35.9375 1.46875 
Q 48.046875 7.8125 53.421875 22.265625 
Q 53.609375 22.859375 53.8125 23.4375 
L 40.328125 23.4375 
L 40.328125 29.78125 
L 56.640625 29.78125 
z
M 50.78125 53.125 
L 50.78125 44.4375 
L 84.375 44.4375 
L 84.375 53.125 
z
M 50.78125 67.390625 
L 50.78125 58.796875 
L 84.375 58.796875 
L 84.375 67.390625 
z
M 88.96875 33.984375 
L 95.015625 29.59375 
Q 87.109375 22.359375 79.59375 17.09375 
Q 86.71875 7.03125 97.171875 2.546875 
Q 94.234375 -0.6875 92.671875 -3.515625 
Q 78.515625 3.8125 70.90625 20.703125 
L 70.90625 0.296875 
Q 70.90625 -4.59375 68.453125 -6.0625 
Q 67.96875 -6.25 67.578125 -6.453125 
Q 64.65625 -7.515625 54.890625 -7.515625 
Q 54.5 -4.296875 52.9375 -1.078125 
Q 60.546875 -1.265625 62.5 -1.078125 
Q 63.96875 -0.6875 64.0625 0.296875 
L 64.0625 38.28125 
L 44.046875 38.28125 
L 44.046875 73.4375 
L 60.359375 73.4375 
Q 63.09375 79.390625 64.359375 83.796875 
L 72.5625 82.234375 
Q 71.875 80.671875 67.96875 73.4375 
L 91.5 73.4375 
L 91.5 38.28125 
L 70.90625 38.28125 
L 70.90625 37.015625 
Q 72.953125 28.71875 76.5625 22.078125 
Q 83.296875 27.640625 88.96875 33.984375 
z
" id="TaipeiSansTCBeta-Regular-32218"/>
      <path d="M 53.03125 35.640625 
L 53.03125 26.375 
L 69.34375 26.375 
L 69.34375 35.640625 
z
M 94.625 26.375 
L 94.625 20.609375 
L 28.328125 20.609375 
L 28.328125 26.375 
L 46 26.375 
L 46 35.640625 
L 32.328125 35.640625 
L 32.328125 41.40625 
L 46 41.40625 
L 46 48.53125 
L 53.03125 48.53125 
L 53.03125 41.40625 
L 69.34375 41.40625 
L 69.34375 48.53125 
L 76.375 48.53125 
L 76.375 41.40625 
L 90.625 41.40625 
L 90.625 35.640625 
L 76.375 35.640625 
L 76.375 26.375 
z
M 93.84375 7.625 
L 86.625 4.296875 
Q 78.71875 10.640625 66.21875 16.796875 
L 71.484375 20.21875 
Q 85.84375 13.578125 93.84375 7.625 
z
M 50.296875 20.125 
L 57.03125 17.875 
Q 49.3125 10.75 35.9375 4.203125 
Q 33.5 6.734375 30.375 8.796875 
Q 43.75 14.15625 50.296875 20.125 
z
M 84.96875 74.703125 
L 70.40625 74.703125 
L 70.40625 67.96875 
L 84.96875 67.96875 
z
M 86.625 50.296875 
L 73.4375 50.296875 
Q 66.703125 50.296875 65.046875 52.828125 
Q 63.96875 54.59375 63.96875 58.203125 
L 63.96875 79.78125 
L 91.609375 79.78125 
L 91.609375 62.890625 
L 70.40625 62.890625 
L 70.40625 58.296875 
Q 70.40625 56.25 71.578125 55.859375 
Q 72.46875 55.671875 74.21875 55.671875 
L 85.84375 55.671875 
Q 87.984375 55.671875 88.484375 57.234375 
Q 88.765625 58.296875 88.96875 60.9375 
Q 91.3125 59.375 94.4375 58.796875 
Q 93.84375 52.34375 90.71875 50.984375 
Q 89.15625 50.296875 86.625 50.296875 
z
M 51.953125 74.703125 
L 37.59375 74.703125 
L 37.59375 67.96875 
L 51.953125 67.96875 
z
M 52.828125 50.296875 
L 40.53125 50.296875 
Q 33.984375 50.296875 32.421875 52.640625 
Q 31.34375 54.390625 31.34375 58.109375 
L 31.34375 79.78125 
L 58.296875 79.78125 
L 58.296875 62.890625 
L 37.59375 62.890625 
L 37.59375 58.203125 
Q 37.59375 56.15625 38.765625 55.859375 
Q 39.546875 55.671875 41.21875 55.671875 
L 52.15625 55.671875 
Q 54.203125 55.671875 54.59375 57.234375 
Q 54.890625 58.296875 55.078125 60.640625 
Q 56.9375 59.28125 60.546875 58.40625 
Q 59.96875 52.25 56.84375 50.875 
Q 55.28125 50.296875 52.828125 50.296875 
z
M 28.90625 70.703125 
L 23.734375 65.921875 
Q 19.625 71.296875 9.96875 77.25 
Q 9.1875 77.734375 8.5 78.125 
L 13.375 82.421875 
Q 23.921875 76.46875 28.71875 71 
Q 28.8125 70.796875 28.90625 70.703125 
z
M 25.984375 50.78125 
L 21.09375 45.703125 
Q 16.40625 51.078125 6.734375 56.546875 
Q 5.765625 57.125 4.984375 57.515625 
L 9.671875 62.109375 
Q 20.015625 56.9375 25.296875 51.5625 
Q 25.6875 51.078125 25.984375 50.78125 
z
M 23.640625 37.5 
L 23.640625 12.109375 
Q 30.5625 1.5625 49.421875 0.875 
Q 68.0625 0.09375 92.390625 1.265625 
Q 94.53125 1.375 96.296875 1.46875 
Q 94.625 -1.5625 94.046875 -5.46875 
Q 70.609375 -6.453125 49.515625 -5.765625 
Q 30.46875 -5.078125 21.390625 5.171875 
Q 21 5.671875 20.703125 5.953125 
Q 14.453125 -0.484375 7.625 -6.84375 
L 3.71875 0.09375 
Q 9.46875 4.390625 16.703125 11.421875 
L 16.703125 30.671875 
L 4.59375 30.671875 
L 4.59375 37.5 
z
" id="TaipeiSansTCBeta-Regular-36984"/>
      <path d="M 33.796875 41.609375 
L 34.765625 34.671875 
L 23.921875 31.0625 
L 23.921875 0.984375 
Q 23.921875 -4.59375 20.796875 -6.25 
Q 20.609375 -6.34375 20.515625 -6.34375 
Q 17.1875 -7.71875 8.109375 -7.625 
Q 7.421875 -4 5.859375 -0.78125 
Q 13.1875 -0.984375 15.328125 -0.78125 
Q 16.890625 -0.296875 17 0.984375 
L 17 28.90625 
L 5.078125 25 
L 3.21875 32.234375 
Q 4.59375 32.625 17 36.328125 
L 17 56.84375 
L 4.5 56.84375 
L 4.5 63.578125 
L 17 63.578125 
L 17 83.59375 
L 23.921875 83.59375 
L 23.921875 63.578125 
L 34.578125 63.578125 
L 34.578125 56.84375 
L 23.921875 56.84375 
L 23.921875 38.375 
Q 26.078125 38.96875 30.171875 40.4375 
Q 32.625 41.21875 33.796875 41.609375 
z
M 74.90625 24.125 
L 72.5625 24.8125 
Q 75.390625 30.28125 76.65625 33.59375 
L 54 33.59375 
Q 56.9375 28.03125 57.625 24.90625 
L 54.78125 24.125 
z
M 60.640625 74.21875 
L 60.640625 63.671875 
L 70.515625 63.671875 
L 70.515625 74.21875 
z
M 54.59375 63.671875 
L 54.59375 74.21875 
L 45.125 74.21875 
L 45.125 63.671875 
z
M 76.46875 74.21875 
L 76.46875 63.671875 
L 86.625 63.671875 
L 86.625 74.21875 
z
M 95.796875 39.453125 
L 95.796875 33.59375 
L 82.71875 33.59375 
L 84.1875 33.203125 
Q 80.671875 26.859375 78.90625 24.125 
L 94.4375 24.125 
L 94.4375 18.265625 
L 68.5625 18.265625 
L 68.5625 11.234375 
L 92.1875 11.234375 
L 92.1875 5.375 
L 68.5625 5.375 
L 68.5625 -8.40625 
L 61.625 -8.40625 
L 61.625 5.375 
L 38.1875 5.375 
L 38.1875 11.234375 
L 61.625 11.234375 
L 61.625 18.265625 
L 36.140625 18.265625 
L 36.140625 24.125 
L 50.984375 24.125 
Q 50 27.9375 47.46875 32.625 
L 51.5625 33.59375 
L 35.15625 33.59375 
L 35.15625 39.453125 
L 61.625 39.453125 
L 61.625 46.578125 
L 40.140625 46.578125 
L 40.140625 52.25 
L 61.625 52.25 
L 61.625 58.40625 
L 38.96875 58.40625 
L 38.96875 79.59375 
L 92.78125 79.59375 
L 92.78125 58.40625 
L 68.5625 58.40625 
L 68.5625 52.25 
L 90.921875 52.25 
L 90.921875 46.578125 
L 68.5625 46.578125 
L 68.5625 39.453125 
z
" id="TaipeiSansTCBeta-Regular-25799"/>
     </defs>
     <use xlink:href="#TaipeiSansTCBeta-Regular-22312"/>
     <use x="100" xlink:href="#TaipeiSansTCBeta-Regular-39438"/>
     <use x="200" xlink:href="#TaipeiSansTCBeta-Regular-20056"/>
     <use x="300" xlink:href="#TaipeiSansTCBeta-Regular-20132"/>
     <use x="400" xlink:href="#TaipeiSansTCBeta-Regular-36890"/>
     <use x="500" xlink:href="#TaipeiSansTCBeta-Regular-24037"/>
     <use x="600" xlink:href="#TaipeiSansTCBeta-Regular-20855"/>
     <use x="700" xlink:href="#TaipeiSansTCBeta-Regular-26178"/>
     <use x="800" xlink:href="#TaipeiSansTCBeta-Regular-30340"/>
     <use x="900" xlink:href="#TaipeiSansTCBeta-Regular-36335"/>
     <use x="1000" xlink:href="#TaipeiSansTCBeta-Regular-32218"/>
     <use x="1100" xlink:href="#TaipeiSansTCBeta-Regular-36984"/>
     <use x="1200" xlink:href="#TaipeiSansTCBeta-Regular-25799"/>
    </g>
   </g>
   <g id="legend_1">
    <g id="patch_12">
     <path d="M 97.7 196.329219 
L 187.9 196.329219 
Q 190.1 196.329219 190.1 194.129219 
L 190.1 111.38 
Q 190.1 109.18 187.9 109.18 
L 97.7 109.18 
Q 95.5 109.18 95.5 111.38 
L 95.5 194.129219 
Q 95.5 196.329219 97.7 196.329219 
z
" style="fill:#eaeaf2;opacity:0.8;stroke:#cccccc;stroke-linejoin:miter;"/>
    </g>
    <g id="patch_13">
     <path d="M 99.9 122.335312 
L 121.9 122.335312 
L 121.9 114.635312 
L 99.9 114.635312 
z
" style="fill:#4c72b0;stroke:#ffffff;stroke-linejoin:miter;"/>
    </g>
    <g id="text_10">
     <!-- 主線中 -->
     <g style="fill:#262626;" transform="translate(130.7 122.335312)scale(0.11 -0.11)">
      <defs>
       <path d="M 53.609375 32.125 
L 82.328125 32.125 
L 82.328125 58.59375 
L 53.609375 58.59375 
z
M 17.28125 32.125 
L 45.90625 32.125 
L 45.90625 58.59375 
L 17.28125 58.59375 
z
M 53.609375 65.921875 
L 89.9375 65.921875 
L 89.9375 19.140625 
L 82.328125 19.140625 
L 82.328125 24.8125 
L 53.609375 24.8125 
L 53.609375 -7.625 
L 45.90625 -7.625 
L 45.90625 24.8125 
L 17.28125 24.8125 
L 17.28125 18.5625 
L 9.96875 18.5625 
L 9.96875 65.921875 
L 45.90625 65.921875 
L 45.90625 83.6875 
L 53.609375 83.6875 
z
" id="TaipeiSansTCBeta-Regular-20013"/>
      </defs>
      <use xlink:href="#TaipeiSansTCBeta-Regular-20027"/>
      <use x="100" xlink:href="#TaipeiSansTCBeta-Regular-32218"/>
      <use x="200" xlink:href="#TaipeiSansTCBeta-Regular-20013"/>
     </g>
    </g>
    <g id="patch_14">
     <path d="M 99.9 139.105156 
L 121.9 139.105156 
L 121.9 131.405156 
L 99.9 131.405156 
z
" style="fill:#dd8452;stroke:#ffffff;stroke-linejoin:miter;"/>
    </g>
    <g id="text_11">
     <!-- 主線右 -->
     <g style="fill:#262626;" transform="translate(130.7 139.105156)scale(0.11 -0.11)">
      <defs>
       <path d="M 78.609375 31.453125 
L 34.28125 31.453125 
L 34.28125 4.984375 
L 78.609375 4.984375 
z
M 93.453125 57.90625 
L 41.609375 57.90625 
Q 37.109375 46.390625 32.421875 38.484375 
L 86.234375 38.484375 
L 86.234375 -7.328125 
L 78.609375 -7.328125 
L 78.609375 -2.15625 
L 34.28125 -2.15625 
L 34.28125 -7.8125 
L 26.953125 -7.8125 
L 26.953125 30.28125 
Q 18.65625 19.234375 8.5 11.921875 
Q 6.640625 14.65625 3.609375 17.78125 
Q 22.859375 30.953125 33.59375 57.90625 
L 6.84375 57.90625 
L 6.84375 65.140625 
L 36.328125 65.140625 
Q 39.65625 75.59375 41.3125 83.6875 
L 49.03125 82.328125 
Q 46.78125 72.953125 44.234375 65.140625 
L 93.453125 65.140625 
z
" id="TaipeiSansTCBeta-Regular-21491"/>
      </defs>
      <use xlink:href="#TaipeiSansTCBeta-Regular-20027"/>
      <use x="100" xlink:href="#TaipeiSansTCBeta-Regular-32218"/>
      <use x="200" xlink:href="#TaipeiSansTCBeta-Regular-21491"/>
     </g>
    </g>
    <g id="patch_15">
     <path d="M 99.9 155.875 
L 121.9 155.875 
L 121.9 148.175 
L 99.9 148.175 
z
" style="fill:#55a868;stroke:#ffffff;stroke-linejoin:miter;"/>
    </g>
    <g id="text_12">
     <!-- 主線左 -->
     <g style="fill:#262626;" transform="translate(130.7 155.875)scale(0.11 -0.11)">
      <defs>
       <path d="M 63.375 2.4375 
L 94.53125 2.4375 
L 94.53125 -4.78125 
L 23.53125 -4.78125 
L 23.53125 2.4375 
L 55.953125 2.4375 
L 55.953125 32.328125 
L 33.6875 32.328125 
L 33.6875 38.96875 
Q 24.21875 13.375 8.203125 -1.65625 
Q 6.25 1.171875 3.328125 4.109375 
Q 22.65625 21.78125 32.125 58.5 
L 7.125 58.5 
L 7.125 65.71875 
L 33.796875 65.71875 
Q 35.84375 75.59375 37.109375 83.59375 
L 44.828125 82.71875 
Q 43.0625 72.65625 41.5 65.71875 
L 92.671875 65.71875 
L 92.671875 58.5 
L 39.75 58.5 
Q 37.703125 49.8125 33.890625 39.453125 
L 90.140625 39.453125 
L 90.140625 32.328125 
L 63.375 32.328125 
z
" id="TaipeiSansTCBeta-Regular-24038"/>
      </defs>
      <use xlink:href="#TaipeiSansTCBeta-Regular-20027"/>
      <use x="100" xlink:href="#TaipeiSansTCBeta-Regular-32218"/>
      <use x="200" xlink:href="#TaipeiSansTCBeta-Regular-24038"/>
     </g>
    </g>
    <g id="patch_16">
     <path d="M 99.9 172.644844 
L 121.9 172.644844 
L 121.9 164.944844 
L 99.9 164.944844 
z
" style="fill:#c44e52;stroke:#ffffff;stroke-linejoin:miter;"/>
    </g>
    <g id="text_13">
     <!-- 幾乎不騎乘 -->
     <g style="fill:#262626;" transform="translate(130.7 172.644844)scale(0.11 -0.11)">
      <defs>
       <path d="M 7.90625 40.921875 
L 6.734375 47.171875 
Q 8.6875 47.171875 13.671875 47.359375 
Q 16.21875 50.09375 20.609375 55.46875 
Q 15.328125 61.328125 7.328125 67.28125 
L 11.03125 71.6875 
Q 13.28125 70.125 14.9375 68.84375 
Q 19.734375 76.375 22.46875 83.015625 
L 28.421875 80.171875 
Q 20.515625 67.96875 18.65625 65.625 
Q 20.90625 63.765625 24.3125 60.359375 
Q 28.8125 66.40625 33.5 74.03125 
L 39.359375 71.1875 
Q 29.984375 58.015625 20.609375 47.5625 
Q 22.65625 47.65625 27.046875 47.859375 
Q 32.71875 48.140625 35.546875 48.25 
Q 34.671875 50.09375 32.625 53.515625 
Q 31.640625 55.28125 31.15625 56.0625 
L 36.328125 58.015625 
Q 42.1875 49.03125 45.21875 40.921875 
L 39.84375 38.375 
Q 39.65625 39.0625 37.984375 42.78125 
Q 33.796875 42.484375 25.6875 42 
Q 13.09375 41.3125 7.90625 40.921875 
z
M 78.8125 25.984375 
L 85.359375 23.140625 
Q 79.296875 13.875 69.234375 6.640625 
Q 75.78125 -0.484375 83.59375 -0.59375 
Q 87.109375 -0.59375 88.484375 3.421875 
Q 89.453125 6.546875 89.9375 13.375 
Q 92.875 10.84375 95.90625 9.859375 
Q 94.4375 -2.046875 90.828125 -5.28125 
Q 88.28125 -7.515625 83.296875 -7.515625 
Q 71.484375 -7.421875 63.09375 2.640625 
Q 52.34375 -3.8125 39.453125 -7.8125 
Q 37.3125 -4.109375 35.0625 -1.765625 
Q 48.34375 1.859375 59.078125 8.109375 
Q 54.5 15.71875 51.078125 27.25 
L 29.984375 27.25 
Q 29.296875 23.4375 28.21875 19.140625 
L 30.671875 21.1875 
Q 41.21875 14.15625 47.359375 8.5 
L 42.390625 3.8125 
Q 37.3125 8.890625 27.34375 16.109375 
Q 21.96875 -0.296875 9.28125 -7.71875 
Q 7.125 -4.59375 4.6875 -2.546875 
Q 19.046875 5.375 22.5625 27.25 
L 5.5625 27.25 
L 5.5625 33.5 
L 49.421875 33.5 
Q 44.4375 55.078125 44.234375 83.59375 
L 51.5625 83.59375 
Q 51.46875 54.984375 56.84375 33.5 
L 76.765625 33.5 
Q 72.078125 37.5 67.484375 40.234375 
L 71.875 43.84375 
L 57.8125 42.671875 
L 56.640625 48.828125 
L 61.8125 49.03125 
Q 65.328125 53.03125 68.453125 56.9375 
Q 62.5 62.890625 55.171875 67.875 
L 58.6875 72.265625 
Q 59.859375 71.484375 62.109375 70.015625 
Q 67.09375 77.828125 69.625 83.5 
L 75.59375 80.765625 
Q 68.171875 69.53125 66.21875 67 
Q 69.046875 64.84375 72.265625 61.8125 
Q 77.9375 69.4375 81.34375 74.90625 
L 87.015625 71.96875 
Q 78.609375 60.359375 68.65625 49.421875 
Q 74.03125 49.609375 84.375 50.203125 
Q 83.015625 52.734375 79.390625 58.109375 
L 84.765625 60.25 
Q 92.484375 49.703125 95.015625 42.390625 
L 89.265625 39.9375 
Q 88.484375 42.1875 87.109375 45.125 
Q 84.1875 44.921875 78.21875 44.34375 
Q 74.03125 44.046875 72.078125 43.84375 
Q 80.28125 39.265625 84.1875 34.96875 
L 82.515625 33.5 
L 94.734375 33.5 
L 94.734375 27.25 
L 58.59375 27.25 
Q 61.328125 18.5625 65.140625 12.109375 
Q 73.734375 18.359375 78.8125 25.984375 
z
" id="TaipeiSansTCBeta-Regular-24190"/>
       <path d="M 94.53125 36.71875 
L 94.53125 29.203125 
L 54.78125 29.203125 
L 54.78125 2.4375 
Q 54.78125 -4.109375 50.78125 -5.953125 
Q 50.09375 -6.25 49.421875 -6.453125 
Q 45.015625 -7.8125 28.8125 -7.8125 
Q 27.734375 -4.109375 25.484375 -0.203125 
Q 31.25 -0.390625 44.046875 -0.390625 
Q 46.578125 -0.296875 46.875 1.46875 
Q 46.96875 1.953125 46.96875 2.546875 
L 46.96875 29.203125 
L 5.765625 29.203125 
L 5.765625 36.71875 
L 46.96875 36.71875 
L 46.96875 69.828125 
Q 29.59375 68.359375 13.96875 67.875 
Q 13.671875 70.796875 12.203125 74.609375 
Q 57.328125 76.265625 80.078125 81.84375 
Q 80.953125 82.03125 81.734375 82.234375 
L 85.640625 75.484375 
Q 73.140625 72.265625 54.78125 70.609375 
L 54.78125 36.71875 
z
M 16.796875 62.5 
L 23.34375 64.75 
Q 30.28125 52.9375 32.8125 43.65625 
Q 32.90625 43.265625 33.015625 43.0625 
L 26.171875 40.4375 
Q 24.03125 49.3125 16.796875 62.5 
z
M 73.25 40.625 
L 67.1875 43.0625 
Q 73.34375 53.21875 77.734375 65.71875 
Q 77.9375 66.109375 78.03125 66.5 
L 85.9375 63.765625 
Q 77.34375 46.78125 73.25 40.625 
z
" id="TaipeiSansTCBeta-Regular-20046"/>
       <path d="M 92.671875 69.234375 
L 61.03125 69.234375 
Q 57.71875 63.875 53.90625 58.203125 
L 53.90625 -7.421875 
L 46 -7.421875 
L 46 48.25 
Q 29.78125 29.78125 9.765625 19.140625 
Q 8.40625 21.484375 4.78125 25.59375 
Q 26.078125 36.234375 41.890625 55.46875 
Q 47.46875 62.3125 51.46875 69.234375 
L 7.328125 69.234375 
L 7.328125 76.5625 
L 92.671875 76.5625 
z
M 55.859375 47.65625 
L 61.421875 52.546875 
Q 80.375 40.328125 92.28125 29.296875 
Q 94.140625 27.546875 95.515625 26.171875 
L 89.65625 20.515625 
Q 80.5625 30.171875 62.3125 43.171875 
Q 58.890625 45.609375 55.859375 47.65625 
z
" id="TaipeiSansTCBeta-Regular-19981"/>
      </defs>
      <use xlink:href="#TaipeiSansTCBeta-Regular-24190"/>
      <use x="100" xlink:href="#TaipeiSansTCBeta-Regular-20046"/>
      <use x="200" xlink:href="#TaipeiSansTCBeta-Regular-19981"/>
      <use x="300" xlink:href="#TaipeiSansTCBeta-Regular-39438"/>
      <use x="400" xlink:href="#TaipeiSansTCBeta-Regular-20056"/>
     </g>
    </g>
    <g id="patch_17">
     <path d="M 99.9 189.414687 
L 121.9 189.414687 
L 121.9 181.714687 
L 99.9 181.714687 
z
" style="fill:#8172b3;stroke:#ffffff;stroke-linejoin:miter;"/>
    </g>
    <g id="text_14">
     <!-- 磚造路 -->
     <g style="fill:#262626;" transform="translate(130.7 189.414687)scale(0.11 -0.11)">
      <defs>
       <path d="M 30.46875 12.109375 
L 30.46875 41.3125 
L 18.359375 41.3125 
L 18.359375 12.109375 
z
M 4.890625 70.40625 
L 4.890625 77.25 
L 40.234375 77.25 
L 40.234375 70.40625 
L 23.53125 70.40625 
Q 21.6875 57.90625 19.046875 47.65625 
L 37.109375 47.65625 
L 37.109375 5.46875 
L 18.359375 5.46875 
L 18.359375 -2.9375 
L 12.015625 -2.9375 
L 12.015625 27.9375 
Q 10.15625 24.03125 7.71875 20.3125 
Q 6.25 23.34375 3.21875 26.859375 
Q 12.3125 40.53125 16.40625 70.40625 
z
M 48.046875 9.96875 
L 52.9375 13.28125 
Q 59.96875 7.8125 63.765625 2.34375 
L 58.5 -1.5625 
Q 55.375 3.609375 48.34375 9.671875 
Q 48.140625 9.859375 48.046875 9.96875 
z
M 71.296875 37.703125 
L 71.296875 31.15625 
L 82.515625 31.453125 
Q 79.984375 33.796875 77.34375 35.84375 
L 80.671875 37.703125 
z
M 51.375 42.390625 
L 64.359375 42.390625 
L 64.359375 48.828125 
L 51.375 48.828125 
z
M 51.375 59.46875 
L 51.375 53.21875 
L 64.359375 53.21875 
L 64.359375 59.46875 
z
M 84.46875 59.46875 
L 71.296875 59.46875 
L 71.296875 53.21875 
L 84.46875 53.21875 
z
M 84.46875 42.390625 
L 84.46875 48.828125 
L 71.296875 48.828125 
L 71.296875 42.390625 
z
M 80.953125 25.984375 
L 80.953125 19.53125 
L 95.796875 19.53125 
L 95.796875 13.671875 
L 80.953125 13.671875 
L 80.953125 -0.203125 
Q 80.953125 -4.6875 78.90625 -5.953125 
Q 78.328125 -6.34375 77.734375 -6.546875 
Q 74.8125 -7.625 64.9375 -7.625 
Q 64.453125 -4.78125 62.703125 -1.46875 
Q 70.40625 -1.65625 72.359375 -1.46875 
Q 73.921875 -1.078125 74.03125 0 
L 74.03125 13.671875 
L 40.4375 13.671875 
L 40.4375 19.53125 
L 74.03125 19.53125 
L 74.03125 25.6875 
Q 58.015625 25.203125 41.5 24.8125 
L 41.015625 30.859375 
Q 46.6875 30.859375 64.359375 31.0625 
L 64.359375 37.703125 
L 44.921875 37.703125 
L 44.921875 64.0625 
L 64.359375 64.0625 
L 64.359375 69.4375 
L 42.78125 69.4375 
L 42.78125 75.390625 
L 64.359375 75.390625 
L 64.359375 82.625 
L 71.296875 82.625 
L 71.296875 75.390625 
L 94.53125 75.390625 
L 94.53125 69.4375 
L 71.296875 69.4375 
L 71.296875 64.0625 
L 91.3125 64.0625 
L 91.3125 37.703125 
L 83.5 37.703125 
Q 92.1875 30.859375 96.390625 25.59375 
L 91.21875 22.265625 
Q 90.328125 23.53125 87.890625 26.171875 
z
" id="TaipeiSansTCBeta-Regular-30938"/>
       <path d="M 58.984375 64.65625 
L 43.953125 64.65625 
Q 40.71875 59.078125 36.328125 54.109375 
Q 33.40625 56.25 29.890625 57.8125 
Q 39.15625 66.5 44.234375 81.734375 
Q 44.34375 82.125 44.4375 82.328125 
L 51.375 80.5625 
Q 50.296875 77.34375 47.46875 71.09375 
L 58.984375 71.09375 
L 58.984375 83.5 
L 66.3125 83.5 
L 66.3125 71.09375 
L 90.140625 71.09375 
L 90.140625 64.65625 
L 66.3125 64.65625 
L 66.3125 51.859375 
L 94.4375 51.859375 
L 94.4375 45.40625 
L 30.671875 45.40625 
L 30.671875 51.859375 
L 58.984375 51.859375 
z
M 46.875 17 
L 79.6875 17 
L 79.6875 31.640625 
L 46.875 31.640625 
z
M 87.015625 7.328125 
L 79.6875 7.328125 
L 79.6875 10.640625 
L 46.875 10.640625 
L 46.875 7.03125 
L 39.75 7.03125 
L 39.75 37.703125 
L 87.015625 37.703125 
z
M 30.671875 70.40625 
L 25.484375 65.328125 
Q 20.609375 71 10.453125 77.15625 
Q 9.859375 77.546875 9.28125 77.828125 
L 14.15625 82.421875 
Q 25.984375 75.875 30.671875 70.40625 
z
M 27.734375 50.875 
L 22.5625 45.609375 
Q 17.578125 51.078125 6.34375 57.125 
Q 5.765625 57.421875 5.375 57.625 
L 10.25 62.40625 
Q 21.09375 57.125 27.046875 51.5625 
Q 27.4375 51.171875 27.734375 50.875 
z
M 25.296875 37.40625 
L 25.296875 12.40625 
Q 32.234375 1.859375 50.484375 1.078125 
Q 73.34375 0.484375 94.34375 1.65625 
Q 95.3125 1.65625 96.09375 1.765625 
Q 94.34375 -1.375 93.5625 -5.46875 
Q 70.515625 -6.25 50.59375 -5.765625 
Q 32.234375 -4.984375 23.25 4.5 
Q 22.5625 5.28125 21.96875 5.953125 
Q 16.796875 0.984375 7.515625 -6.84375 
L 3.71875 0.484375 
Q 11.71875 6.34375 17.96875 11.921875 
L 17.96875 30.46875 
L 4.984375 30.46875 
L 4.984375 37.40625 
z
" id="TaipeiSansTCBeta-Regular-36896"/>
      </defs>
      <use xlink:href="#TaipeiSansTCBeta-Regular-30938"/>
      <use x="100" xlink:href="#TaipeiSansTCBeta-Regular-36896"/>
      <use x="200" xlink:href="#TaipeiSansTCBeta-Regular-36335"/>
     </g>
    </g>
   </g>
  </g>
  <g id="axes_2">
   <g id="patch_18">
    <path d="M 90 756 
L 648 756 
L 648 459.490909 
L 90 459.490909 
z
" style="fill:#eaeaf2;"/>
   </g>
   <g id="matplotlib.axis_3">
    <g id="xtick_7">
     <g id="line2d_8">
      <path clip-path="url(#p53f68d7fe5)" d="M 90 756 
L 90 459.490909 
" style="fill:none;stroke:#ffffff;stroke-linecap:round;"/>
     </g>
     <g id="text_15">
      <!-- 0.0 -->
      <g style="fill:#262626;" transform="translate(82.373047 774.255312)scale(0.11 -0.11)">
       <use xlink:href="#TaipeiSansTCBeta-Regular-48"/>
       <use x="55.46875" xlink:href="#TaipeiSansTCBeta-Regular-46"/>
       <use x="83.203125" xlink:href="#TaipeiSansTCBeta-Regular-48"/>
      </g>
     </g>
    </g>
    <g id="xtick_8">
     <g id="line2d_9">
      <path clip-path="url(#p53f68d7fe5)" d="M 196.285714 756 
L 196.285714 459.490909 
" style="fill:none;stroke:#ffffff;stroke-linecap:round;"/>
     </g>
     <g id="text_16">
      <!-- 0.2 -->
      <g style="fill:#262626;" transform="translate(188.658761 774.255312)scale(0.11 -0.11)">
       <use xlink:href="#TaipeiSansTCBeta-Regular-48"/>
       <use x="55.46875" xlink:href="#TaipeiSansTCBeta-Regular-46"/>
       <use x="83.203125" xlink:href="#TaipeiSansTCBeta-Regular-50"/>
      </g>
     </g>
    </g>
    <g id="xtick_9">
     <g id="line2d_10">
      <path clip-path="url(#p53f68d7fe5)" d="M 302.571429 756 
L 302.571429 459.490909 
" style="fill:none;stroke:#ffffff;stroke-linecap:round;"/>
     </g>
     <g id="text_17">
      <!-- 0.4 -->
      <g style="fill:#262626;" transform="translate(294.944475 774.255312)scale(0.11 -0.11)">
       <use xlink:href="#TaipeiSansTCBeta-Regular-48"/>
       <use x="55.46875" xlink:href="#TaipeiSansTCBeta-Regular-46"/>
       <use x="83.203125" xlink:href="#TaipeiSansTCBeta-Regular-52"/>
      </g>
     </g>
    </g>
    <g id="xtick_10">
     <g id="line2d_11">
      <path clip-path="url(#p53f68d7fe5)" d="M 408.857143 756 
L 408.857143 459.490909 
" style="fill:none;stroke:#ffffff;stroke-linecap:round;"/>
     </g>
     <g id="text_18">
      <!-- 0.6 -->
      <g style="fill:#262626;" transform="translate(401.23019 774.255312)scale(0.11 -0.11)">
       <use xlink:href="#TaipeiSansTCBeta-Regular-48"/>
       <use x="55.46875" xlink:href="#TaipeiSansTCBeta-Regular-46"/>
       <use x="83.203125" xlink:href="#TaipeiSansTCBeta-Regular-54"/>
      </g>
     </g>
    </g>
    <g id="xtick_11">
     <g id="line2d_12">
      <path clip-path="url(#p53f68d7fe5)" d="M 515.142857 756 
L 515.142857 459.490909 
" style="fill:none;stroke:#ffffff;stroke-linecap:round;"/>
     </g>
     <g id="text_19">
      <!-- 0.8 -->
      <g style="fill:#262626;" transform="translate(507.515904 774.255312)scale(0.11 -0.11)">
       <use xlink:href="#TaipeiSansTCBeta-Regular-48"/>
       <use x="55.46875" xlink:href="#TaipeiSansTCBeta-Regular-46"/>
       <use x="83.203125" xlink:href="#TaipeiSansTCBeta-Regular-56"/>
      </g>
     </g>
    </g>
    <g id="xtick_12">
     <g id="line2d_13">
      <path clip-path="url(#p53f68d7fe5)" d="M 621.428571 756 
L 621.428571 459.490909 
" style="fill:none;stroke:#ffffff;stroke-linecap:round;"/>
     </g>
     <g id="text_20">
      <!-- 1.0 -->
      <g style="fill:#262626;" transform="translate(613.801618 774.255312)scale(0.11 -0.11)">
       <use xlink:href="#TaipeiSansTCBeta-Regular-49"/>
       <use x="55.46875" xlink:href="#TaipeiSansTCBeta-Regular-46"/>
       <use x="83.203125" xlink:href="#TaipeiSansTCBeta-Regular-48"/>
      </g>
     </g>
    </g>
   </g>
   <g id="matplotlib.axis_4">
    <g id="ytick_2">
     <g id="line2d_14">
      <path clip-path="url(#p53f68d7fe5)" d="M 90 681.872727 
L 648 681.872727 
" style="fill:none;stroke:#ffffff;stroke-linecap:round;"/>
     </g>
     <g id="text_21">
      <!-- 步行 -->
      <g style="fill:#262626;" transform="translate(58.5 686.250384)scale(0.11 -0.11)">
       <defs>
        <path d="M 26.5625 42.96875 
L 34.078125 40.625 
Q 26.5625 29.59375 14.84375 20.703125 
Q 13.375 19.53125 12.015625 18.5625 
Q 9.078125 21.484375 5.5625 23.53125 
Q 17.28125 30.671875 24.90625 40.625 
Q 25.78125 41.890625 26.5625 42.96875 
z
M 76.5625 40.328125 
L 83.984375 37.796875 
Q 76.078125 15.234375 56.546875 4.203125 
Q 41.5 -4.203125 16.796875 -7.8125 
Q 15.234375 -3.515625 12.984375 -0.875 
Q 46.09375 3.21875 61.625 17 
Q 71.578125 26.078125 76.5625 40.328125 
z
M 53.90625 53.515625 
L 94.4375 53.515625 
L 94.4375 46.578125 
L 53.8125 46.578125 
L 53.8125 23.4375 
Q 53.8125 18.453125 50.875 17 
Q 50.484375 16.796875 50 16.609375 
Q 46.96875 15.53125 35.359375 15.53125 
Q 34.765625 18.171875 33.015625 22.171875 
Q 41.3125 21.875 44.625 22.078125 
Q 46.296875 22.46875 46.390625 23.53125 
L 46.390625 46.578125 
L 5.671875 46.578125 
L 5.671875 53.515625 
L 20.609375 53.515625 
L 20.609375 75.875 
L 28.03125 75.875 
L 28.03125 53.515625 
L 46.390625 53.515625 
L 46.390625 83.59375 
L 53.90625 83.59375 
L 53.90625 71.875 
L 84.28125 71.875 
L 84.28125 64.9375 
L 53.90625 64.9375 
z
" id="TaipeiSansTCBeta-Regular-27493"/>
       </defs>
       <use xlink:href="#TaipeiSansTCBeta-Regular-27493"/>
       <use x="100" xlink:href="#TaipeiSansTCBeta-Regular-34892"/>
      </g>
     </g>
    </g>
    <g id="ytick_3">
     <g id="line2d_15">
      <path clip-path="url(#p53f68d7fe5)" d="M 90 533.618182 
L 648 533.618182 
" style="fill:none;stroke:#ffffff;stroke-linecap:round;"/>
     </g>
     <g id="text_22">
      <!-- 自行車（含自有交通工具） -->
      <g style="fill:#262626;" transform="translate(-51.5 537.995838)scale(0.11 -0.11)">
       <use xlink:href="#TaipeiSansTCBeta-Regular-33258"/>
       <use x="100" xlink:href="#TaipeiSansTCBeta-Regular-34892"/>
       <use x="200" xlink:href="#TaipeiSansTCBeta-Regular-36554"/>
       <use x="300" xlink:href="#TaipeiSansTCBeta-Regular-65288"/>
       <use x="400" xlink:href="#TaipeiSansTCBeta-Regular-21547"/>
       <use x="500" xlink:href="#TaipeiSansTCBeta-Regular-33258"/>
       <use x="600" xlink:href="#TaipeiSansTCBeta-Regular-26377"/>
       <use x="700" xlink:href="#TaipeiSansTCBeta-Regular-20132"/>
       <use x="800" xlink:href="#TaipeiSansTCBeta-Regular-36890"/>
       <use x="900" xlink:href="#TaipeiSansTCBeta-Regular-24037"/>
       <use x="1000" xlink:href="#TaipeiSansTCBeta-Regular-20855"/>
       <use x="1100" xlink:href="#TaipeiSansTCBeta-Regular-65289"/>
      </g>
     </g>
    </g>
    <g id="text_23">
     <!-- 主要移動方式 -->
     <g style="fill:#262626;" transform="translate(-58.243125 643.745455)rotate(-90)scale(0.12 -0.12)">
      <use xlink:href="#TaipeiSansTCBeta-Regular-20027"/>
      <use x="100" xlink:href="#TaipeiSansTCBeta-Regular-35201"/>
      <use x="200" xlink:href="#TaipeiSansTCBeta-Regular-31227"/>
      <use x="300" xlink:href="#TaipeiSansTCBeta-Regular-21205"/>
      <use x="400" xlink:href="#TaipeiSansTCBeta-Regular-26041"/>
      <use x="500" xlink:href="#TaipeiSansTCBeta-Regular-24335"/>
     </g>
    </g>
   </g>
   <g id="patch_19">
    <path clip-path="url(#p53f68d7fe5)" d="M 90 718.936364 
L 277.563025 718.936364 
L 277.563025 644.809091 
L 90 644.809091 
z
" style="fill:#4c72b0;stroke:#ffffff;stroke-linejoin:miter;"/>
   </g>
   <g id="patch_20">
    <path clip-path="url(#p53f68d7fe5)" d="M 90 570.681818 
L 187.894737 570.681818 
L 187.894737 496.554545 
L 90 496.554545 
z
" style="fill:#4c72b0;stroke:#ffffff;stroke-linejoin:miter;"/>
   </g>
   <g id="patch_21">
    <path clip-path="url(#p53f68d7fe5)" d="M 277.563025 718.936364 
L 527.647059 718.936364 
L 527.647059 644.809091 
L 277.563025 644.809091 
z
" style="fill:#dd8452;stroke:#ffffff;stroke-linejoin:miter;"/>
   </g>
   <g id="patch_22">
    <path clip-path="url(#p53f68d7fe5)" d="M 187.894737 570.681818 
L 478.781955 570.681818 
L 478.781955 496.554545 
L 187.894737 496.554545 
z
" style="fill:#dd8452;stroke:#ffffff;stroke-linejoin:miter;"/>
   </g>
   <g id="patch_23">
    <path clip-path="url(#p53f68d7fe5)" d="M 90 718.936364 
L 90 718.936364 
L 90 644.809091 
L 90 644.809091 
z
" style="fill:#55a868;stroke:#ffffff;stroke-linejoin:miter;"/>
   </g>
   <g id="patch_24">
    <path clip-path="url(#p53f68d7fe5)" d="M 478.781955 570.681818 
L 515.142857 570.681818 
L 515.142857 496.554545 
L 478.781955 496.554545 
z
" style="fill:#55a868;stroke:#ffffff;stroke-linejoin:miter;"/>
   </g>
   <g id="patch_25">
    <path clip-path="url(#p53f68d7fe5)" d="M 527.647059 718.936364 
L 621.428571 718.936364 
L 621.428571 644.809091 
L 527.647059 644.809091 
z
" style="fill:#c44e52;stroke:#ffffff;stroke-linejoin:miter;"/>
   </g>
   <g id="patch_26">
    <path clip-path="url(#p53f68d7fe5)" d="M 515.142857 570.681818 
L 621.428571 570.681818 
L 621.428571 496.554545 
L 515.142857 496.554545 
z
" style="fill:#c44e52;stroke:#ffffff;stroke-linejoin:miter;"/>
   </g>
   <g id="patch_27">
    <path d="M 90 756 
L 90 459.490909 
" style="fill:none;stroke:#ffffff;stroke-linecap:square;stroke-linejoin:miter;stroke-width:1.25;"/>
   </g>
   <g id="patch_28">
    <path d="M 648 756 
L 648 459.490909 
" style="fill:none;stroke:#ffffff;stroke-linecap:square;stroke-linejoin:miter;stroke-width:1.25;"/>
   </g>
   <g id="patch_29">
    <path d="M 90 756 
L 648 756 
" style="fill:none;stroke:#ffffff;stroke-linecap:square;stroke-linejoin:miter;stroke-width:1.25;"/>
   </g>
   <g id="patch_30">
    <path d="M 90 459.490909 
L 648 459.490909 
" style="fill:none;stroke:#ffffff;stroke-linecap:square;stroke-linejoin:miter;stroke-width:1.25;"/>
   </g>
   <g id="text_24">
    <!-- 在步行時的路線選擇 -->
    <g style="fill:#262626;" transform="translate(315 453.490909)scale(0.12 -0.12)">
     <use xlink:href="#TaipeiSansTCBeta-Regular-22312"/>
     <use x="100" xlink:href="#TaipeiSansTCBeta-Regular-27493"/>
     <use x="200" xlink:href="#TaipeiSansTCBeta-Regular-34892"/>
     <use x="300" xlink:href="#TaipeiSansTCBeta-Regular-26178"/>
     <use x="400" xlink:href="#TaipeiSansTCBeta-Regular-30340"/>
     <use x="500" xlink:href="#TaipeiSansTCBeta-Regular-36335"/>
     <use x="600" xlink:href="#TaipeiSansTCBeta-Regular-32218"/>
     <use x="700" xlink:href="#TaipeiSansTCBeta-Regular-36984"/>
     <use x="800" xlink:href="#TaipeiSansTCBeta-Regular-25799"/>
    </g>
   </g>
   <g id="legend_2">
    <g id="patch_31">
     <path d="M 550.1 642.935142 
L 640.3 642.935142 
Q 642.5 642.935142 642.5 640.735142 
L 642.5 574.755767 
Q 642.5 572.555767 640.3 572.555767 
L 550.1 572.555767 
Q 547.9 572.555767 547.9 574.755767 
L 547.9 640.735142 
Q 547.9 642.935142 550.1 642.935142 
z
" style="fill:#eaeaf2;opacity:0.8;stroke:#cccccc;stroke-linejoin:miter;"/>
    </g>
    <g id="patch_32">
     <path d="M 552.3 585.71108 
L 574.3 585.71108 
L 574.3 578.01108 
L 552.3 578.01108 
z
" style="fill:#4c72b0;stroke:#ffffff;stroke-linejoin:miter;"/>
    </g>
    <g id="text_25">
     <!-- 主線 -->
     <g style="fill:#262626;" transform="translate(583.1 585.71108)scale(0.11 -0.11)">
      <use xlink:href="#TaipeiSansTCBeta-Regular-20027"/>
      <use x="100" xlink:href="#TaipeiSansTCBeta-Regular-32218"/>
     </g>
    </g>
    <g id="patch_33">
     <path d="M 552.3 602.480923 
L 574.3 602.480923 
L 574.3 594.780923 
L 552.3 594.780923 
z
" style="fill:#dd8452;stroke:#ffffff;stroke-linejoin:miter;"/>
    </g>
    <g id="text_26">
     <!-- 人行道 -->
     <g style="fill:#262626;" transform="translate(583.1 602.480923)scale(0.11 -0.11)">
      <defs>
       <path d="M 44.921875 80.5625 
L 53.125 80.5625 
Q 53.03125 79.890625 53.03125 78.328125 
Q 52.9375 76.765625 52.9375 75.984375 
Q 54.6875 49.90625 65.4375 29.78125 
Q 76.953125 8.5 96.78125 -0.59375 
Q 93.359375 -3.125 91.3125 -6.734375 
Q 63.09375 6.640625 51.859375 43.265625 
Q 50.6875 47.078125 49.703125 51.078125 
Q 40.625 10.0625 9.671875 -6.734375 
Q 7.125 -3.328125 3.71875 -0.984375 
Q 41.890625 18.5625 44.734375 75.78125 
Q 44.734375 76.65625 44.828125 78.328125 
Q 44.921875 79.890625 44.921875 80.5625 
z
" id="TaipeiSansTCBeta-Regular-20154"/>
       <path d="M 78.8125 42.671875 
L 78.8125 50.203125 
L 46.6875 50.203125 
L 46.6875 42.671875 
z
M 46.6875 16.609375 
L 78.8125 16.609375 
L 78.8125 24.421875 
L 46.6875 24.421875 
z
M 46.6875 37.40625 
L 46.6875 29.6875 
L 78.8125 29.6875 
L 78.8125 37.40625 
z
M 39.65625 55.953125 
L 56.453125 55.953125 
Q 57.421875 60.546875 58.015625 64.359375 
L 31.734375 64.359375 
L 31.734375 70.609375 
L 48.25 70.609375 
Q 46.1875 75.6875 41.609375 81.15625 
L 47.359375 83.59375 
Q 52.9375 77.4375 54.6875 72.171875 
L 51.078125 70.609375 
L 73.4375 70.609375 
L 69.734375 71.578125 
Q 73.53125 77.25 76.46875 83.6875 
L 83.890625 81.9375 
Q 79.390625 74.421875 76.46875 70.609375 
L 94.4375 70.609375 
L 94.4375 64.359375 
L 66.015625 64.359375 
Q 65.4375 62.5 64.15625 58.890625 
Q 63.484375 56.84375 63.1875 55.953125 
L 86.234375 55.953125 
L 86.234375 7.71875 
L 78.8125 7.71875 
L 78.8125 10.9375 
L 46.6875 10.9375 
L 46.6875 7.71875 
L 39.65625 7.71875 
z
M 29.984375 70.90625 
L 24.8125 65.828125 
Q 20.3125 71.296875 10.25 77.15625 
Q 9.671875 77.546875 9.078125 77.828125 
L 13.96875 82.421875 
Q 24.703125 76.765625 29.59375 71.296875 
Q 29.890625 71.09375 29.984375 70.90625 
z
M 27.34375 51.078125 
L 22.171875 45.703125 
Q 17.09375 51.375 6.640625 56.84375 
Q 5.765625 57.234375 5.078125 57.625 
L 9.96875 62.40625 
Q 20.21875 57.71875 26.375 51.953125 
Q 26.953125 51.46875 27.34375 51.078125 
z
M 25.296875 37.5 
L 25.296875 12.5 
Q 32.234375 1.953125 50.484375 1.171875 
Q 73.34375 0.59375 94.34375 1.765625 
Q 95.3125 1.765625 96.09375 1.859375 
Q 94.234375 -1.265625 93.5625 -5.46875 
Q 70.515625 -6.25 50.59375 -5.765625 
Q 31.9375 -4.890625 22.953125 5.078125 
Q 22.46875 5.5625 22.078125 6.0625 
Q 16.890625 1.078125 7.625 -6.734375 
L 3.71875 0.59375 
Q 10.640625 5.375 18.0625 12.015625 
L 18.0625 30.5625 
L 4.984375 30.5625 
L 4.984375 37.5 
z
" id="TaipeiSansTCBeta-Regular-36947"/>
      </defs>
      <use xlink:href="#TaipeiSansTCBeta-Regular-20154"/>
      <use x="100" xlink:href="#TaipeiSansTCBeta-Regular-34892"/>
      <use x="200" xlink:href="#TaipeiSansTCBeta-Regular-36947"/>
     </g>
    </g>
    <g id="patch_34">
     <path d="M 552.3 619.250767 
L 574.3 619.250767 
L 574.3 611.550767 
L 552.3 611.550767 
z
" style="fill:#55a868;stroke:#ffffff;stroke-linejoin:miter;"/>
    </g>
    <g id="text_27">
     <!-- 幾乎不步行 -->
     <g style="fill:#262626;" transform="translate(583.1 619.250767)scale(0.11 -0.11)">
      <use xlink:href="#TaipeiSansTCBeta-Regular-24190"/>
      <use x="100" xlink:href="#TaipeiSansTCBeta-Regular-20046"/>
      <use x="200" xlink:href="#TaipeiSansTCBeta-Regular-19981"/>
      <use x="300" xlink:href="#TaipeiSansTCBeta-Regular-27493"/>
      <use x="400" xlink:href="#TaipeiSansTCBeta-Regular-34892"/>
     </g>
    </g>
    <g id="patch_35">
     <path d="M 552.3 636.020611 
L 574.3 636.020611 
L 574.3 628.320611 
L 552.3 628.320611 
z
" style="fill:#c44e52;stroke:#ffffff;stroke-linejoin:miter;"/>
    </g>
    <g id="text_28">
     <!-- 磚造路 -->
     <g style="fill:#262626;" transform="translate(583.1 636.020611)scale(0.11 -0.11)">
      <use xlink:href="#TaipeiSansTCBeta-Regular-30938"/>
      <use x="100" xlink:href="#TaipeiSansTCBeta-Regular-36896"/>
      <use x="200" xlink:href="#TaipeiSansTCBeta-Regular-36335"/>
     </g>
    </g>
   </g>
  </g>
 </g>
 <defs>
  <clipPath id="pee7fcfa248">
   <rect height="296.509091" width="558" x="90" y="103.68"/>
  </clipPath>
  <clipPath id="p53f68d7fe5">
   <rect height="296.509091" width="558" x="90" y="459.490909"/>
  </clipPath>
 </defs>
</svg>
