<?xml version="1.0" encoding="UTF-8" standalone="no"?>
<svg
   xmlns:dc="http://purl.org/dc/elements/1.1/"
   xmlns:cc="http://creativecommons.org/ns#"
   xmlns:rdf="http://www.w3.org/1999/02/22-rdf-syntax-ns#"
   xmlns:svg="http://www.w3.org/2000/svg"
   xmlns="http://www.w3.org/2000/svg"
   xmlns:xlink="http://www.w3.org/1999/xlink"
   xmlns:sodipodi="http://sodipodi.sourceforge.net/DTD/sodipodi-0.dtd"
   xmlns:inkscape="http://www.inkscape.org/namespaces/inkscape"
   height="864pt"
   version="1.1"
   viewBox="0 0 788.31 864"
   width="788.31pt"
   id="svg602"
   sodipodi:docname="route_fig_fixed.svg"
   inkscape:version="1.0.2 (e86c870879, 2021-01-15)">
  <sodipodi:namedview
     pagecolor="#ffffff"
     bordercolor="#666666"
     borderopacity="1"
     objecttolerance="10"
     gridtolerance="10"
     guidetolerance="10"
     inkscape:pageopacity="0"
     inkscape:pageshadow="2"
     inkscape:window-width="1920"
     inkscape:window-height="1048"
     id="namedview604"
     showgrid="false"
     fit-margin-top="0"
     fit-margin-left="0"
     fit-margin-right="0"
     fit-margin-bottom="0"
     inkscape:zoom="0.76131432"
     inkscape:cx="489.00519"
     inkscape:cy="587.21156"
     inkscape:window-x="0"
     inkscape:window-y="32"
     inkscape:window-maximized="1"
     inkscape:current-layer="svg602" />
  <metadata
     id="metadata2">
    <rdf:RDF>
      <cc:Work>
        <dc:type
           rdf:resource="http://purl.org/dc/dcmitype/StillImage" />
        <dc:date>2021-02-22T21:17:19.278333</dc:date>
        <dc:format>image/svg+xml</dc:format>
        <dc:creator>
          <cc:Agent>
            <dc:title>Matplotlib v3.3.3, https://matplotlib.org/</dc:title>
          </cc:Agent>
        </dc:creator>
        <dc:title></dc:title>
      </cc:Work>
    </rdf:RDF>
  </metadata>
  <defs
     id="defs6">
    <style
       type="text/css"
       id="style4">*{stroke-linecap:butt;stroke-linejoin:round;}</style>
  </defs>
  <g
     id="figure_1"
     transform="translate(68.31)">
    <g
       id="patch_1">
      <path
         d="M 0,864 H 720 V 0 H 0 Z"
         style="fill:#ffffff"
         id="path8" />
    </g>
    <g
       id="axes_1">
      <g
         id="patch_2">
        <path
           d="M 90,400.18909 H 648 V 103.68 H 90 Z"
           style="fill:#eaeaf2"
           id="path11" />
      </g>
      <g
         id="matplotlib.axis_1">
        <g
           id="xtick_1">
          <g
             id="line2d_1">
            <path
               clip-path="url(#pee7fcfa248)"
               d="M 90,400.18909 V 103.68"
               style="fill:none;stroke:#ffffff;stroke-linecap:round"
               id="path14" />
          </g>
          <g
             id="text_1">
            <!-- 0.0 -->
            <g
               style="fill:#262626"
               transform="matrix(0.11,0,0,-0.11,82.373047,418.4444)"
               id="g27">
              <defs
                 id="defs19">
                <path
                   d="m 27.828125,-1.265625 q -13.671875,0 -19.421875,15.140625 -3.515625,9.171875 -3.515625,23.046875 0,27.4375 12.890625,35.15625 4.484375,2.625 10.046875,2.625 13.96875,0 19.53125,-15.515625 3.234375,-8.984375 3.234375,-22.265625 0,-26.859375 -12.21875,-35.15625 -4.6875,-3.03125 -10.546875,-3.03125 z m 0,7.21875 q 9.875,0 12.796875,16.609375 1.078125,6.25 1.078125,14.359375 0,27.34375 -11.421875,30.078125 -1.28125,0.28125 -2.453125,0.28125 -10.734375,0 -13.28125,-18.25 -0.78125,-5.375 -0.78125,-12.109375 0,-26.46875 10.546875,-30.375 1.765625,-0.59375 3.515625,-0.59375 z"
                   id="TaipeiSansTCBeta-Regular-48" />
                <path
                   d="m 13.875,-1.265625 q -4.203125,0 -5.859375,3.703125 -0.6875,1.46875 -0.6875,3.125 0,4.5 3.609375,6.453125 1.46875,0.6875 2.9375,0.6875 3.90625,0 5.859375,-3.625 0.78125,-1.65625 0.78125,-3.515625 0,-4.484375 -3.90625,-6.25 -1.375,-0.578125 -2.734375,-0.578125 z"
                   id="TaipeiSansTCBeta-Regular-46" />
              </defs>
              <use
                 xlink:href="#TaipeiSansTCBeta-Regular-48"
                 id="use21"
                 x="0"
                 y="0"
                 width="100%"
                 height="100%" />
              <use
                 x="55.46875"
                 xlink:href="#TaipeiSansTCBeta-Regular-46"
                 id="use23"
                 y="0"
                 width="100%"
                 height="100%" />
              <use
                 x="83.203125"
                 xlink:href="#TaipeiSansTCBeta-Regular-48"
                 id="use25"
                 y="0"
                 width="100%"
                 height="100%" />
            </g>
          </g>
        </g>
        <g
           id="xtick_2">
          <g
             id="line2d_2">
            <path
               clip-path="url(#pee7fcfa248)"
               d="M 196.28571,400.18909 V 103.68"
               style="fill:none;stroke:#ffffff;stroke-linecap:round"
               id="path31" />
          </g>
          <g
             id="text_2">
            <!-- 0.2 -->
            <g
               style="fill:#262626"
               transform="matrix(0.11,0,0,-0.11,188.65876,418.4444)"
               id="g43">
              <defs
                 id="defs35">
                <path
                   d="m 4.390625,0 v 5.375 q 27.25,23.828125 32.328125,39.453125 1.265625,4.09375 1.265625,7.90625 0,10.0625 -7.21875,13.28125 -2.828125,1.171875 -6.25,1.171875 -8.109375,-0.09375 -15.234375,-8.5 L 4,63.875 q 8.59375,9.46875 18.171875,10.640625 1.75,0.1875 3.421875,0.1875 12.296875,0 17.96875,-8.984375 3.3125,-5.359375 3.3125,-12.6875 0,-15.4375 -18.546875,-35.546875 -4.5,-4.890625 -10.15625,-10.25 8.875,0.671875 12,0.671875 h 20.3125 V 0 Z"
                   id="TaipeiSansTCBeta-Regular-50" />
              </defs>
              <use
                 xlink:href="#TaipeiSansTCBeta-Regular-48"
                 id="use37"
                 x="0"
                 y="0"
                 width="100%"
                 height="100%" />
              <use
                 x="55.46875"
                 xlink:href="#TaipeiSansTCBeta-Regular-46"
                 id="use39"
                 y="0"
                 width="100%"
                 height="100%" />
              <use
                 x="83.203125"
                 xlink:href="#TaipeiSansTCBeta-Regular-50"
                 id="use41"
                 y="0"
                 width="100%"
                 height="100%" />
            </g>
          </g>
        </g>
        <g
           id="xtick_3">
          <g
             id="line2d_3">
            <path
               clip-path="url(#pee7fcfa248)"
               d="M 302.57143,400.18909 V 103.68"
               style="fill:none;stroke:#ffffff;stroke-linecap:round"
               id="path47" />
          </g>
          <g
             id="text_3">
            <!-- 0.4 -->
            <g
               style="fill:#262626"
               transform="matrix(0.11,0,0,-0.11,294.94447,418.4444)"
               id="g59">
              <defs
                 id="defs51">
                <path
                   d="M 11.53125,27.546875 H 33.890625 V 50 q 0,2.046875 0.578125,13.28125 h -0.390625 q -2.4375,-4.984375 -5.859375,-10.734375 z m 40.8125,0 V 20.21875 H 42.578125 V 0 h -8.6875 v 20.21875 h -31.9375 v 5.953125 l 30.5625,47.171875 h 10.0625 V 27.546875 Z"
                   id="TaipeiSansTCBeta-Regular-52" />
              </defs>
              <use
                 xlink:href="#TaipeiSansTCBeta-Regular-48"
                 id="use53"
                 x="0"
                 y="0"
                 width="100%"
                 height="100%" />
              <use
                 x="55.46875"
                 xlink:href="#TaipeiSansTCBeta-Regular-46"
                 id="use55"
                 y="0"
                 width="100%"
                 height="100%" />
              <use
                 x="83.203125"
                 xlink:href="#TaipeiSansTCBeta-Regular-52"
                 id="use57"
                 y="0"
                 width="100%"
                 height="100%" />
            </g>
          </g>
        </g>
        <g
           id="xtick_4">
          <g
             id="line2d_4">
            <path
               clip-path="url(#pee7fcfa248)"
               d="M 408.85714,400.18909 V 103.68"
               style="fill:none;stroke:#ffffff;stroke-linecap:round"
               id="path63" />
          </g>
          <g
             id="text_4">
            <!-- 0.6 -->
            <g
               style="fill:#262626"
               transform="matrix(0.11,0,0,-0.11,401.23019,418.4444)"
               id="g75">
              <defs
                 id="defs67">
                <path
                   d="m 30.078125,5.765625 q 6.546875,0 10.0625,6.546875 2.34375,4.390625 2.34375,10.15625 0,12.78125 -8.6875,15.515625 -2.0625,0.6875 -4.5,0.6875 -8.109375,0 -14.546875,-8.6875 -0.296875,-0.390625 -0.484375,-0.6875 Q 15.625,9.46875 26.171875,6.34375 28.125,5.765625 30.078125,5.765625 Z M 49.8125,67.1875 44.828125,61.53125 q -4.6875,5.46875 -11.8125,5.5625 -12.3125,0 -16.796875,-14.453125 Q 14.265625,45.90625 14.0625,36.625 q 5.953125,7.21875 13.96875,8.59375 1.46875,0.296875 2.734375,0.296875 13.671875,0 18.359375,-11.4375 1.953125,-4.96875 1.953125,-11.609375 0,-11.921875 -7.8125,-18.75 -5.765625,-4.984375 -13.1875,-4.984375 -12.6875,0 -19.328125,11.8125 -5.1875,9.375 -5.1875,24.421875 0,26.0625 13.390625,35.4375 Q 25,74.703125 32.71875,74.703125 42.78125,74.609375 49.8125,67.1875 Z"
                   id="TaipeiSansTCBeta-Regular-54" />
              </defs>
              <use
                 xlink:href="#TaipeiSansTCBeta-Regular-48"
                 id="use69"
                 x="0"
                 y="0"
                 width="100%"
                 height="100%" />
              <use
                 x="55.46875"
                 xlink:href="#TaipeiSansTCBeta-Regular-46"
                 id="use71"
                 y="0"
                 width="100%"
                 height="100%" />
              <use
                 x="83.203125"
                 xlink:href="#TaipeiSansTCBeta-Regular-54"
                 id="use73"
                 y="0"
                 width="100%"
                 height="100%" />
            </g>
          </g>
        </g>
        <g
           id="xtick_5">
          <g
             id="line2d_5">
            <path
               clip-path="url(#pee7fcfa248)"
               d="M 515.14286,400.18909 V 103.68"
               style="fill:none;stroke:#ffffff;stroke-linecap:round"
               id="path79" />
          </g>
          <g
             id="text_5">
            <!-- 0.8 -->
            <g
               style="fill:#262626"
               transform="matrix(0.11,0,0,-0.11,507.5159,418.4444)"
               id="g91">
              <defs
                 id="defs83">
                <path
                   d="m 27.9375,-1.265625 q -12.015625,0 -18.75,7.328125 Q 4.5,11.234375 4.5,18.171875 q 0,11.03125 10.25,18.25 Q 16.3125,37.5 17.96875,38.375 v 0.5 q -9.765625,6.921875 -9.859375,16.890625 0,9.953125 7.90625,15.234375 5.171875,3.421875 12.203125,3.421875 11.71875,0 17.09375,-8.3125 3.03125,-4.78125 3.03125,-11.03125 0,-8.6875 -8.015625,-16.109375 -0.96875,-0.875 -1.84375,-1.5625 V 36.921875 Q 50.78125,29.6875 50.875,17.671875 50.875,8.40625 42.96875,3.03125 36.71875,-1.265625 27.9375,-1.265625 Z m 4.96875,41.109375 q 7.53125,6.734375 7.625,14.75 0,7.609375 -5.5625,11.234375 -3.03125,1.84375 -6.9375,1.84375 -6.9375,0 -10.0625,-5.5625 -1.5625,-2.828125 -1.5625,-6.34375 0,-7.71875 8.984375,-12.5 2.734375,-1.5625 7.515625,-3.421875 z M 28.125,5.46875 q 8.59375,0 12.3125,5.953125 1.75,2.9375 1.75,6.453125 0,7.8125 -8.78125,12.890625 -3.328125,1.953125 -10.65625,4.875 -9.46875,-7.03125 -9.953125,-16.59375 0,-7.234375 6.25,-11.140625 4,-2.4375 9.078125,-2.4375 z"
                   id="TaipeiSansTCBeta-Regular-56" />
              </defs>
              <use
                 xlink:href="#TaipeiSansTCBeta-Regular-48"
                 id="use85"
                 x="0"
                 y="0"
                 width="100%"
                 height="100%" />
              <use
                 x="55.46875"
                 xlink:href="#TaipeiSansTCBeta-Regular-46"
                 id="use87"
                 y="0"
                 width="100%"
                 height="100%" />
              <use
                 x="83.203125"
                 xlink:href="#TaipeiSansTCBeta-Regular-56"
                 id="use89"
                 y="0"
                 width="100%"
                 height="100%" />
            </g>
          </g>
        </g>
        <g
           id="xtick_6">
          <g
             id="line2d_6">
            <path
               clip-path="url(#pee7fcfa248)"
               d="M 621.42857,400.18909 V 103.68"
               style="fill:none;stroke:#ffffff;stroke-linecap:round"
               id="path95" />
          </g>
          <g
             id="text_6">
            <!-- 1.0 -->
            <g
               style="fill:#262626"
               transform="matrix(0.11,0,0,-0.11,613.80162,418.4444)"
               id="g107">
              <defs
                 id="defs99">
                <path
                   d="M 8.796875,0 V 7.625 H 25.09375 V 62.3125 H 12.109375 v 5.75 q 8.984375,1.671875 15.234375,5.28125 h 6.9375 V 7.625 h 14.75 V 0 Z"
                   id="TaipeiSansTCBeta-Regular-49" />
              </defs>
              <use
                 xlink:href="#TaipeiSansTCBeta-Regular-49"
                 id="use101"
                 x="0"
                 y="0"
                 width="100%"
                 height="100%" />
              <use
                 x="55.46875"
                 xlink:href="#TaipeiSansTCBeta-Regular-46"
                 id="use103"
                 y="0"
                 width="100%"
                 height="100%" />
              <use
                 x="83.203125"
                 xlink:href="#TaipeiSansTCBeta-Regular-48"
                 id="use105"
                 y="0"
                 width="100%"
                 height="100%" />
            </g>
          </g>
        </g>
      </g>
      <g
         id="matplotlib.axis_2">
        <g
           id="ytick_1">
          <g
             id="line2d_7">
            <path
               clip-path="url(#pee7fcfa248)"
               d="M 90,251.93455 H 648"
               style="fill:none;stroke:#ffffff;stroke-linecap:round"
               id="path112" />
          </g>
          <g
             id="text_7">
            <!-- 自行車（含自有交通工具） -->
            <g
               style="fill:#262626"
               transform="matrix(0.11,0,0,-0.11,-51.5,256.3122)"
               id="g152">
              <defs
                 id="defs126">
                <path
                   d="m 24.03125,4.78125 h 53.3125 V 19.625 h -53.3125 z m 53.3125,36.328125 H 24.03125 V 26.5625 h 53.3125 z m 0,21.875 h -53.3125 v -14.84375 h 53.3125 z M 49.125,70.125 H 84.96875 V -7.328125 h -7.625 V -2.25 H 24.03125 V -7.8125 H 16.609375 V 70.125 h 25.09375 q 2.921875,8.78125 3.90625,13.671875 l 8.5,-1.078125 Q 52.25,77.25 49.125,70.125 Z"
                   id="TaipeiSansTCBeta-Regular-33258" />
                <path
                   d="m 92.28125,77.640625 v -7.03125 H 43.453125 v 7.03125 z m -65.515625,6.046875 7.125,-2.828125 Q 25.09375,69.046875 11.71875,58.59375 9.96875,57.234375 8.296875,56.0625 5.078125,60.75 3.90625,62.015625 q 10.9375,7.328125 19.53125,17.375 1.953125,2.34375 3.328125,4.296875 z m 4.09375,-21.28125 6.9375,-2.640625 q -4.390625,-7.125 -11.03125,-15.03125 V -7.90625 H 19.4375 v 44.4375 Q 12.984375,29.984375 8.109375,26.078125 q -2.9375,4 -5.171875,6.25 13.375,9.5625 23.921875,24.125 2.25,3.015625 4,5.953125 z M 95.21875,50.296875 v -7.125 H 80.078125 v -41.3125 q 0,-5.671875 -3.125,-7.421875 Q 76.375,-5.859375 75.6875,-6.15625 71.78125,-7.328125 56.9375,-7.328125 56.453125,-4 54.5,-0.09375 q 11.421875,-0.296875 15.625,-0.109375 2.234375,0.796875 2.4375,2.15625 v 41.21875 H 39.15625 v 7.125 z"
                   id="TaipeiSansTCBeta-Regular-34892" />
                <path
                   d="M 23.140625,27.9375 H 46 v 10.25 H 23.140625 Z m 0,26.359375 V 44.140625 H 46 v 10.15625 z m 53.71875,0 h -23.34375 v -10.15625 h 23.34375 z m 0,-26.359375 v 10.25 h -23.34375 v -10.25 z M 94.828125,13.578125 V 6.9375 h -41.3125 V -7.90625 H 46 V 6.9375 H 5.5625 v 6.640625 H 46 V 21.78125 H 16.015625 V 60.546875 H 46 V 67.78125 H 8.59375 v 6.828125 H 46 v 8.984375 h 7.515625 V 74.609375 H 91.40625 V 67.78125 H 53.515625 V 60.546875 H 84.28125 V 21.78125 H 53.515625 v -8.203125 z"
                   id="TaipeiSansTCBeta-Regular-36554" />
                <path
                   d="M 89.359375,-9.578125 Q 69.53125,10.640625 69.53125,37.984375 69.625,65.53125 89.359375,85.640625 l 6.046875,-3.125 Q 76.765625,63.1875 76.765625,37.984375 76.859375,12.703125 95.40625,-6.546875 Z"
                   id="TaipeiSansTCBeta-Regular-65288" />
                <path
                   d="m 73.828125,2.828125 v 17.875 H 26.5625 v -17.875 z M 74.21875,48.921875 79.78125,46.875 Q 74.703125,36.8125 68.65625,27.34375 h 12.796875 v -35.0625 h -7.625 V -3.8125 H 26.5625 v -3.90625 h -7.21875 v 35.0625 h 40.625 q 2.828125,4.390625 8.6875,14.546875 H 17.578125 V 48.4375 H 72.75 Z m -42.1875,14.0625 h 36.140625 q -11.140625,6.9375 -18.5625,14.65625 -6.828125,-7.625 -17.578125,-14.65625 z m 13.671875,20.8125 h 7.03125 Q 65.4375,70.515625 85.640625,61.53125 91.21875,59.078125 96.484375,57.328125 94.4375,55.171875 92,51.078125 q -10.546875,4 -22.265625,11.03125 v -5.375 H 31.0625 V 62.40625 Q 20.125,55.375 8.109375,50.390625 6.25,53.8125 3.90625,56.34375 22.5625,63.1875 37.109375,75.203125 q 5.171875,4.390625 8.59375,8.59375 z"
                   id="TaipeiSansTCBeta-Regular-21547" />
                <path
                   d="m 74.703125,35.359375 v 10.15625 h -41.6875 v -10.15625 z m -41.6875,-16.90625 h 41.6875 V 28.90625 h -41.6875 z m 60.640625,45.3125 H 39.9375 Q 36.921875,57.421875 33.796875,52.25 H 82.03125 V 1.65625 q 0,-5.46875 -2.828125,-7.125 -0.6875,-0.390625 -1.375,-0.6875 -4,-1.359375 -17.46875,-1.359375 -0.390625,3.125 -2.34375,7.3125 4.578125,-0.1875 14.34375,-0.1875 2.25,0.296875 2.34375,2.046875 v 10.453125 h -41.6875 V -7.625 H 25.6875 v 48.25 Q 17.875,31.0625 8.984375,24.8125 q -1.75,2.921875 -4.6875,5.65625 Q 21.09375,41.890625 31.84375,63.765625 H 6.734375 v 7.03125 h 28.125 q 3.03125,7.8125 4.40625,12.890625 l 7.421875,-1.75 Q 44.53125,75.09375 42.78125,70.796875 h 50.875 z"
                   id="TaipeiSansTCBeta-Regular-26377" />
                <path
                   d="m 93.5625,70.703125 v -7.21875 H 6.546875 v 7.21875 H 46.09375 v 13.09375 h 7.421875 v -13.09375 z m -31.75,-14.359375 5.859375,4.5 q 17.09375,-11.625 25.6875,-20.796875 0.6875,-0.78125 1.171875,-1.375 L 87.984375,33.59375 Q 81.15625,42 65.71875,53.515625 q -2.046875,1.5625 -3.90625,2.828125 z m -29.78125,4.015625 7.421875,-2.84375 q -8.59375,-11.8125 -23.34375,-22.0625 Q 13.875,33.890625 11.8125,32.625 8.203125,36.71875 5.671875,38.484375 19.4375,45.796875 28.8125,56.34375 q 1.859375,2.0625 3.21875,4.015625 z m 32.328125,-17.09375 7.71875,-2.15625 Q 66.3125,26.265625 55.765625,15.828125 71.1875,3.609375 96.09375,-0.59375 93.5625,-3.03125 91.21875,-7.625 66.109375,-2.828125 50,10.640625 34.46875,-1.5625 8.984375,-8.015625 7.8125,-4.984375 4.59375,-1.375 4.390625,-1.078125 4.296875,-0.984375 29.984375,4.5 44.53125,15.828125 34.765625,26.265625 28.90625,40.625 l 7.125,2.15625 q 4.984375,-12.609375 14.171875,-21.984375 9.265625,9.375 14.15625,22.46875 z"
                   id="TaipeiSansTCBeta-Regular-20132" />
                <path
                   d="M 60.15625,53.03125 H 43.359375 V 44.234375 H 60.15625 Z m 24.125,-8.796875 V 53.03125 H 66.890625 V 44.234375 Z M 66.890625,29.59375 H 84.28125 v 9.078125 H 66.890625 Z m -23.53125,0 H 60.15625 v 9.078125 H 43.359375 Z m 0,-5.671875 V 7.328125 h -6.9375 V 58.6875 H 64.9375 Q 55.765625,63.28125 45.90625,67 l 4.6875,4.1875 q 4.1875,-1.453125 13.859375,-5.46875 7.71875,3.515625 13.765625,7.921875 H 36.53125 V 79.5 H 85.25 L 86.71875,79.890625 91.3125,76.375 Q 83.203125,68.75 71.09375,62.703125 71.78125,62.40625 78.8125,58.6875 H 91.40625 V 14.75 q 0,-4.6875 -2.640625,-6.15625 Q 88.375,8.40625 87.984375,8.203125 84.96875,7.125 74.515625,7.125 74.03125,10.0625 72.359375,13.1875 75,13.09375 82.625,13.09375 q 1.5625,0.1875 1.65625,1.75 v 9.078125 H 66.890625 V 7.71875 H 60.15625 v 16.203125 z m -14.0625,46.78125 -5.171875,-4.875 Q 19.828125,71.1875 10.359375,76.859375 9.375,77.4375 8.59375,77.9375 l 4.890625,4.484375 q 9.46875,-4.984375 14.84375,-10.640625 0.578125,-0.59375 0.96875,-1.078125 z m -2.828125,-19.71875 -4.984375,-5.1875 q -4.875,5.375 -15.03125,11.234375 -0.6875,0.390625 -1.28125,0.6875 l 4.6875,4.59375 q 9.375,-4.5 15.4375,-10.15625 0.6875,-0.6875 1.171875,-1.171875 z M 24.21875,37.5 V 12.203125 Q 31.25,1.765625 49.90625,0.984375 70.609375,0.296875 93.0625,1.375 94.734375,1.46875 96.09375,1.5625 94.234375,-1.5625 93.5625,-5.5625 69.140625,-6.453125 50,-5.765625 31.34375,-5.078125 22.359375,4.59375 21.78125,5.28125 21.1875,5.953125 15.234375,0 7.625,-6.84375 L 3.71875,0.296875 Q 8.890625,4 17.1875,11.625 v 18.9375 h -12.5 V 37.5 Z"
                   id="TaipeiSansTCBeta-Regular-36890" />
                <path
                   d="M 53.8125,7.421875 H 94.734375 V 0 H 5.46875 V 7.421875 H 45.703125 V 64.84375 H 10.75 v 7.515625 h 79 V 64.84375 H 53.8125 Z"
                   id="TaipeiSansTCBeta-Regular-24037" />
                <path
                   d="M 28.515625,30.078125 V 21.09375 H 72.46875 v 8.984375 z M 72.46875,72.65625 H 28.515625 v -8.5 H 72.46875 Z m 0,-28.21875 H 28.515625 V 35.75 H 72.46875 Z m 0,5.65625 V 58.5 H 28.515625 v -8.40625 z m 22.265625,-29 V 14.265625 H 5.46875 v 6.828125 h 15.921875 v 57.8125 h 58.5 v -57.8125 z m -61.828125,-7.609375 7.03125,-4.5 q -11.03125,-8.5 -27.734375,-15.71875 -1.265625,-0.5 -2.4375,-0.984375 -2.734375,3.125 -5.375,5.46875 14.0625,5.28125 24.71875,12.796875 2.234375,1.5625 3.796875,2.9375 z M 60.546875,8.6875 l 4.6875,5.078125 Q 82.328125,6.15625 95.796875,-2.15625 L 89.9375,-7.71875 Q 77.546875,0.6875 60.546875,8.6875 Z"
                   id="TaipeiSansTCBeta-Regular-20855" />
                <path
                   d="M 10.640625,85.640625 Q 30.46875,65.4375 30.46875,37.984375 30.375,10.546875 10.640625,-9.578125 L 4.59375,-6.546875 Q 23.25,12.796875 23.25,37.984375 23.140625,63.28125 4.59375,82.515625 Z"
                   id="TaipeiSansTCBeta-Regular-65289" />
              </defs>
              <use
                 xlink:href="#TaipeiSansTCBeta-Regular-33258"
                 id="use128"
                 x="0"
                 y="0"
                 width="100%"
                 height="100%" />
              <use
                 x="100"
                 xlink:href="#TaipeiSansTCBeta-Regular-34892"
                 id="use130"
                 y="0"
                 width="100%"
                 height="100%" />
              <use
                 x="200"
                 xlink:href="#TaipeiSansTCBeta-Regular-36554"
                 id="use132"
                 y="0"
                 width="100%"
                 height="100%" />
              <use
                 x="300"
                 xlink:href="#TaipeiSansTCBeta-Regular-65288"
                 id="use134"
                 y="0"
                 width="100%"
                 height="100%" />
              <use
                 x="400"
                 xlink:href="#TaipeiSansTCBeta-Regular-21547"
                 id="use136"
                 y="0"
                 width="100%"
                 height="100%" />
              <use
                 x="500"
                 xlink:href="#TaipeiSansTCBeta-Regular-33258"
                 id="use138"
                 y="0"
                 width="100%"
                 height="100%" />
              <use
                 x="600"
                 xlink:href="#TaipeiSansTCBeta-Regular-26377"
                 id="use140"
                 y="0"
                 width="100%"
                 height="100%" />
              <use
                 x="700"
                 xlink:href="#TaipeiSansTCBeta-Regular-20132"
                 id="use142"
                 y="0"
                 width="100%"
                 height="100%" />
              <use
                 x="800"
                 xlink:href="#TaipeiSansTCBeta-Regular-36890"
                 id="use144"
                 y="0"
                 width="100%"
                 height="100%" />
              <use
                 x="900"
                 xlink:href="#TaipeiSansTCBeta-Regular-24037"
                 id="use146"
                 y="0"
                 width="100%"
                 height="100%" />
              <use
                 x="1000"
                 xlink:href="#TaipeiSansTCBeta-Regular-20855"
                 id="use148"
                 y="0"
                 width="100%"
                 height="100%" />
              <use
                 x="1100"
                 xlink:href="#TaipeiSansTCBeta-Regular-65289"
                 id="use150"
                 y="0"
                 width="100%"
                 height="100%" />
            </g>
          </g>
        </g>
        <g
           id="text_8">
          <!-- 主要移動方式 -->
          <g
             style="fill:#262626"
             transform="matrix(0,-0.12,-0.12,0,-58.243125,287.93455)"
             id="g176">
            <defs
               id="defs162">
              <path
                 d="M 53.90625,2.9375 H 94.4375 V -4.390625 H 5.953125 V 2.9375 H 46 v 24.5 H 15.234375 v 7.140625 H 46 v 21.96875 H 10.640625 v 7.21875 H 54.5 Q 48.25,71.09375 37.796875,78.90625 37.59375,79 37.5,79.109375 l 5.953125,4.1875 Q 54.5,75.484375 61.03125,68.0625 q 0.5,-0.484375 0.78125,-0.875 L 57.125,63.765625 h 32.234375 v -7.21875 H 53.90625 V 34.578125 H 85.25 V 27.4375 H 53.90625 Z"
                 id="TaipeiSansTCBeta-Regular-20027" />
              <path
                 d="M 67.1875,23.25 H 36.8125 Q 32.515625,17.1875 30.5625,14.453125 40.4375,12.59375 53.90625,9.46875 62.5,14.75 67.1875,23.25 Z M 19.234375,58.203125 V 44.734375 H 34.28125 v 13.46875 z M 41.40625,72.65625 v -8.390625 h 16.109375 v 8.390625 z m 39.75,-14.453125 h -16.5 v -13.46875 h 16.5 z m -39.75,-13.46875 h 16.109375 v 13.46875 H 41.40625 Z M 95.21875,23.25 H 75.390625 Q 70.796875,13.578125 62.796875,7.328125 80.5625,2.640625 92.09375,-1.765625 l -4.5,-6.046875 Q 73.828125,-2.25 55.28125,2.640625 39.15625,-5.46875 9.1875,-7.515625 q -1.171875,4.1875 -2.84375,6.4375 25.296875,1.46875 38.390625,6.25 -9.375,2.25 -18.078125,3.90625 l -2.046875,-2.625 -7.03125,2.34375 Q 19.828125,11.625 28.21875,23.25 H 4.890625 v 6.140625 h 27.625 q 4.5,6.75 5.96875,9.1875 h -26.28125 v 25.6875 H 34.28125 V 72.65625 H 7.328125 v 6.640625 h 85.34375 V 72.65625 H 64.65625 v -8.390625 h 23.828125 v -25.6875 h -44.53125 l 2.625,-0.6875 q -1.0625,-1.75 -5.5625,-8.5 H 95.21875 Z"
                 id="TaipeiSansTCBeta-Regular-35201" />
              <path
                 d="M 95.796875,35.0625 Q 84.46875,1.953125 42.1875,-7.71875 40.828125,-4 38.375,-1.375 56.453125,2.15625 68.84375,10.640625 63.765625,15.625 54.5,21.390625 49.03125,17.875 44.734375,15.71875 q -1.859375,3.125 -4.6875,5.078125 17.46875,8.109375 26.75,21.296875 1.5625,2.140625 2.640625,4.203125 -10.75,-7.53125 -25,-11.625 Q 42.875,38.1875 40.53125,40.71875 54.59375,44.234375 64.75,51.265625 59.078125,56.9375 52.25,61.328125 46.78125,57.625 43.453125,55.859375 41.796875,58.59375 38.96875,60.75 q -0.203125,0.09375 -0.296875,0.1875 15.234375,7.328125 23.734375,20.015625 0.96875,1.375 1.65625,2.640625 l 7.421875,-1.265625 Q 70.015625,79.59375 66.5,75 h 18.171875 l 1.46875,0.296875 4.578125,-2.15625 Q 84.46875,56.9375 69.4375,46.296875 l 7.421875,-1.28125 q -2.4375,-4.1875 -5.46875,-8.09375 H 89.75 l 1.359375,0.28125 z M 20.515625,48.734375 H 5.171875 v 6.9375 h 16.3125 V 70.90625 Q 14.15625,69.4375 6.9375,68.359375 6.25,71 4.59375,74.21875 25.875,77.546875 36.234375,82.234375 L 41.40625,76.5625 q -6.25,-2.53125 -12.6875,-4 V 55.671875 h 12.5 v -6.9375 h -12.5 v -6.15625 q 4.6875,-4 12.296875,-12.203125 0.875,-0.984375 1.265625,-1.46875 L 37.796875,23.046875 Q 35.453125,27.25 28.71875,35.359375 V -7.421875 H 21.484375 V 36.8125 q -7.125,-17.375 -14.453125,-26.171875 -0.78125,2.34375 -3.703125,6.75 8.09375,8.984375 14.9375,25.578125 1.265625,3.03125 2.25,5.765625 z M 74.3125,14.84375 q 7.625,6.84375 11.921875,15.71875 H 65.71875 Q 62.796875,27.640625 59.859375,25.390625 68.84375,20.3125 74.3125,14.84375 Z m -4.390625,40.328125 q 7.03125,6.15625 11.03125,13.671875 H 61.03125 q -1.359375,-1.359375 -4,-3.703125 7.625,-4.78125 12.890625,-9.96875 z"
                 id="TaipeiSansTCBeta-Regular-31227" />
              <path
                 d="m 13.578125,30.078125 h 12.59375 v 7.328125 h -12.59375 z m 0,19.4375 V 42.28125 h 12.59375 v 7.234375 z m 32.421875,0 H 32.90625 V 42.28125 H 46 Z m 0,-19.4375 V 37.40625 H 32.90625 v -7.328125 z m 26.265625,30.46875 h 21.1875 q 0,-0.09375 -0.09375,-3.8125 Q 92.1875,12.703125 90.328125,3.125 q -0.875,-4.59375 -2.34375,-6.453125 -1.953125,-3.21875 -6.25,-3.703125 -0.1875,0 -0.390625,0 -3.90625,-0.484375 -12.109375,0 -0.390625,4 -2.140625,7.03125 5.953125,-0.484375 11.125,-0.484375 2.453125,0.09375 3.625,1.5625 2.625,3.3125 3.90625,33.203125 0.28125,8.203125 0.578125,19.234375 H 71.96875 Q 70.703125,23.921875 62.59375,8.40625 57.234375,-1.65625 48.640625,-8.109375 46.578125,-5.28125 43.0625,-2.828125 44.625,-1.765625 47.46875,0.6875 18.84375,-2.640625 5.5625,-4 L 4.5,2.546875 Q 12.984375,3.21875 26.171875,4.5 v 8.59375 H 7.328125 v 5.75 h 18.84375 v 6.0625 H 7.515625 v 29.6875 h 18.65625 V 60.9375 H 4.59375 v 5.765625 H 26.171875 V 73.34375 Q 13.28125,72.359375 7.421875,72.171875 6.84375,75.390625 5.5625,77.734375 33.890625,79.203125 48.734375,82.625 L 52.4375,76.859375 Q 45.609375,75.390625 32.90625,74.03125 V 66.703125 H 54.109375 V 60.9375 H 32.90625 v -6.34375 h 19.4375 v -29.6875 h -19.4375 v -6.0625 h 19.640625 v -5.75 H 32.90625 V 5.171875 q 6.640625,0.59375 20.03125,2.15625 V 6.84375 q 9.5625,12.984375 11.71875,38.375 0.28125,3.90625 0.484375,8.296875 h -11.71875 v 7.03125 h 11.90625 q 0.203125,7.125 0.203125,21.875 h 6.9375 q 0,-14.84375 -0.203125,-21.875 z"
                 id="TaipeiSansTCBeta-Regular-21205" />
              <path
                 d="M 94.4375,59.375 H 44.34375 q -0.5,-8.890625 -1.5625,-16.40625 H 82.625 q 0,-0.09375 -0.203125,-3.609375 Q 80.171875,7.125 76.65625,-0.875 75.6875,-2.9375 74.515625,-4.109375 71.6875,-7.03125 66.5,-7.421875 q -0.28125,0 -0.484375,0 Q 59.96875,-7.71875 49.3125,-7.125 q -0.390625,4 -2.625,7.21875 7.125,-0.6875 16.6875,-0.6875 3.625,0.109375 4.6875,1.078125 3.90625,3.421875 6.0625,28.421875 0.296875,3.328125 0.578125,7.125 h -33 Q 36.421875,9.765625 18.5625,-2.9375 14.453125,-5.765625 9.859375,-8.015625 7.71875,-4.390625 4.59375,-1.859375 25.984375,7.71875 32.515625,31.0625 35.453125,41.5 36.328125,59.375 H 5.5625 V 66.5 h 40.34375 v 17.390625 h 7.515625 V 66.5 H 94.4375 Z"
                 id="TaipeiSansTCBeta-Regular-26041" />
              <path
                 d="M 90.234375,71 84.96875,66.3125 q -4.6875,5.65625 -13.671875,12.109375 -0.296875,0.1875 -0.5,0.390625 l 4.984375,4.09375 Q 85.453125,76.375 90.234375,71 Z M 34.46875,35.84375 V 8.40625 q 16.796875,3.515625 21.390625,4.484375 l 0.6875,-6.546875 Q 32.234375,0.59375 8.59375,-4.6875 l -2.25,7.328125 Q 8.984375,3.125 15.53125,4.5 23.140625,6.0625 27.25,6.84375 v 29 H 9.375 v 7.125 h 43.84375 v -7.125 z m 59.875,21.96875 H 65.140625 Q 67.671875,23.734375 75.78125,8.296875 80.171875,0 85.25,-0.09375 q 3.234375,0 4.203125,12.109375 0.203125,2.921875 0.390625,6.640625 2.640625,-2.546875 6.546875,-4 Q 95.21875,-1.265625 91.21875,-5.375 88.875,-7.8125 84.671875,-7.8125 q -15.625,0 -22.953125,34.1875 -2.828125,13.5625 -4.203125,31.4375 H 5.859375 v 7.328125 H 57.03125 Q 56.734375,71 56.546875,83.109375 v 0.09375 h 7.71875 q 0,-8.390625 0.484375,-18.0625 h 29.59375 z"
                 id="TaipeiSansTCBeta-Regular-24335" />
            </defs>
            <use
               xlink:href="#TaipeiSansTCBeta-Regular-20027"
               id="use164"
               x="0"
               y="0"
               width="100%"
               height="100%" />
            <use
               x="100"
               xlink:href="#TaipeiSansTCBeta-Regular-35201"
               id="use166"
               y="0"
               width="100%"
               height="100%" />
            <use
               x="200"
               xlink:href="#TaipeiSansTCBeta-Regular-31227"
               id="use168"
               y="0"
               width="100%"
               height="100%" />
            <use
               x="300"
               xlink:href="#TaipeiSansTCBeta-Regular-21205"
               id="use170"
               y="0"
               width="100%"
               height="100%" />
            <use
               x="400"
               xlink:href="#TaipeiSansTCBeta-Regular-26041"
               id="use172"
               y="0"
               width="100%"
               height="100%" />
            <use
               x="500"
               xlink:href="#TaipeiSansTCBeta-Regular-24335"
               id="use174"
               y="0"
               width="100%"
               height="100%" />
          </g>
        </g>
      </g>
      <g
         id="patch_3">
        <path
           clip-path="url(#pee7fcfa248)"
           d="M 90,326.06182 H 263.41353 V 177.80727 H 90 Z"
           style="fill:#4c72b0;stroke:#ffffff;stroke-linejoin:miter"
           id="path180" />
      </g>
      <g
         id="patch_4">
        <path
           clip-path="url(#pee7fcfa248)"
           d="M 263.41353,326.06182 H 587.86466 V 177.80727 H 263.41353 Z"
           style="fill:#dd8452;stroke:#ffffff;stroke-linejoin:miter"
           id="path183" />
      </g>
      <g
         id="patch_5">
        <path
           clip-path="url(#pee7fcfa248)"
           d="m 587.86466,326.06182 h 27.96993 V 177.80727 h -27.96993 z"
           style="fill:#55a868;stroke:#ffffff;stroke-linejoin:miter"
           id="path186" />
      </g>
      <g
         id="patch_6">
        <path
           clip-path="url(#pee7fcfa248)"
           d="m 90,326.06182 v 0 -148.25455 0 z"
           style="fill:#c44e52;stroke:#ffffff;stroke-linejoin:miter"
           id="path189" />
      </g>
      <g
         id="patch_7">
        <path
           clip-path="url(#pee7fcfa248)"
           d="m 615.83459,326.06182 h 5.59398 V 177.80727 h -5.59398 z"
           style="fill:#8172b3;stroke:#ffffff;stroke-linejoin:miter"
           id="path192" />
      </g>
      <g
         id="patch_8">
        <path
           d="M 90,400.18909 V 103.68"
           style="fill:none;stroke:#ffffff;stroke-width:1.25;stroke-linecap:square;stroke-linejoin:miter"
           id="path195" />
      </g>
      <g
         id="patch_9">
        <path
           d="M 648,400.18909 V 103.68"
           style="fill:none;stroke:#ffffff;stroke-width:1.25;stroke-linecap:square;stroke-linejoin:miter"
           id="path198" />
      </g>
      <g
         id="patch_10">
        <path
           d="M 90,400.18909 H 648"
           style="fill:none;stroke:#ffffff;stroke-width:1.25;stroke-linecap:square;stroke-linejoin:miter"
           id="path201" />
      </g>
      <g
         id="patch_11">
        <path
           d="M 90,103.68 H 648"
           style="fill:none;stroke:#ffffff;stroke-width:1.25;stroke-linecap:square;stroke-linejoin:miter"
           id="path204" />
      </g>
      <g
         id="text_9">
        <!-- 在騎乘交通工具時的路線選擇 -->
        <g
           style="fill:#262626"
           transform="matrix(0.12,0,0,-0.12,291,97.68)"
           id="g244">
          <defs
             id="defs216">
            <path
               d="m 67.09375,29.78125 v -28.125 h 26.359375 v -6.9375 H 33.40625 v 6.9375 h 26.265625 v 28.125 H 37.3125 V 36.8125 H 59.671875 V 55.859375 H 67.09375 V 36.8125 h 22.5625 V 29.78125 Z M 42,68.171875 h 51.453125 v -7.03125 H 38.96875 Q 33.40625,49.703125 26.859375,40.71875 V -7.328125 H 19.625 V 31.9375 Q 14.65625,26.5625 8.015625,21.78125 6.9375,24.90625 4.203125,28.515625 20.3125,40.046875 30.5625,61.140625 H 6.640625 v 7.03125 h 27.25 q 3.03125,7.125 5.265625,15.515625 l 7.625,-1.84375 Q 45.3125,76.5625 42,68.171875 Z"
               id="TaipeiSansTCBeta-Regular-22312" />
            <path
               d="M 93.453125,51.078125 88.875,46 q -6.75,5.375 -19.25,12.984375 -5.859375,-9.171875 -20.40625,-13.375 -1.078125,2.734375 -3.515625,4.984375 -0.09375,0.09375 -0.1875,0.1875 13.375,3.609375 18.0625,11.71875 1.359375,2.34375 2.25,5.078125 h -18.5625 v 6.25 H 67.1875 q 0.484375,3.21875 0.875,9.671875 H 75 q -0.390625,-6.546875 -0.78125,-9.671875 h 19.734375 v -6.25 H 73.046875 Q 72.65625,66.109375 71.96875,64.453125 86.421875,56.25 93.453125,51.078125 Z M 8.5,-1.765625 4.296875,0.09375 Q 7.125,9.859375 8.203125,22.171875 l 4.109375,-1.375 Q 10.84375,6.34375 8.5,-1.765625 Z M 15.046875,20.703125 18.5625,21.1875 Q 20.21875,11.03125 20.125,3.03125 L 16.21875,2.4375 q 0.390625,7.71875 -1.171875,18.265625 z M 14.65625,42.96875 v -9.375 h 9.765625 v 9.375 z M 24.421875,73.4375 H 14.65625 v -9.078125 h 9.765625 z m 0,-24.515625 V 58.40625 H 14.65625 v -9.484375 z m 5.75,-15.328125 H 43.5625 q 0,-0.09375 -0.203125,-3.125 Q 42.09375,2.828125 39.84375,-2.546875 39.359375,-3.71875 38.765625,-4.390625 36.71875,-6.9375 33.59375,-7.125 q -3.125,-0.296875 -8.78125,0 -0.203125,3.40625 -1.5625,6.046875 3.515625,-0.390625 7.8125,-0.390625 1.953125,0.09375 2.734375,1.171875 1.5625,2.0625 2.53125,11.921875 l -3.3125,-1.46875 q -1.671875,6.734375 -5.1875,13.1875 l 3.234375,1.171875 q 4.09375,-7.515625 5.265625,-12.5 0.390625,4 1.078125,15.53125 H 8.796875 V 79.5 h 33.6875 v -6.0625 h -12.3125 V 64.359375 H 40.53125 V 58.40625 H 30.171875 V 48.921875 H 40.53125 V 42.96875 H 30.171875 Z M 28.90625,6.546875 25.09375,5.5625 Q 24.421875,12.5 21.484375,21.578125 L 25,22.359375 q 2.9375,-7.8125 3.90625,-15.8125 z m 39.75,19.046875 H 56.9375 V 14.0625 H 68.65625 Z M 74.703125,8.5 H 56.9375 V 1.859375 H 50.984375 V 31.15625 h 23.71875 z m 21.09375,35.640625 V 37.59375 h -6.34375 V 0.484375 q 0,-4.875 -2.53125,-6.4375 Q 86.328125,-6.25 85.75,-6.546875 82.421875,-7.71875 71.484375,-7.71875 q -0.578125,2.828125 -2.640625,6.734375 8.5,-0.28125 11.53125,-0.09375 1.859375,0.390625 1.953125,1.671875 v 37 h -38.1875 v 6.546875 z"
               id="TaipeiSansTCBeta-Regular-39438" />
            <path
               d="m 64.15625,53.328125 h 6.9375 V 43.0625 q 7.125,2.640625 14.15625,6.359375 l 4.59375,-5.46875 q -8.890625,-3.90625 -18.75,-6.9375 V 28.90625 q 0,-2.140625 1.265625,-2.4375 0.6875,-0.203125 2.0625,-0.203125 h 9.859375 q 1.953125,0 2.4375,1.765625 0.484375,1.46875 0.59375,5.65625 2.53125,-1.953125 6.25,-2.53125 Q 92.78125,22.75 89.65625,20.90625 87.890625,19.921875 85.0625,19.921875 H 73.640625 Q 67,19.921875 65.234375,22.75 64.15625,24.8125 64.15625,28.90625 Z m -56.046875,-31.75 -1.46875,6.453125 q 1.46875,0.1875 21.96875,3.3125 v 8.796875 H 9.46875 V 46.1875 h 19.140625 v 6.9375 h 6.9375 V 20.796875 h -6.9375 v 4.59375 z m 45.609375,34.375 v -22.84375 q 8.09375,-13.375 23.625,-23.046875 9.1875,-5.671875 18.65625,-8.5 -2.4375,-2.34375 -4.890625,-6.15625 -18.0625,6.25 -32.125,21.390625 -2.828125,3.125 -5.265625,6.34375 v -30.65625 h -7.625 V 22.5625 Q 33.6875,6.546875 15.046875,-1.765625 11.8125,-3.125 8.59375,-4.203125 6.25,-0.296875 3.8125,1.953125 q 17.96875,5.078125 32.03125,18.5625 6.25,5.953125 10.25,12.5 v 22.9375 H 6.734375 v 6.84375 H 46.09375 v 9.171875 q -15.71875,-1.171875 -31.25,-1.453125 -0.296875,2.734375 -1.75,6.25 43.84375,1.453125 66.890625,6.140625 0.484375,0.109375 0.875,0.203125 L 84.28125,76.5625 q -12.3125,-2.4375 -30.5625,-4 V 62.796875 H 93.0625 v -6.84375 z"
               id="TaipeiSansTCBeta-Regular-20056" />
            <path
               d="M 29.296875,70.40625 H 14.84375 V 48.25 H 29.296875 Z M 14.84375,18.5625 H 29.296875 V 41.703125 H 14.84375 Z M 36.328125,77.15625 V 11.921875 H 14.84375 V 3.8125 H 8.015625 v 73.34375 z m 8.203125,-56.0625 5.953125,3.421875 q 8.015625,-7.8125 12.3125,-15.625 0.390625,-0.78125 0.6875,-1.375 l -6.25,-4 q -3.71875,7.71875 -11.4375,16.21875 -0.671875,0.78125 -1.265625,1.359375 z m 51.5625,24.8125 H 83.40625 V 34.578125 H 95.015625 V 28.03125 H 83.40625 V 1.171875 q 0,-5.765625 -3.515625,-7.328125 Q 79.5,-6.25 79.296875,-6.34375 75.78125,-7.515625 63.09375,-7.515625 62.5,-3.609375 60.75,-0.59375 70.515625,-0.875 74.03125,-0.6875 75.984375,0 76.171875,1.265625 V 28.03125 H 38.375 v 6.546875 H 76.171875 V 45.90625 h -38.28125 v 6.640625 h 25.09375 v 12.6875 H 42.1875 V 71.78125 H 62.984375 V 83.6875 H 70.3125 V 71.78125 H 91.796875 V 65.234375 H 70.3125 v -12.6875 h 25.78125 z"
               id="TaipeiSansTCBeta-Regular-26178" />
            <path
               d="M 36.8125,40.140625 V 61.03125 H 15.828125 V 40.140625 Z M 15.828125,9.46875 H 36.8125 V 33.5 H 15.828125 Z m 8.390625,74.421875 8.015625,-1.46875 q -3.125,-9.171875 -5.28125,-14.75 H 43.5625 V 2.828125 H 15.828125 v -7.90625 h -6.84375 v 72.75 H 20.21875 q 3.125,10.265625 4,16.21875 z M 92.484375,67.96875 v -3.8125 q -1.65625,-47.0625 -3.90625,-58.296875 -1.171875,-5.375 -2.9375,-7.515625 -2.734375,-3.515625 -7.515625,-4.015625 -0.296875,0 -0.390625,0 Q 73.4375,-6.15625 62.890625,-5.5625 62.5,-1.765625 60.359375,1.65625 q 6.53125,-0.578125 14.84375,-0.578125 2.921875,0.09375 4.09375,1.5625 3.328125,3.515625 4.78125,28.8125 0.6875,11.21875 1.28125,29.6875 H 59.96875 Q 55.078125,49.609375 50.59375,43.5625 49.125,44.921875 44.53125,47.75 54.203125,60.359375 59.765625,84.078125 l 7.125,-1.65625 q -1.75,-7.21875 -4.296875,-14.453125 z M 76.65625,23.046875 l -6.25,-3.90625 Q 65.828125,28.03125 55.171875,42.1875 l 5.859375,3.421875 q 10.84375,-13.96875 15.625,-22.5625 z"
               id="TaipeiSansTCBeta-Regular-30340" />
            <path
               d="M 54.59375,28.421875 H 84.375 Q 77.046875,32.8125 69.625,40.234375 62.796875,33.5 54.59375,28.421875 Z m 2.4375,-25.6875 h 25 V 21.875 h -25 z M 42.390625,34.578125 V 29.78125 Q 55.171875,35.25 65.046875,45.40625 60.0625,51.375 55.765625,59.078125 51.5625,52.640625 46.6875,47.5625 43.84375,50.390625 41.5,51.953125 V 49.03125 H 29.984375 V 34.578125 Z m -26.5625,38.46875 V 55.46875 h 18.75 V 73.046875 Z M 79.5,67 H 60.359375 L 59.375,65.140625 Q 63.765625,56.734375 69.34375,50.09375 75.6875,57.8125 79.5,67 Z m 4.578125,6.828125 4.59375,-2.140625 Q 84.078125,57.234375 74.125,45.125 q 10.453125,-10.0625 22.75,-14.75 -2.53125,-2.4375 -4.59375,-6.0625 -0.578125,0.296875 -1.75,0.78125 -0.984375,0.390625 -1.46875,0.59375 V -7.234375 h -7.03125 v 3.328125 h -25 v -3.609375 h -6.9375 V 25.78125 q -1.265625,-0.578125 -5.953125,-2.734375 -1.078125,2.25 -3.609375,4.984375 H 29.984375 V 10.0625 Q 34.375,11.03125 43.0625,13.1875 L 43.84375,6.546875 Q 38.875,5.375 29,2.9375 12.203125,-1.171875 5.46875,-2.828125 L 4.109375,4.390625 9.1875,5.46875 v 34.1875 h 6.34375 V 6.84375 l 7.71875,1.75 v 40.4375 H 9.1875 V 79.5 H 41.5 V 53.03125 q 11.828125,11.234375 17.78125,29.59375 0.1875,0.578125 0.296875,1.0625 l 7.125,-1.65625 q -0.6875,-2.046875 -3.21875,-8.5 H 82.8125 Z"
               id="TaipeiSansTCBeta-Regular-36335" />
            <path
               d="M 9.1875,26.953125 15.53125,25.875 Q 13.09375,9.578125 8.59375,0.484375 q -1.75,1.375 -5.46875,2.734375 4.109375,8.015625 6.0625,23.734375 z m 25,8.015625 -7.921875,-0.5 V -7.625 h -6.53125 V 34.078125 L 4,33.109375 3.328125,39.84375 10.15625,40.140625 q 4.6875,6.046875 6.25,8.296875 Q 11.8125,55.375 4,62.890625 l 4.015625,4.6875 Q 11.03125,64.84375 11.03125,64.84375 15.625,72.75 19.921875,83.59375 L 26.375,81.15625 q -6.75,-13.671875 -11.4375,-20.515625 2.546875,-2.625 5.375,-6.4375 5.375,8.109375 10.640625,18.0625 l 6.25,-2.828125 Q 25.984375,51.5625 17.1875,40.53125 l 14.453125,0.6875 Q 29.78125,45.125 27.15625,49.609375 l 5.359375,2.15625 Q 39.15625,41.5 42,32.125 42.09375,31.734375 42.1875,31.34375 L 36.328125,28.609375 Q 35.75,31.0625 34.1875,34.96875 Z m -4.5,-9.375 5.46875,1.65625 q 4.109375,-9.078125 5.375,-17.78125 l -5.859375,-1.75 q -0.875,8.78125 -4.984375,17.875 z m 28.03125,4.296875 4.09375,-1.5625 q -4.96875,-22.375 -20.890625,-31.75 -0.203125,-0.09375 -0.296875,-0.1875 -1.953125,3.015625 -4.6875,5.078125 12.109375,6.34375 17.484375,20.796875 0.1875,0.59375 0.390625,1.171875 H 40.328125 v 6.34375 h 16.3125 z M 50.78125,53.125 V 44.4375 H 84.375 v 8.6875 z m 0,14.265625 v -8.59375 H 84.375 v 8.59375 z m 38.1875,-33.40625 6.046875,-4.390625 q -7.90625,-7.234375 -15.421875,-12.5 7.125,-10.0625 17.578125,-14.546875 -2.9375,-3.234375 -4.5,-6.0625 Q 78.515625,3.8125 70.90625,20.703125 V 0.296875 q 0,-4.890625 -2.453125,-6.359375 -0.484375,-0.1875 -0.875,-0.390625 -2.921875,-1.0625 -12.6875,-1.0625 -0.390625,3.21875 -1.953125,6.4375 7.609375,-0.1875 9.5625,0 1.46875,0.390625 1.5625,1.375 V 38.28125 H 44.046875 V 73.4375 h 16.3125 q 2.734375,5.953125 4,10.359375 l 8.203125,-1.5625 Q 71.875,80.671875 67.96875,73.4375 H 91.5 V 38.28125 H 70.90625 v -1.265625 q 2.046875,-8.296875 5.65625,-14.9375 6.734375,5.5625 12.40625,11.90625 z"
               id="TaipeiSansTCBeta-Regular-32218" />
            <path
               d="M 53.03125,35.640625 V 26.375 h 16.3125 v 9.265625 z M 94.625,26.375 V 20.609375 H 28.328125 V 26.375 H 46 v 9.265625 H 32.328125 V 41.40625 H 46 v 7.125 h 7.03125 v -7.125 h 16.3125 v 7.125 H 76.375 v -7.125 h 14.25 V 35.640625 H 76.375 V 26.375 Z M 93.84375,7.625 86.625,4.296875 q -7.90625,6.34375 -20.40625,12.5 l 5.265625,3.421875 Q 85.84375,13.578125 93.84375,7.625 Z m -43.546875,12.5 6.734375,-2.25 Q 49.3125,10.75 35.9375,4.203125 33.5,6.734375 30.375,8.796875 43.75,14.15625 50.296875,20.125 Z M 84.96875,74.703125 H 70.40625 V 67.96875 h 14.5625 z M 86.625,50.296875 H 73.4375 q -6.734375,0 -8.390625,2.53125 -1.078125,1.765625 -1.078125,5.375 V 79.78125 H 91.609375 V 62.890625 H 70.40625 v -4.59375 q 0,-2.046875 1.171875,-2.4375 0.890625,-0.1875 2.640625,-0.1875 h 11.625 q 2.140625,0 2.640625,1.5625 0.28125,1.0625 0.484375,3.703125 2.34375,-1.5625 5.46875,-2.140625 -0.59375,-6.453125 -3.71875,-7.8125 -1.5625,-0.6875 -4.09375,-0.6875 z M 51.953125,74.703125 H 37.59375 V 67.96875 h 14.359375 z m 0.875,-24.40625 H 40.53125 q -6.546875,0 -8.109375,2.34375 -1.078125,1.75 -1.078125,5.46875 V 79.78125 H 58.296875 V 62.890625 H 37.59375 v -4.6875 q 0,-2.046875 1.171875,-2.34375 0.78125,-0.1875 2.453125,-0.1875 h 10.9375 q 2.046875,0 2.4375,1.5625 0.296875,1.0625 0.484375,3.40625 Q 56.9375,59.28125 60.546875,58.40625 59.96875,52.25 56.84375,50.875 55.28125,50.296875 52.828125,50.296875 Z M 28.90625,70.703125 23.734375,65.921875 Q 19.625,71.296875 9.96875,77.25 9.1875,77.734375 8.5,78.125 l 4.875,4.296875 Q 23.921875,76.46875 28.71875,71 28.8125,70.796875 28.90625,70.703125 Z M 25.984375,50.78125 21.09375,45.703125 q -4.6875,5.375 -14.359375,10.84375 -0.96875,0.578125 -1.75,0.96875 l 4.6875,4.59375 q 10.34375,-5.171875 15.625,-10.546875 0.390625,-0.484375 0.6875,-0.78125 z M 23.640625,37.5 V 12.109375 Q 30.5625,1.5625 49.421875,0.875 68.0625,0.09375 92.390625,1.265625 94.53125,1.375 96.296875,1.46875 q -1.671875,-3.03125 -2.25,-6.9375 -23.4375,-0.984375 -44.53125,-0.296875 -19.046875,0.6875 -28.125,10.9375 -0.390625,0.5 -0.6875,0.78125 -6.25,-6.4375 -13.078125,-12.796875 l -3.90625,6.9375 q 5.75,4.296875 12.984375,11.328125 v 19.25 H 4.59375 V 37.5 Z"
               id="TaipeiSansTCBeta-Regular-36984" />
            <path
               d="m 33.796875,41.609375 0.96875,-6.9375 L 23.921875,31.0625 V 0.984375 q 0,-5.578125 -3.125,-7.234375 -0.1875,-0.09375 -0.28125,-0.09375 -3.328125,-1.375 -12.40625,-1.28125 -0.6875,3.625 -2.25,6.84375 7.328125,-0.203125 9.46875,0 Q 16.890625,-0.296875 17,0.984375 V 28.90625 L 5.078125,25 3.21875,32.234375 Q 4.59375,32.625 17,36.328125 V 56.84375 H 4.5 v 6.734375 H 17 V 83.59375 h 6.921875 V 63.578125 h 10.65625 V 56.84375 H 23.921875 V 38.375 q 2.15625,0.59375 6.25,2.0625 2.453125,0.78125 3.625,1.171875 z M 74.90625,24.125 72.5625,24.8125 q 2.828125,5.46875 4.09375,8.78125 H 54 q 2.9375,-5.5625 3.625,-8.6875 L 54.78125,24.125 Z M 60.640625,74.21875 V 63.671875 h 9.875 V 74.21875 Z M 54.59375,63.671875 V 74.21875 H 45.125 V 63.671875 Z m 21.875,10.546875 V 63.671875 H 86.625 V 74.21875 Z M 95.796875,39.453125 V 33.59375 H 82.71875 L 84.1875,33.203125 Q 80.671875,26.859375 78.90625,24.125 H 94.4375 v -5.859375 h -25.875 v -7.03125 h 23.625 V 5.375 H 68.5625 V -8.40625 H 61.625 V 5.375 H 38.1875 v 5.859375 H 61.625 v 7.03125 H 36.140625 V 24.125 h 14.84375 Q 50,27.9375 47.46875,32.625 l 4.09375,0.96875 H 35.15625 v 5.859375 H 61.625 v 7.125 H 40.140625 V 52.25 H 61.625 v 6.15625 H 38.96875 v 21.1875 h 53.8125 V 58.40625 H 68.5625 V 52.25 H 90.921875 V 46.578125 H 68.5625 v -7.125 z"
               id="TaipeiSansTCBeta-Regular-25799" />
          </defs>
          <use
             xlink:href="#TaipeiSansTCBeta-Regular-22312"
             id="use218"
             x="0"
             y="0"
             width="100%"
             height="100%" />
          <use
             x="100"
             xlink:href="#TaipeiSansTCBeta-Regular-39438"
             id="use220"
             y="0"
             width="100%"
             height="100%" />
          <use
             x="200"
             xlink:href="#TaipeiSansTCBeta-Regular-20056"
             id="use222"
             y="0"
             width="100%"
             height="100%" />
          <use
             x="300"
             xlink:href="#TaipeiSansTCBeta-Regular-20132"
             id="use224"
             y="0"
             width="100%"
             height="100%" />
          <use
             x="400"
             xlink:href="#TaipeiSansTCBeta-Regular-36890"
             id="use226"
             y="0"
             width="100%"
             height="100%" />
          <use
             x="500"
             xlink:href="#TaipeiSansTCBeta-Regular-24037"
             id="use228"
             y="0"
             width="100%"
             height="100%" />
          <use
             x="600"
             xlink:href="#TaipeiSansTCBeta-Regular-20855"
             id="use230"
             y="0"
             width="100%"
             height="100%" />
          <use
             x="700"
             xlink:href="#TaipeiSansTCBeta-Regular-26178"
             id="use232"
             y="0"
             width="100%"
             height="100%" />
          <use
             x="800"
             xlink:href="#TaipeiSansTCBeta-Regular-30340"
             id="use234"
             y="0"
             width="100%"
             height="100%" />
          <use
             x="900"
             xlink:href="#TaipeiSansTCBeta-Regular-36335"
             id="use236"
             y="0"
             width="100%"
             height="100%" />
          <use
             x="1000"
             xlink:href="#TaipeiSansTCBeta-Regular-32218"
             id="use238"
             y="0"
             width="100%"
             height="100%" />
          <use
             x="1100"
             xlink:href="#TaipeiSansTCBeta-Regular-36984"
             id="use240"
             y="0"
             width="100%"
             height="100%" />
          <use
             x="1200"
             xlink:href="#TaipeiSansTCBeta-Regular-25799"
             id="use242"
             y="0"
             width="100%"
             height="100%" />
        </g>
      </g>
      <g
         id="legend_1">
        <g
           id="patch_12">
          <path
             d="m 97.7,196.32922 h 90.2 q 2.2,0 2.2,-2.2 V 111.38 q 0,-2.2 -2.2,-2.2 H 97.7 q -2.2,0 -2.2,2.2 v 82.74922 q 0,2.2 2.2,2.2 z"
             style="opacity:0.8;fill:#eaeaf2;stroke:#cccccc;stroke-linejoin:miter"
             id="path247" />
        </g>
        <g
           id="patch_13">
          <path
             d="m 99.9,122.33531 h 22 v -7.7 h -22 z"
             style="fill:#4c72b0;stroke:#ffffff;stroke-linejoin:miter"
             id="path250" />
        </g>
        <g
           id="text_10">
          <!-- 主線中 -->
          <g
             style="fill:#262626"
             transform="matrix(0.11,0,0,-0.11,130.7,122.33531)"
             id="g262">
            <defs
               id="defs254">
              <path
                 d="m 53.609375,32.125 h 28.71875 v 26.46875 h -28.71875 z m -36.328125,0 h 28.625 v 26.46875 h -28.625 z M 53.609375,65.921875 H 89.9375 V 19.140625 H 82.328125 V 24.8125 H 53.609375 V -7.625 H 45.90625 v 32.4375 h -28.625 v -6.25 h -7.3125 v 47.359375 h 35.9375 V 83.6875 h 7.703125 z"
                 id="TaipeiSansTCBeta-Regular-20013" />
            </defs>
            <use
               xlink:href="#TaipeiSansTCBeta-Regular-20027"
               id="use256"
               x="0"
               y="0"
               width="100%"
               height="100%" />
            <use
               x="100"
               xlink:href="#TaipeiSansTCBeta-Regular-32218"
               id="use258"
               y="0"
               width="100%"
               height="100%" />
            <use
               x="200"
               xlink:href="#TaipeiSansTCBeta-Regular-20013"
               id="use260"
               y="0"
               width="100%"
               height="100%" />
          </g>
        </g>
        <g
           id="patch_14">
          <path
             d="m 99.9,139.10516 h 22 v -7.7 h -22 z"
             style="fill:#dd8452;stroke:#ffffff;stroke-linejoin:miter"
             id="path265" />
        </g>
        <g
           id="text_11">
          <!-- 主線右 -->
          <g
             style="fill:#262626"
             transform="matrix(0.11,0,0,-0.11,130.7,139.10516)"
             id="g277">
            <defs
               id="defs269">
              <path
                 d="M 78.609375,31.453125 H 34.28125 V 4.984375 h 44.328125 z m 14.84375,26.453125 h -51.84375 q -4.5,-11.515625 -9.1875,-19.421875 h 53.8125 v -45.8125 h -7.625 V -2.15625 H 34.28125 V -7.8125 H 26.953125 V 30.28125 Q 18.65625,19.234375 8.5,11.921875 6.640625,14.65625 3.609375,17.78125 q 19.25,13.171875 29.984375,40.125 h -26.75 v 7.234375 H 36.328125 Q 39.65625,75.59375 41.3125,83.6875 l 7.71875,-1.359375 q -2.25,-9.375 -4.796875,-17.1875 h 49.21875 z"
                 id="TaipeiSansTCBeta-Regular-21491" />
            </defs>
            <use
               xlink:href="#TaipeiSansTCBeta-Regular-20027"
               id="use271"
               x="0"
               y="0"
               width="100%"
               height="100%" />
            <use
               x="100"
               xlink:href="#TaipeiSansTCBeta-Regular-32218"
               id="use273"
               y="0"
               width="100%"
               height="100%" />
            <use
               x="200"
               xlink:href="#TaipeiSansTCBeta-Regular-21491"
               id="use275"
               y="0"
               width="100%"
               height="100%" />
          </g>
        </g>
        <g
           id="patch_15">
          <path
             d="m 99.9,155.875 h 22 v -7.7 h -22 z"
             style="fill:#55a868;stroke:#ffffff;stroke-linejoin:miter"
             id="path280" />
        </g>
        <g
           id="text_12">
          <!-- 主線左 -->
          <g
             style="fill:#262626"
             transform="matrix(0.11,0,0,-0.11,130.7,155.875)"
             id="g292">
            <defs
               id="defs284">
              <path
                 d="m 63.375,2.4375 h 31.15625 v -7.21875 h -71 V 2.4375 H 55.953125 V 32.328125 H 33.6875 V 38.96875 Q 24.21875,13.375 8.203125,-1.65625 6.25,1.171875 3.328125,4.109375 22.65625,21.78125 32.125,58.5 h -25 v 7.21875 h 26.671875 q 2.046875,9.875 3.3125,17.875 l 7.71875,-0.875 Q 43.0625,72.65625 41.5,65.71875 H 92.671875 V 58.5 H 39.75 Q 37.703125,49.8125 33.890625,39.453125 h 56.25 v -7.125 H 63.375 Z"
                 id="TaipeiSansTCBeta-Regular-24038" />
            </defs>
            <use
               xlink:href="#TaipeiSansTCBeta-Regular-20027"
               id="use286"
               x="0"
               y="0"
               width="100%"
               height="100%" />
            <use
               x="100"
               xlink:href="#TaipeiSansTCBeta-Regular-32218"
               id="use288"
               y="0"
               width="100%"
               height="100%" />
            <use
               x="200"
               xlink:href="#TaipeiSansTCBeta-Regular-24038"
               id="use290"
               y="0"
               width="100%"
               height="100%" />
          </g>
        </g>
        <g
           id="patch_16">
          <path
             d="m 99.9,172.64484 h 22 v -7.7 h -22 z"
             style="fill:#c44e52;stroke:#ffffff;stroke-linejoin:miter"
             id="path295" />
        </g>
        <g
           id="text_13">
          <!-- 幾乎不騎乘 -->
          <g
             style="fill:#262626"
             transform="matrix(0.11,0,0,-0.11,130.7,172.64484)"
             id="g313">
            <defs
               id="defs301">
              <path
                 d="m 7.90625,40.921875 -1.171875,6.25 q 1.953125,0 6.9375,0.1875 2.546875,2.734375 6.9375,8.109375 -5.28125,5.859375 -13.28125,11.8125 l 3.703125,4.40625 q 2.25,-1.5625 3.90625,-2.84375 4.796875,7.53125 7.53125,14.171875 l 5.953125,-2.84375 Q 20.515625,67.96875 18.65625,65.625 q 2.25,-1.859375 5.65625,-5.265625 4.5,6.046875 9.1875,13.671875 l 5.859375,-2.84375 q -9.375,-13.171875 -18.75,-23.625 2.046875,0.09375 6.4375,0.296875 5.671875,0.28125 8.5,0.390625 -0.875,1.84375 -2.921875,5.265625 -0.984375,1.765625 -1.46875,2.546875 l 5.171875,1.953125 Q 42.1875,49.03125 45.21875,40.921875 L 39.84375,38.375 q -0.1875,0.6875 -1.859375,4.40625 Q 33.796875,42.484375 25.6875,42 13.09375,41.3125 7.90625,40.921875 Z m 70.90625,-14.9375 6.546875,-2.84375 q -6.0625,-9.265625 -16.125,-16.5 6.546875,-7.125 14.359375,-7.234375 3.515625,0 4.890625,4.015625 0.96875,3.125 1.453125,9.953125 Q 92.875,10.84375 95.90625,9.859375 94.4375,-2.046875 90.828125,-5.28125 88.28125,-7.515625 83.296875,-7.515625 71.484375,-7.421875 63.09375,2.640625 52.34375,-3.8125 39.453125,-7.8125 37.3125,-4.109375 35.0625,-1.765625 q 13.28125,3.625 24.015625,9.875 -4.578125,7.609375 -8,19.140625 h -21.09375 q -0.6875,-3.8125 -1.765625,-8.109375 L 30.671875,21.1875 Q 41.21875,14.15625 47.359375,8.5 L 42.390625,3.8125 Q 37.3125,8.890625 27.34375,16.109375 21.96875,-0.296875 9.28125,-7.71875 7.125,-4.59375 4.6875,-2.546875 19.046875,5.375 22.5625,27.25 h -17 V 33.5 H 49.421875 Q 44.4375,55.078125 44.234375,83.59375 H 51.5625 Q 51.46875,54.984375 56.84375,33.5 h 19.921875 q -4.6875,4 -9.28125,6.734375 L 71.875,43.84375 57.8125,42.671875 56.640625,48.828125 61.8125,49.03125 q 3.515625,4 6.640625,7.90625 Q 62.5,62.890625 55.171875,67.875 l 3.515625,4.390625 q 1.171875,-0.78125 3.421875,-2.25 Q 67.09375,77.828125 69.625,83.5 l 5.96875,-2.734375 Q 68.171875,69.53125 66.21875,67 q 2.828125,-2.15625 6.046875,-5.1875 5.671875,7.625 9.078125,13.09375 l 5.671875,-2.9375 Q 78.609375,60.359375 68.65625,49.421875 q 5.375,0.1875 15.71875,0.78125 -1.359375,2.53125 -4.984375,7.90625 l 5.375,2.140625 q 7.71875,-10.546875 10.25,-17.859375 l -5.75,-2.453125 q -0.78125,2.25 -2.15625,5.1875 -2.921875,-0.203125 -8.890625,-0.78125 -4.1875,-0.296875 -6.140625,-0.5 8.203125,-4.578125 12.109375,-8.875 L 82.515625,33.5 h 12.21875 V 27.25 H 58.59375 q 2.734375,-8.6875 6.546875,-15.140625 8.59375,6.25 13.671875,13.875 z"
                 id="TaipeiSansTCBeta-Regular-24190" />
              <path
                 d="m 94.53125,36.71875 v -7.515625 h -39.75 V 2.4375 q 0,-6.546875 -4,-8.390625 -0.6875,-0.296875 -1.359375,-0.5 Q 45.015625,-7.8125 28.8125,-7.8125 q -1.078125,3.703125 -3.328125,7.609375 5.765625,-0.1875 18.5625,-0.1875 2.53125,0.09375 2.828125,1.859375 0.09375,0.484375 0.09375,1.078125 v 26.65625 H 5.765625 V 36.71875 H 46.96875 v 33.109375 q -17.375,-1.46875 -33,-1.953125 -0.296875,2.921875 -1.765625,6.734375 45.125,1.65625 67.875,7.234375 0.875,0.1875 1.65625,0.390625 l 3.90625,-6.75 q -12.5,-3.21875 -30.859375,-4.875 V 36.71875 Z M 16.796875,62.5 23.34375,64.75 q 6.9375,-11.8125 9.46875,-21.09375 0.09375,-0.390625 0.203125,-0.59375 l -6.84375,-2.625 q -2.140625,8.875 -9.375,22.0625 z M 73.25,40.625 67.1875,43.0625 Q 73.34375,53.21875 77.734375,65.71875 77.9375,66.109375 78.03125,66.5 L 85.9375,63.765625 Q 77.34375,46.78125 73.25,40.625 Z"
                 id="TaipeiSansTCBeta-Regular-20046" />
              <path
                 d="M 92.671875,69.234375 H 61.03125 q -3.3125,-5.359375 -7.125,-11.03125 v -65.625 H 46 V 48.25 Q 29.78125,29.78125 9.765625,19.140625 8.40625,21.484375 4.78125,25.59375 26.078125,36.234375 41.890625,55.46875 47.46875,62.3125 51.46875,69.234375 H 7.328125 V 76.5625 h 85.34375 z m -36.8125,-21.578125 5.5625,4.890625 q 18.953125,-12.21875 30.859375,-23.25 1.859375,-1.75 3.234375,-3.125 l -5.859375,-5.65625 q -9.09375,9.65625 -27.34375,22.65625 -3.421875,2.4375 -6.453125,4.484375 z"
                 id="TaipeiSansTCBeta-Regular-19981" />
            </defs>
            <use
               xlink:href="#TaipeiSansTCBeta-Regular-24190"
               id="use303"
               x="0"
               y="0"
               width="100%"
               height="100%" />
            <use
               x="100"
               xlink:href="#TaipeiSansTCBeta-Regular-20046"
               id="use305"
               y="0"
               width="100%"
               height="100%" />
            <use
               x="200"
               xlink:href="#TaipeiSansTCBeta-Regular-19981"
               id="use307"
               y="0"
               width="100%"
               height="100%" />
            <use
               x="300"
               xlink:href="#TaipeiSansTCBeta-Regular-39438"
               id="use309"
               y="0"
               width="100%"
               height="100%" />
            <use
               x="400"
               xlink:href="#TaipeiSansTCBeta-Regular-20056"
               id="use311"
               y="0"
               width="100%"
               height="100%" />
          </g>
        </g>
        <g
           id="patch_17">
          <path
             d="m 99.9,189.41469 h 22 v -7.7 h -22 z"
             style="fill:#8172b3;stroke:#ffffff;stroke-linejoin:miter"
             id="path316" />
        </g>
        <g
           id="text_14">
          <!-- 磚造路 -->
          <g
             style="fill:#262626"
             transform="matrix(0.11,0,0,-0.11,130.7,189.41469)"
             id="g329">
            <defs
               id="defs321">
              <path
                 d="M 30.46875,12.109375 V 41.3125 H 18.359375 V 12.109375 Z M 4.890625,70.40625 V 77.25 h 35.34375 V 70.40625 H 23.53125 q -1.84375,-12.5 -4.484375,-22.75 h 18.0625 V 5.46875 h -18.75 V -2.9375 h -6.34375 v 30.875 Q 10.15625,24.03125 7.71875,20.3125 6.25,23.34375 3.21875,26.859375 12.3125,40.53125 16.40625,70.40625 Z m 43.15625,-60.4375 4.890625,3.3125 Q 59.96875,7.8125 63.765625,2.34375 L 58.5,-1.5625 Q 55.375,3.609375 48.34375,9.671875 48.140625,9.859375 48.046875,9.96875 Z m 23.25,27.734375 V 31.15625 l 11.21875,0.296875 q -2.53125,2.34375 -5.171875,4.390625 l 3.328125,1.859375 z M 51.375,42.390625 h 12.984375 v 6.4375 H 51.375 Z m 0,17.078125 v -6.25 h 12.984375 v 6.25 z m 33.09375,0 H 71.296875 v -6.25 H 84.46875 Z m 0,-17.078125 v 6.4375 H 71.296875 v -6.4375 z M 80.953125,25.984375 V 19.53125 h 14.84375 v -5.859375 h -14.84375 v -13.875 q 0,-4.484375 -2.046875,-5.75 Q 78.328125,-6.34375 77.734375,-6.546875 74.8125,-7.625 64.9375,-7.625 q -0.484375,2.84375 -2.234375,6.15625 7.703125,-0.1875 9.65625,0 Q 73.921875,-1.078125 74.03125,0 V 13.671875 H 40.4375 V 19.53125 H 74.03125 V 25.6875 Q 58.015625,25.203125 41.5,24.8125 l -0.484375,6.046875 q 5.671875,0 23.34375,0.203125 v 6.640625 h -19.4375 V 64.0625 h 19.4375 v 5.375 H 42.78125 v 5.953125 H 64.359375 V 82.625 h 6.9375 V 75.390625 H 94.53125 V 69.4375 H 71.296875 v -5.375 H 91.3125 V 37.703125 H 83.5 Q 92.1875,30.859375 96.390625,25.59375 L 91.21875,22.265625 q -0.890625,1.265625 -3.328125,3.90625 z"
                 id="TaipeiSansTCBeta-Regular-30938" />
              <path
                 d="M 58.984375,64.65625 H 43.953125 Q 40.71875,59.078125 36.328125,54.109375 33.40625,56.25 29.890625,57.8125 39.15625,66.5 44.234375,81.734375 44.34375,82.125 44.4375,82.328125 L 51.375,80.5625 Q 50.296875,77.34375 47.46875,71.09375 H 58.984375 V 83.5 H 66.3125 V 71.09375 h 23.828125 v -6.4375 H 66.3125 V 51.859375 h 28.125 V 45.40625 H 30.671875 v 6.453125 h 28.3125 z M 46.875,17 H 79.6875 V 31.640625 H 46.875 Z M 87.015625,7.328125 H 79.6875 v 3.3125 H 46.875 V 7.03125 H 39.75 v 30.671875 h 47.265625 z m -56.34375,63.078125 -5.1875,-5.078125 Q 20.609375,71 10.453125,77.15625 9.859375,77.546875 9.28125,77.828125 l 4.875,4.59375 Q 25.984375,75.875 30.671875,70.40625 Z M 27.734375,50.875 22.5625,45.609375 Q 17.578125,51.078125 6.34375,57.125 5.765625,57.421875 5.375,57.625 l 4.875,4.78125 Q 21.09375,57.125 27.046875,51.5625 27.4375,51.171875 27.734375,50.875 Z m -2.4375,-13.46875 v -25 q 6.9375,-10.546875 25.1875,-11.328125 22.859375,-0.59375 43.859375,0.578125 0.96875,0 1.75,0.109375 Q 94.34375,-1.375 93.5625,-5.46875 70.515625,-6.25 50.59375,-5.765625 32.234375,-4.984375 23.25,4.5 22.5625,5.28125 21.96875,5.953125 16.796875,0.984375 7.515625,-6.84375 L 3.71875,0.484375 q 8,5.859375 14.25,11.4375 V 30.46875 H 4.984375 v 6.9375 z"
                 id="TaipeiSansTCBeta-Regular-36896" />
            </defs>
            <use
               xlink:href="#TaipeiSansTCBeta-Regular-30938"
               id="use323"
               x="0"
               y="0"
               width="100%"
               height="100%" />
            <use
               x="100"
               xlink:href="#TaipeiSansTCBeta-Regular-36896"
               id="use325"
               y="0"
               width="100%"
               height="100%" />
            <use
               x="200"
               xlink:href="#TaipeiSansTCBeta-Regular-36335"
               id="use327"
               y="0"
               width="100%"
               height="100%" />
          </g>
        </g>
      </g>
    </g>
    <g
       id="axes_2">
      <g
         id="patch_18">
        <path
           d="M 90,756 H 648 V 459.49091 H 90 Z"
           style="fill:#eaeaf2"
           id="path334" />
      </g>
      <g
         id="matplotlib.axis_3">
        <g
           id="xtick_7">
          <g
             id="line2d_8">
            <path
               clip-path="url(#p53f68d7fe5)"
               d="M 90,756 V 459.49091"
               style="fill:none;stroke:#ffffff;stroke-linecap:round"
               id="path337" />
          </g>
          <g
             id="text_15">
            <!-- 0.0 -->
            <g
               style="fill:#262626"
               transform="matrix(0.11,0,0,-0.11,82.373047,774.25531)"
               id="g346">
              <use
                 xlink:href="#TaipeiSansTCBeta-Regular-48"
                 id="use340"
                 x="0"
                 y="0"
                 width="100%"
                 height="100%" />
              <use
                 x="55.46875"
                 xlink:href="#TaipeiSansTCBeta-Regular-46"
                 id="use342"
                 y="0"
                 width="100%"
                 height="100%" />
              <use
                 x="83.203125"
                 xlink:href="#TaipeiSansTCBeta-Regular-48"
                 id="use344"
                 y="0"
                 width="100%"
                 height="100%" />
            </g>
          </g>
        </g>
        <g
           id="xtick_8">
          <g
             id="line2d_9">
            <path
               clip-path="url(#p53f68d7fe5)"
               d="M 196.28571,756 V 459.49091"
               style="fill:none;stroke:#ffffff;stroke-linecap:round"
               id="path350" />
          </g>
          <g
             id="text_16">
            <!-- 0.2 -->
            <g
               style="fill:#262626"
               transform="matrix(0.11,0,0,-0.11,188.65876,774.25531)"
               id="g359">
              <use
                 xlink:href="#TaipeiSansTCBeta-Regular-48"
                 id="use353"
                 x="0"
                 y="0"
                 width="100%"
                 height="100%" />
              <use
                 x="55.46875"
                 xlink:href="#TaipeiSansTCBeta-Regular-46"
                 id="use355"
                 y="0"
                 width="100%"
                 height="100%" />
              <use
                 x="83.203125"
                 xlink:href="#TaipeiSansTCBeta-Regular-50"
                 id="use357"
                 y="0"
                 width="100%"
                 height="100%" />
            </g>
          </g>
        </g>
        <g
           id="xtick_9">
          <g
             id="line2d_10">
            <path
               clip-path="url(#p53f68d7fe5)"
               d="M 302.57143,756 V 459.49091"
               style="fill:none;stroke:#ffffff;stroke-linecap:round"
               id="path363" />
          </g>
          <g
             id="text_17">
            <!-- 0.4 -->
            <g
               style="fill:#262626"
               transform="matrix(0.11,0,0,-0.11,294.94447,774.25531)"
               id="g372">
              <use
                 xlink:href="#TaipeiSansTCBeta-Regular-48"
                 id="use366"
                 x="0"
                 y="0"
                 width="100%"
                 height="100%" />
              <use
                 x="55.46875"
                 xlink:href="#TaipeiSansTCBeta-Regular-46"
                 id="use368"
                 y="0"
                 width="100%"
                 height="100%" />
              <use
                 x="83.203125"
                 xlink:href="#TaipeiSansTCBeta-Regular-52"
                 id="use370"
                 y="0"
                 width="100%"
                 height="100%" />
            </g>
          </g>
        </g>
        <g
           id="xtick_10">
          <g
             id="line2d_11">
            <path
               clip-path="url(#p53f68d7fe5)"
               d="M 408.85714,756 V 459.49091"
               style="fill:none;stroke:#ffffff;stroke-linecap:round"
               id="path376" />
          </g>
          <g
             id="text_18">
            <!-- 0.6 -->
            <g
               style="fill:#262626"
               transform="matrix(0.11,0,0,-0.11,401.23019,774.25531)"
               id="g385">
              <use
                 xlink:href="#TaipeiSansTCBeta-Regular-48"
                 id="use379"
                 x="0"
                 y="0"
                 width="100%"
                 height="100%" />
              <use
                 x="55.46875"
                 xlink:href="#TaipeiSansTCBeta-Regular-46"
                 id="use381"
                 y="0"
                 width="100%"
                 height="100%" />
              <use
                 x="83.203125"
                 xlink:href="#TaipeiSansTCBeta-Regular-54"
                 id="use383"
                 y="0"
                 width="100%"
                 height="100%" />
            </g>
          </g>
        </g>
        <g
           id="xtick_11">
          <g
             id="line2d_12">
            <path
               clip-path="url(#p53f68d7fe5)"
               d="M 515.14286,756 V 459.49091"
               style="fill:none;stroke:#ffffff;stroke-linecap:round"
               id="path389" />
          </g>
          <g
             id="text_19">
            <!-- 0.8 -->
            <g
               style="fill:#262626"
               transform="matrix(0.11,0,0,-0.11,507.5159,774.25531)"
               id="g398">
              <use
                 xlink:href="#TaipeiSansTCBeta-Regular-48"
                 id="use392"
                 x="0"
                 y="0"
                 width="100%"
                 height="100%" />
              <use
                 x="55.46875"
                 xlink:href="#TaipeiSansTCBeta-Regular-46"
                 id="use394"
                 y="0"
                 width="100%"
                 height="100%" />
              <use
                 x="83.203125"
                 xlink:href="#TaipeiSansTCBeta-Regular-56"
                 id="use396"
                 y="0"
                 width="100%"
                 height="100%" />
            </g>
          </g>
        </g>
        <g
           id="xtick_12">
          <g
             id="line2d_13">
            <path
               clip-path="url(#p53f68d7fe5)"
               d="M 621.42857,756 V 459.49091"
               style="fill:none;stroke:#ffffff;stroke-linecap:round"
               id="path402" />
          </g>
          <g
             id="text_20">
            <!-- 1.0 -->
            <g
               style="fill:#262626"
               transform="matrix(0.11,0,0,-0.11,613.80162,774.25531)"
               id="g411">
              <use
                 xlink:href="#TaipeiSansTCBeta-Regular-49"
                 id="use405"
                 x="0"
                 y="0"
                 width="100%"
                 height="100%" />
              <use
                 x="55.46875"
                 xlink:href="#TaipeiSansTCBeta-Regular-46"
                 id="use407"
                 y="0"
                 width="100%"
                 height="100%" />
              <use
                 x="83.203125"
                 xlink:href="#TaipeiSansTCBeta-Regular-48"
                 id="use409"
                 y="0"
                 width="100%"
                 height="100%" />
            </g>
          </g>
        </g>
      </g>
      <g
         id="matplotlib.axis_4">
        <g
           id="ytick_2">
          <g
             id="line2d_14">
            <path
               clip-path="url(#p53f68d7fe5)"
               d="M 90,681.87273 H 648"
               style="fill:none;stroke:#ffffff;stroke-linecap:round"
               id="path416" />
          </g>
          <g
             id="text_21">
            <!-- 步行 -->
            <g
               style="fill:#262626"
               transform="matrix(0.11,0,0,-0.11,58.5,686.25038)"
               id="g426">
              <defs
                 id="defs420">
                <path
                   d="M 26.5625,42.96875 34.078125,40.625 Q 26.5625,29.59375 14.84375,20.703125 13.375,19.53125 12.015625,18.5625 9.078125,21.484375 5.5625,23.53125 17.28125,30.671875 24.90625,40.625 q 0.875,1.265625 1.65625,2.34375 z m 50,-2.640625 7.421875,-2.53125 Q 76.078125,15.234375 56.546875,4.203125 41.5,-4.203125 16.796875,-7.8125 q -1.5625,4.296875 -3.8125,6.9375 Q 46.09375,3.21875 61.625,17 q 9.953125,9.078125 14.9375,23.328125 z m -22.65625,13.1875 H 94.4375 v -6.9375 H 53.8125 V 23.4375 Q 53.8125,18.453125 50.875,17 50.484375,16.796875 50,16.609375 46.96875,15.53125 35.359375,15.53125 34.765625,18.171875 33.015625,22.171875 41.3125,21.875 44.625,22.078125 46.296875,22.46875 46.390625,23.53125 V 46.578125 H 5.671875 v 6.9375 h 14.9375 V 75.875 H 28.03125 V 53.515625 H 46.390625 V 83.59375 H 53.90625 V 71.875 h 30.375 v -6.9375 h -30.375 z"
                   id="TaipeiSansTCBeta-Regular-27493" />
              </defs>
              <use
                 xlink:href="#TaipeiSansTCBeta-Regular-27493"
                 id="use422"
                 x="0"
                 y="0"
                 width="100%"
                 height="100%" />
              <use
                 x="100"
                 xlink:href="#TaipeiSansTCBeta-Regular-34892"
                 id="use424"
                 y="0"
                 width="100%"
                 height="100%" />
            </g>
          </g>
        </g>
        <g
           id="ytick_3">
          <g
             id="line2d_15">
            <path
               clip-path="url(#p53f68d7fe5)"
               d="M 90,533.61818 H 648"
               style="fill:none;stroke:#ffffff;stroke-linecap:round"
               id="path430" />
          </g>
          <g
             id="text_22">
            <!-- 自行車（含自有交通工具） -->
            <g
               style="fill:#262626"
               transform="matrix(0.11,0,0,-0.11,-51.5,537.99584)"
               id="g457">
              <use
                 xlink:href="#TaipeiSansTCBeta-Regular-33258"
                 id="use433"
                 x="0"
                 y="0"
                 width="100%"
                 height="100%" />
              <use
                 x="100"
                 xlink:href="#TaipeiSansTCBeta-Regular-34892"
                 id="use435"
                 y="0"
                 width="100%"
                 height="100%" />
              <use
                 x="200"
                 xlink:href="#TaipeiSansTCBeta-Regular-36554"
                 id="use437"
                 y="0"
                 width="100%"
                 height="100%" />
              <use
                 x="300"
                 xlink:href="#TaipeiSansTCBeta-Regular-65288"
                 id="use439"
                 y="0"
                 width="100%"
                 height="100%" />
              <use
                 x="400"
                 xlink:href="#TaipeiSansTCBeta-Regular-21547"
                 id="use441"
                 y="0"
                 width="100%"
                 height="100%" />
              <use
                 x="500"
                 xlink:href="#TaipeiSansTCBeta-Regular-33258"
                 id="use443"
                 y="0"
                 width="100%"
                 height="100%" />
              <use
                 x="600"
                 xlink:href="#TaipeiSansTCBeta-Regular-26377"
                 id="use445"
                 y="0"
                 width="100%"
                 height="100%" />
              <use
                 x="700"
                 xlink:href="#TaipeiSansTCBeta-Regular-20132"
                 id="use447"
                 y="0"
                 width="100%"
                 height="100%" />
              <use
                 x="800"
                 xlink:href="#TaipeiSansTCBeta-Regular-36890"
                 id="use449"
                 y="0"
                 width="100%"
                 height="100%" />
              <use
                 x="900"
                 xlink:href="#TaipeiSansTCBeta-Regular-24037"
                 id="use451"
                 y="0"
                 width="100%"
                 height="100%" />
              <use
                 x="1000"
                 xlink:href="#TaipeiSansTCBeta-Regular-20855"
                 id="use453"
                 y="0"
                 width="100%"
                 height="100%" />
              <use
                 x="1100"
                 xlink:href="#TaipeiSansTCBeta-Regular-65289"
                 id="use455"
                 y="0"
                 width="100%"
                 height="100%" />
            </g>
          </g>
        </g>
        <g
           id="text_23">
          <!-- 主要移動方式 -->
          <g
             style="fill:#262626"
             transform="matrix(0,-0.12,-0.12,0,-58.243125,643.74545)"
             id="g473">
            <use
               xlink:href="#TaipeiSansTCBeta-Regular-20027"
               id="use461"
               x="0"
               y="0"
               width="100%"
               height="100%" />
            <use
               x="100"
               xlink:href="#TaipeiSansTCBeta-Regular-35201"
               id="use463"
               y="0"
               width="100%"
               height="100%" />
            <use
               x="200"
               xlink:href="#TaipeiSansTCBeta-Regular-31227"
               id="use465"
               y="0"
               width="100%"
               height="100%" />
            <use
               x="300"
               xlink:href="#TaipeiSansTCBeta-Regular-21205"
               id="use467"
               y="0"
               width="100%"
               height="100%" />
            <use
               x="400"
               xlink:href="#TaipeiSansTCBeta-Regular-26041"
               id="use469"
               y="0"
               width="100%"
               height="100%" />
            <use
               x="500"
               xlink:href="#TaipeiSansTCBeta-Regular-24335"
               id="use471"
               y="0"
               width="100%"
               height="100%" />
          </g>
        </g>
      </g>
      <g
         id="patch_19">
        <path
           clip-path="url(#p53f68d7fe5)"
           d="M 90,718.93636 H 277.56302 V 644.80909 H 90 Z"
           style="fill:#4c72b0;stroke:#ffffff;stroke-linejoin:miter"
           id="path477" />
      </g>
      <g
         id="patch_20">
        <path
           clip-path="url(#p53f68d7fe5)"
           d="m 90,570.68182 h 97.89474 V 496.55455 H 90 Z"
           style="fill:#4c72b0;stroke:#ffffff;stroke-linejoin:miter"
           id="path480" />
      </g>
      <g
         id="patch_21">
        <path
           clip-path="url(#p53f68d7fe5)"
           d="M 277.56302,718.93636 H 527.64706 V 644.80909 H 277.56302 Z"
           style="fill:#dd8452;stroke:#ffffff;stroke-linejoin:miter"
           id="path483" />
      </g>
      <g
         id="patch_22">
        <path
           clip-path="url(#p53f68d7fe5)"
           d="M 187.89474,570.68182 H 478.78195 V 496.55455 H 187.89474 Z"
           style="fill:#dd8452;stroke:#ffffff;stroke-linejoin:miter"
           id="path486" />
      </g>
      <g
         id="patch_23">
        <path
           clip-path="url(#p53f68d7fe5)"
           d="m 90,718.93636 v 0 -74.12727 0 z"
           style="fill:#55a868;stroke:#ffffff;stroke-linejoin:miter"
           id="path489" />
      </g>
      <g
         id="patch_24">
        <path
           clip-path="url(#p53f68d7fe5)"
           d="m 478.78195,570.68182 h 36.36091 v -74.12727 h -36.36091 z"
           style="fill:#55a868;stroke:#ffffff;stroke-linejoin:miter"
           id="path492" />
      </g>
      <g
         id="patch_25">
        <path
           clip-path="url(#p53f68d7fe5)"
           d="m 527.64706,718.93636 h 93.78151 v -74.12727 h -93.78151 z"
           style="fill:#c44e52;stroke:#ffffff;stroke-linejoin:miter"
           id="path495" />
      </g>
      <g
         id="patch_26">
        <path
           clip-path="url(#p53f68d7fe5)"
           d="M 515.14286,570.68182 H 621.42857 V 496.55455 H 515.14286 Z"
           style="fill:#c44e52;stroke:#ffffff;stroke-linejoin:miter"
           id="path498" />
      </g>
      <g
         id="patch_27">
        <path
           d="M 90,756 V 459.49091"
           style="fill:none;stroke:#ffffff;stroke-width:1.25;stroke-linecap:square;stroke-linejoin:miter"
           id="path501" />
      </g>
      <g
         id="patch_28">
        <path
           d="M 648,756 V 459.49091"
           style="fill:none;stroke:#ffffff;stroke-width:1.25;stroke-linecap:square;stroke-linejoin:miter"
           id="path504" />
      </g>
      <g
         id="patch_29">
        <path
           d="M 90,756 H 648"
           style="fill:none;stroke:#ffffff;stroke-width:1.25;stroke-linecap:square;stroke-linejoin:miter"
           id="path507" />
      </g>
      <g
         id="patch_30">
        <path
           d="M 90,459.49091 H 648"
           style="fill:none;stroke:#ffffff;stroke-width:1.25;stroke-linecap:square;stroke-linejoin:miter"
           id="path510" />
      </g>
      <g
         id="text_24">
        <!-- 在步行時的路線選擇 -->
        <g
           style="fill:#262626"
           transform="matrix(0.12,0,0,-0.12,315,453.49091)"
           id="g531">
          <use
             xlink:href="#TaipeiSansTCBeta-Regular-22312"
             id="use513"
             x="0"
             y="0"
             width="100%"
             height="100%" />
          <use
             x="100"
             xlink:href="#TaipeiSansTCBeta-Regular-27493"
             id="use515"
             y="0"
             width="100%"
             height="100%" />
          <use
             x="200"
             xlink:href="#TaipeiSansTCBeta-Regular-34892"
             id="use517"
             y="0"
             width="100%"
             height="100%" />
          <use
             x="300"
             xlink:href="#TaipeiSansTCBeta-Regular-26178"
             id="use519"
             y="0"
             width="100%"
             height="100%" />
          <use
             x="400"
             xlink:href="#TaipeiSansTCBeta-Regular-30340"
             id="use521"
             y="0"
             width="100%"
             height="100%" />
          <use
             x="500"
             xlink:href="#TaipeiSansTCBeta-Regular-36335"
             id="use523"
             y="0"
             width="100%"
             height="100%" />
          <use
             x="600"
             xlink:href="#TaipeiSansTCBeta-Regular-32218"
             id="use525"
             y="0"
             width="100%"
             height="100%" />
          <use
             x="700"
             xlink:href="#TaipeiSansTCBeta-Regular-36984"
             id="use527"
             y="0"
             width="100%"
             height="100%" />
          <use
             x="800"
             xlink:href="#TaipeiSansTCBeta-Regular-25799"
             id="use529"
             y="0"
             width="100%"
             height="100%" />
        </g>
      </g>
      <g
         id="legend_2">
        <g
           id="patch_31">
          <path
             d="m 550.1,642.93514 h 90.2 q 2.2,0 2.2,-2.2 v -65.97937 q 0,-2.2 -2.2,-2.2 h -90.2 q -2.2,0 -2.2,2.2 v 65.97937 q 0,2.2 2.2,2.2 z"
             style="opacity:0.8;fill:#eaeaf2;stroke:#cccccc;stroke-linejoin:miter"
             id="path534" />
        </g>
        <g
           id="patch_32">
          <path
             d="m 552.3,585.71108 h 22 v -7.7 h -22 z"
             style="fill:#4c72b0;stroke:#ffffff;stroke-linejoin:miter"
             id="path537" />
        </g>
        <g
           id="text_25">
          <!-- 主線 -->
          <g
             style="fill:#262626"
             transform="matrix(0.11,0,0,-0.11,583.1,585.71108)"
             id="g544">
            <use
               xlink:href="#TaipeiSansTCBeta-Regular-20027"
               id="use540"
               x="0"
               y="0"
               width="100%"
               height="100%" />
            <use
               x="100"
               xlink:href="#TaipeiSansTCBeta-Regular-32218"
               id="use542"
               y="0"
               width="100%"
               height="100%" />
          </g>
        </g>
        <g
           id="patch_33">
          <path
             d="m 552.3,602.48092 h 22 v -7.7 h -22 z"
             style="fill:#dd8452;stroke:#ffffff;stroke-linejoin:miter"
             id="path547" />
        </g>
        <g
           id="text_26">
          <!-- 人行道 -->
          <g
             style="fill:#262626"
             transform="matrix(0.11,0,0,-0.11,583.1,602.48092)"
             id="g560">
            <defs
               id="defs552">
              <path
                 d="M 44.921875,80.5625 H 53.125 q -0.09375,-0.671875 -0.09375,-2.234375 -0.09375,-1.5625 -0.09375,-2.34375 1.75,-26.078125 12.5,-46.203125 Q 76.953125,8.5 96.78125,-0.59375 93.359375,-3.125 91.3125,-6.734375 q -28.21875,13.375 -39.453125,50 -1.171875,3.8125 -2.15625,7.8125 Q 40.625,10.0625 9.671875,-6.734375 7.125,-3.328125 3.71875,-0.984375 41.890625,18.5625 44.734375,75.78125 q 0,0.875 0.09375,2.546875 0.09375,1.5625 0.09375,2.234375 z"
                 id="TaipeiSansTCBeta-Regular-20154" />
              <path
                 d="m 78.8125,42.671875 v 7.53125 h -32.125 v -7.53125 z m -32.125,-26.0625 h 32.125 v 7.8125 h -32.125 z m 0,20.796875 V 29.6875 h 32.125 v 7.71875 z m -7.03125,18.546875 h 16.796875 q 0.96875,4.59375 1.5625,8.40625 h -26.28125 v 6.25 H 48.25 Q 46.1875,75.6875 41.609375,81.15625 l 5.75,2.4375 Q 52.9375,77.4375 54.6875,72.171875 l -3.609375,-1.5625 H 73.4375 l -3.703125,0.96875 Q 73.53125,77.25 76.46875,83.6875 l 7.421875,-1.75 q -4.5,-7.515625 -7.421875,-11.328125 H 94.4375 v -6.25 H 66.015625 Q 65.4375,62.5 64.15625,58.890625 63.484375,56.84375 63.1875,55.953125 H 86.234375 V 7.71875 H 78.8125 V 10.9375 H 46.6875 V 7.71875 H 39.65625 Z M 29.984375,70.90625 24.8125,65.828125 q -4.5,5.46875 -14.5625,11.328125 -0.578125,0.390625 -1.171875,0.671875 l 4.890625,4.59375 q 10.734375,-5.65625 15.625,-11.125 0.296875,-0.203125 0.390625,-0.390625 z m -2.640625,-19.828125 -5.171875,-5.375 Q 17.09375,51.375 6.640625,56.84375 q -0.875,0.390625 -1.5625,0.78125 l 4.890625,4.78125 q 10.25,-4.6875 16.40625,-10.453125 0.578125,-0.484375 0.96875,-0.875 z M 25.296875,37.5 v -25 q 6.9375,-10.546875 25.1875,-11.328125 22.859375,-0.578125 43.859375,0.59375 0.96875,0 1.75,0.09375 -1.859375,-3.125 -2.53125,-7.328125 Q 70.515625,-6.25 50.59375,-5.765625 31.9375,-4.890625 22.953125,5.078125 22.46875,5.5625 22.078125,6.0625 16.890625,1.078125 7.625,-6.734375 L 3.71875,0.59375 Q 10.640625,5.375 18.0625,12.015625 V 30.5625 H 4.984375 V 37.5 Z"
                 id="TaipeiSansTCBeta-Regular-36947" />
            </defs>
            <use
               xlink:href="#TaipeiSansTCBeta-Regular-20154"
               id="use554"
               x="0"
               y="0"
               width="100%"
               height="100%" />
            <use
               x="100"
               xlink:href="#TaipeiSansTCBeta-Regular-34892"
               id="use556"
               y="0"
               width="100%"
               height="100%" />
            <use
               x="200"
               xlink:href="#TaipeiSansTCBeta-Regular-36947"
               id="use558"
               y="0"
               width="100%"
               height="100%" />
          </g>
        </g>
        <g
           id="patch_34">
          <path
             d="m 552.3,619.25077 h 22 v -7.7 h -22 z"
             style="fill:#55a868;stroke:#ffffff;stroke-linejoin:miter"
             id="path563" />
        </g>
        <g
           id="text_27">
          <!-- 幾乎不步行 -->
          <g
             style="fill:#262626"
             transform="matrix(0.11,0,0,-0.11,583.1,619.25077)"
             id="g576">
            <use
               xlink:href="#TaipeiSansTCBeta-Regular-24190"
               id="use566"
               x="0"
               y="0"
               width="100%"
               height="100%" />
            <use
               x="100"
               xlink:href="#TaipeiSansTCBeta-Regular-20046"
               id="use568"
               y="0"
               width="100%"
               height="100%" />
            <use
               x="200"
               xlink:href="#TaipeiSansTCBeta-Regular-19981"
               id="use570"
               y="0"
               width="100%"
               height="100%" />
            <use
               x="300"
               xlink:href="#TaipeiSansTCBeta-Regular-27493"
               id="use572"
               y="0"
               width="100%"
               height="100%" />
            <use
               x="400"
               xlink:href="#TaipeiSansTCBeta-Regular-34892"
               id="use574"
               y="0"
               width="100%"
               height="100%" />
          </g>
        </g>
        <g
           id="patch_35">
          <path
             d="m 552.3,636.02061 h 22 v -7.7 h -22 z"
             style="fill:#c44e52;stroke:#ffffff;stroke-linejoin:miter"
             id="path579" />
        </g>
        <g
           id="text_28">
          <!-- 磚造路 -->
          <g
             style="fill:#262626"
             transform="matrix(0.11,0,0,-0.11,583.1,636.02061)"
             id="g588">
            <use
               xlink:href="#TaipeiSansTCBeta-Regular-30938"
               id="use582"
               x="0"
               y="0"
               width="100%"
               height="100%" />
            <use
               x="100"
               xlink:href="#TaipeiSansTCBeta-Regular-36896"
               id="use584"
               y="0"
               width="100%"
               height="100%" />
            <use
               x="200"
               xlink:href="#TaipeiSansTCBeta-Regular-36335"
               id="use586"
               y="0"
               width="100%"
               height="100%" />
          </g>
        </g>
      </g>
    </g>
  </g>
  <defs
     id="defs600">
    <clipPath
       id="pee7fcfa248">
      <rect
         height="296.50909"
         width="558"
         x="90"
         y="103.68"
         id="rect594" />
    </clipPath>
    <clipPath
       id="p53f68d7fe5">
      <rect
         height="296.50909"
         width="558"
         x="90"
         y="459.49091"
         id="rect597" />
    </clipPath>
  </defs>
</svg>
