<?xml version="1.0" encoding="utf-8" standalone="no"?>
<!DOCTYPE svg PUBLIC "-//W3C//DTD SVG 1.1//EN"
  "http://www.w3.org/Graphics/SVG/1.1/DTD/svg11.dtd">
<!-- Created with matplotlib (https://matplotlib.org/) -->
<svg height="432pt" version="1.1" viewBox="0 0 432 432" width="432pt" xmlns="http://www.w3.org/2000/svg" xmlns:xlink="http://www.w3.org/1999/xlink">
 <metadata>
  <rdf:RDF xmlns:cc="http://creativecommons.org/ns#" xmlns:dc="http://purl.org/dc/elements/1.1/" xmlns:rdf="http://www.w3.org/1999/02/22-rdf-syntax-ns#">
   <cc:Work>
    <dc:type rdf:resource="http://purl.org/dc/dcmitype/StillImage"/>
    <dc:date>2021-02-22T21:15:16.435716</dc:date>
    <dc:format>image/svg+xml</dc:format>
    <dc:creator>
     <cc:Agent>
      <dc:title>Matplotlib v3.3.3, https://matplotlib.org/</dc:title>
     </cc:Agent>
    </dc:creator>
   </cc:Work>
  </rdf:RDF>
 </metadata>
 <defs>
  <style type="text/css">*{stroke-linecap:butt;stroke-linejoin:round;}</style>
 </defs>
 <g id="figure_1">
  <g id="patch_1">
   <path d="M 0 432 
L 432 432 
L 432 0 
L 0 0 
z
" style="fill:#ffffff;"/>
  </g>
  <g id="axes_1">
   <g id="matplotlib.axis_1"/>
   <g id="matplotlib.axis_2"/>
   <g id="patch_2">
    <path d="M 351.864 214.92 
C 351.864 189.012063 344.146685 163.682048 329.70083 142.175341 
C 315.254975 120.668634 294.725059 103.944723 270.741461 94.146346 
C 246.757863 84.347969 220.390573 81.912265 195.017878 87.151307 
C 169.645184 92.390349 146.399048 105.070404 128.257863 123.566852 
L 221.4 214.92 
L 351.864 214.92 
z
" style="fill:#4c72b0;stroke:#ffffff;stroke-linejoin:miter;"/>
   </g>
   <g id="patch_3">
    <path d="M 128.257863 123.566852 
C 114.021654 138.081852 103.373549 155.725684 97.165928 175.08596 
C 90.958307 194.446237 89.361351 214.992201 92.502894 235.079152 
C 95.644438 255.166103 103.438357 274.24336 115.26075 290.783792 
C 127.083143 307.324224 142.609901 320.874379 160.59811 330.349569 
L 221.4 214.92 
L 128.257863 123.566852 
z
" style="fill:#dd8452;stroke:#ffffff;stroke-linejoin:miter;"/>
   </g>
   <g id="patch_4">
    <path d="M 160.59811 330.349569 
C 178.586319 339.824759 198.542835 344.965224 218.870143 345.359469 
C 239.197451 345.753715 259.338282 341.390933 277.680364 332.620365 
L 221.4 214.92 
L 160.59811 330.349569 
z
" style="fill:#55a868;stroke:#ffffff;stroke-linejoin:miter;"/>
   </g>
   <g id="patch_5">
    <path d="M 277.680364 332.620365 
C 299.888963 322.000958 318.644922 305.309569 331.77078 284.483972 
C 344.896638 263.658375 351.864002 239.536926 351.864 214.919988 
L 221.4 214.92 
L 277.680364 332.620365 
z
" style="fill:#c44e52;stroke:#ffffff;stroke-linejoin:miter;"/>
   </g>
   <g id="text_1">
    <!-- 人行道積水嚴重 -->
    <g style="fill:#262626;" transform="translate(275.675607 85.189371)scale(0.11 -0.11)">
     <defs>
      <path d="M 44.921875 80.5625 
L 53.125 80.5625 
Q 53.03125 79.890625 53.03125 78.328125 
Q 52.9375 76.765625 52.9375 75.984375 
Q 54.6875 49.90625 65.4375 29.78125 
Q 76.953125 8.5 96.78125 -0.59375 
Q 93.359375 -3.125 91.3125 -6.734375 
Q 63.09375 6.640625 51.859375 43.265625 
Q 50.6875 47.078125 49.703125 51.078125 
Q 40.625 10.0625 9.671875 -6.734375 
Q 7.125 -3.328125 3.71875 -0.984375 
Q 41.890625 18.5625 44.734375 75.78125 
Q 44.734375 76.65625 44.828125 78.328125 
Q 44.921875 79.890625 44.921875 80.5625 
z
" id="TaipeiSansTCBeta-Regular-20154"/>
      <path d="M 92.28125 77.640625 
L 92.28125 70.609375 
L 43.453125 70.609375 
L 43.453125 77.640625 
z
M 26.765625 83.6875 
L 33.890625 80.859375 
Q 25.09375 69.046875 11.71875 58.59375 
Q 9.96875 57.234375 8.296875 56.0625 
Q 5.078125 60.75 3.90625 62.015625 
Q 14.84375 69.34375 23.4375 79.390625 
Q 25.390625 81.734375 26.765625 83.6875 
z
M 30.859375 62.40625 
L 37.796875 59.765625 
Q 33.40625 52.640625 26.765625 44.734375 
L 26.765625 -7.90625 
L 19.4375 -7.90625 
L 19.4375 36.53125 
Q 12.984375 29.984375 8.109375 26.078125 
Q 5.171875 30.078125 2.9375 32.328125 
Q 16.3125 41.890625 26.859375 56.453125 
Q 29.109375 59.46875 30.859375 62.40625 
z
M 95.21875 50.296875 
L 95.21875 43.171875 
L 80.078125 43.171875 
L 80.078125 1.859375 
Q 80.078125 -3.8125 76.953125 -5.5625 
Q 76.375 -5.859375 75.6875 -6.15625 
Q 71.78125 -7.328125 56.9375 -7.328125 
Q 56.453125 -4 54.5 -0.09375 
Q 65.921875 -0.390625 70.125 -0.203125 
Q 72.359375 0.59375 72.5625 1.953125 
L 72.5625 43.171875 
L 39.15625 43.171875 
L 39.15625 50.296875 
z
" id="TaipeiSansTCBeta-Regular-34892"/>
      <path d="M 78.8125 42.671875 
L 78.8125 50.203125 
L 46.6875 50.203125 
L 46.6875 42.671875 
z
M 46.6875 16.609375 
L 78.8125 16.609375 
L 78.8125 24.421875 
L 46.6875 24.421875 
z
M 46.6875 37.40625 
L 46.6875 29.6875 
L 78.8125 29.6875 
L 78.8125 37.40625 
z
M 39.65625 55.953125 
L 56.453125 55.953125 
Q 57.421875 60.546875 58.015625 64.359375 
L 31.734375 64.359375 
L 31.734375 70.609375 
L 48.25 70.609375 
Q 46.1875 75.6875 41.609375 81.15625 
L 47.359375 83.59375 
Q 52.9375 77.4375 54.6875 72.171875 
L 51.078125 70.609375 
L 73.4375 70.609375 
L 69.734375 71.578125 
Q 73.53125 77.25 76.46875 83.6875 
L 83.890625 81.9375 
Q 79.390625 74.421875 76.46875 70.609375 
L 94.4375 70.609375 
L 94.4375 64.359375 
L 66.015625 64.359375 
Q 65.4375 62.5 64.15625 58.890625 
Q 63.484375 56.84375 63.1875 55.953125 
L 86.234375 55.953125 
L 86.234375 7.71875 
L 78.8125 7.71875 
L 78.8125 10.9375 
L 46.6875 10.9375 
L 46.6875 7.71875 
L 39.65625 7.71875 
z
M 29.984375 70.90625 
L 24.8125 65.828125 
Q 20.3125 71.296875 10.25 77.15625 
Q 9.671875 77.546875 9.078125 77.828125 
L 13.96875 82.421875 
Q 24.703125 76.765625 29.59375 71.296875 
Q 29.890625 71.09375 29.984375 70.90625 
z
M 27.34375 51.078125 
L 22.171875 45.703125 
Q 17.09375 51.375 6.640625 56.84375 
Q 5.765625 57.234375 5.078125 57.625 
L 9.96875 62.40625 
Q 20.21875 57.71875 26.375 51.953125 
Q 26.953125 51.46875 27.34375 51.078125 
z
M 25.296875 37.5 
L 25.296875 12.5 
Q 32.234375 1.953125 50.484375 1.171875 
Q 73.34375 0.59375 94.34375 1.765625 
Q 95.3125 1.765625 96.09375 1.859375 
Q 94.234375 -1.265625 93.5625 -5.46875 
Q 70.515625 -6.25 50.59375 -5.765625 
Q 31.9375 -4.890625 22.953125 5.078125 
Q 22.46875 5.5625 22.078125 6.0625 
Q 16.890625 1.078125 7.625 -6.734375 
L 3.71875 0.59375 
Q 10.640625 5.375 18.0625 12.015625 
L 18.0625 30.5625 
L 4.984375 30.5625 
L 4.984375 37.5 
z
" id="TaipeiSansTCBeta-Regular-36947"/>
      <path d="M 41.109375 29.390625 
L 36.71875 23.53125 
Q 34.46875 27.546875 27.9375 35.640625 
L 27.9375 -7.421875 
L 20.703125 -7.421875 
L 20.703125 36.328125 
Q 13.765625 19.234375 6.640625 10.640625 
Q 5.765625 12.984375 2.828125 17.390625 
Q 10.9375 26.375 17.671875 42.578125 
Q 19.046875 46 20.125 49.125 
L 5.375 49.125 
L 5.375 56.0625 
L 20.703125 56.0625 
L 20.703125 71.1875 
Q 11.71875 69.625 7.125 69.140625 
Q 6.640625 71.390625 4.78125 74.8125 
Q 25.78125 78.03125 35.25 82.234375 
L 40.53125 76.5625 
Q 35.453125 74.515625 27.9375 72.75 
L 27.9375 56.0625 
L 38.671875 56.0625 
L 38.671875 57.71875 
L 62.984375 57.71875 
L 62.984375 63.09375 
L 44.046875 63.09375 
L 44.046875 67.875 
L 62.984375 67.875 
L 62.984375 73.140625 
L 41.796875 73.140625 
L 41.796875 78.125 
L 62.984375 78.125 
L 62.984375 83.59375 
L 70.40625 83.59375 
L 70.40625 78.125 
L 93.0625 78.125 
L 93.0625 73.140625 
L 70.40625 73.140625 
L 70.40625 67.875 
L 90.625 67.875 
L 90.625 63.09375 
L 70.40625 63.09375 
L 70.40625 57.71875 
L 95.609375 57.71875 
L 95.609375 52.640625 
L 39.15625 52.640625 
L 39.15625 49.125 
L 27.9375 49.125 
L 27.9375 42.96875 
Q 37.703125 33.5 41.109375 29.390625 
z
M 52.25 20.015625 
L 52.25 13.28125 
L 82.90625 13.28125 
L 82.90625 20.015625 
z
M 52.25 31.34375 
L 52.25 24.8125 
L 82.90625 24.8125 
L 82.90625 31.34375 
z
M 52.25 42.484375 
L 52.25 36.234375 
L 82.90625 36.234375 
L 82.90625 42.484375 
z
M 89.9375 8.296875 
L 45.40625 8.296875 
L 45.40625 47.46875 
L 89.9375 47.46875 
z
M 56.640625 7.8125 
L 62.796875 4.109375 
Q 54.5 -2.640625 41.40625 -7.234375 
Q 40.140625 -7.625 39.0625 -8.015625 
Q 37.015625 -5.46875 34.28125 -3.21875 
Q 46.578125 0.484375 54.6875 6.25 
Q 55.859375 7.125 56.640625 7.8125 
z
M 72.265625 3.8125 
L 77.34375 7.515625 
Q 89.359375 0.6875 96.390625 -4.109375 
L 89.9375 -7.71875 
Q 83.40625 -2.734375 72.265625 3.8125 
z
" id="TaipeiSansTCBeta-Regular-31309"/>
      <path d="M 36.140625 58.5 
L 41.015625 56.640625 
Q 35.25 26.375 17.78125 8.984375 
Q 13.671875 4.984375 9.28125 1.953125 
Q 7.328125 4.890625 3.8125 7.625 
Q 3.609375 7.8125 3.421875 7.90625 
Q 19.53125 17.96875 27.9375 38.484375 
Q 30.28125 44.4375 31.84375 50.78125 
L 5.765625 50.78125 
L 5.765625 58.203125 
L 34.578125 58.203125 
z
M 86.140625 67.484375 
L 92.78125 62.703125 
Q 78.421875 46.96875 65.53125 36.8125 
Q 78.21875 14.75 96.78125 6.734375 
Q 93.171875 3.71875 91.21875 0 
Q 67.09375 11.921875 54 45.796875 
L 54 2.9375 
Q 54 -3.515625 50.390625 -5.671875 
Q 49.8125 -5.953125 49.3125 -6.15625 
Q 45.125 -7.71875 30.953125 -7.71875 
Q 30.46875 -4.390625 28.03125 0.390625 
Q 33.015625 0.203125 43.5625 0.203125 
Q 46.09375 0.875 46.296875 2.9375 
L 46.296875 83.40625 
L 54 83.40625 
L 54 65.328125 
Q 57.421875 52.734375 62.40625 42.671875 
Q 76.65625 55.171875 85.453125 66.609375 
Q 85.84375 67.09375 86.140625 67.484375 
z
" id="TaipeiSansTCBeta-Regular-27700"/>
      <path d="M 80.28125 67.875 
L 80.28125 75 
L 62.703125 75 
L 62.703125 67.875 
z
M 87.109375 79.5 
L 87.109375 63.375 
L 56.0625 63.375 
L 56.0625 79.5 
z
M 40.71875 67.875 
L 40.71875 75 
L 23.4375 75 
L 23.4375 67.875 
z
M 47.46875 79.5 
L 47.46875 63.375 
L 16.796875 63.375 
L 16.796875 79.5 
z
M 18.5625 53.21875 
L 18.5625 37.203125 
Q 18.453125 6.9375 9.078125 -7.90625 
Q 7.328125 -5.671875 3.8125 -3.71875 
Q 3.515625 -3.609375 3.421875 -3.515625 
Q 11.71875 10.25 11.8125 37.203125 
L 11.8125 59.46875 
L 93.84375 59.46875 
L 93.84375 53.21875 
z
M 47.65625 26.953125 
L 47.65625 32.90625 
L 32.125 32.90625 
L 32.125 26.953125 
z
M 32.125 12.015625 
L 32.125 4.390625 
Q 45.21875 5.46875 47.65625 5.671875 
L 47.65625 12.015625 
z
M 47.65625 16.3125 
L 47.65625 22.5625 
L 32.125 22.5625 
L 32.125 16.3125 
z
M 58.59375 32.90625 
L 54 32.90625 
L 54 -7.625 
L 47.65625 -7.625 
L 47.65625 0.296875 
Q 22.078125 -2.15625 19.046875 -2.34375 
L 18.0625 3.328125 
L 25.875 3.90625 
L 25.875 32.90625 
L 21.09375 32.90625 
L 21.09375 38.1875 
L 36.625 38.1875 
L 36.625 43.953125 
L 24.03125 43.953125 
L 24.03125 48.921875 
L 56.546875 48.921875 
L 56.546875 43.953125 
L 42.875 43.953125 
L 42.875 38.1875 
L 58.59375 38.1875 
z
M 68.953125 35.9375 
L 67.96875 33.6875 
Q 70.796875 24.125 75.984375 16.015625 
Q 81.0625 24.515625 83.203125 35.9375 
z
M 94.234375 35.9375 
L 90.140625 35.9375 
Q 86.71875 20.3125 80.078125 10.359375 
Q 87.203125 1.953125 96.484375 -1.953125 
Q 94.4375 -3.8125 91.796875 -7.8125 
Q 82.71875 -3.125 76.078125 5.078125 
Q 69.140625 -2.828125 59.671875 -7.8125 
Q 57.328125 -4.5 55.078125 -2.640625 
Q 65.328125 2.25 72.171875 10.546875 
Q 67.671875 17.28125 64.265625 26.5625 
Q 62.703125 23.53125 59.859375 20.21875 
Q 58.109375 22.265625 54.890625 24.609375 
Q 63.28125 34.375 66.890625 51.5625 
L 73.25 50.296875 
Q 72.46875 46.484375 71 41.890625 
L 94.234375 41.890625 
z
" id="TaipeiSansTCBeta-Regular-22196"/>
      <path d="M 23.4375 28.421875 
L 46 28.421875 
L 46 36.03125 
L 23.4375 36.03125 
z
M 23.4375 48.53125 
L 23.4375 41.015625 
L 46 41.015625 
L 46 48.53125 
z
M 77.15625 48.53125 
L 53.328125 48.53125 
L 53.328125 41.015625 
L 77.15625 41.015625 
z
M 77.15625 28.421875 
L 77.15625 36.03125 
L 53.328125 36.03125 
L 53.328125 28.421875 
z
M 53.328125 1.5625 
L 94.625 1.5625 
L 94.625 -4.5 
L 5.5625 -4.5 
L 5.5625 1.5625 
L 46 1.5625 
L 46 10.15625 
L 13.09375 10.15625 
L 13.09375 16.21875 
L 46 16.21875 
L 46 23.140625 
L 16.109375 23.140625 
L 16.109375 53.90625 
L 46 53.90625 
L 46 59.859375 
L 6.0625 59.859375 
L 6.0625 66.015625 
L 46 66.015625 
L 46 73.25 
Q 29.59375 72.171875 15.234375 71.875 
Q 15.046875 74.421875 13.578125 77.828125 
Q 58.109375 79 80.375 83.109375 
L 84.375 77.34375 
Q 72.46875 75.203125 53.328125 73.734375 
L 53.328125 66.015625 
L 94.046875 66.015625 
L 94.046875 59.859375 
L 53.328125 59.859375 
L 53.328125 53.90625 
L 84.578125 53.90625 
L 84.578125 23.140625 
L 53.328125 23.140625 
L 53.328125 16.21875 
L 88.28125 16.21875 
L 88.28125 10.15625 
L 53.328125 10.15625 
z
" id="TaipeiSansTCBeta-Regular-37325"/>
     </defs>
     <use xlink:href="#TaipeiSansTCBeta-Regular-20154"/>
     <use x="100" xlink:href="#TaipeiSansTCBeta-Regular-34892"/>
     <use x="200" xlink:href="#TaipeiSansTCBeta-Regular-36947"/>
     <use x="300" xlink:href="#TaipeiSansTCBeta-Regular-31309"/>
     <use x="400" xlink:href="#TaipeiSansTCBeta-Regular-27700"/>
     <use x="500" xlink:href="#TaipeiSansTCBeta-Regular-22196"/>
     <use x="600" xlink:href="#TaipeiSansTCBeta-Regular-37325"/>
    </g>
   </g>
   <g id="text_2">
    <!-- 37.7% -->
    <g style="fill:#262626;" transform="translate(233.830814 145.85987)scale(0.12 -0.12)">
     <defs>
      <path d="M 26.375 -1.265625 
Q 12.109375 -1.171875 2.9375 8.6875 
L 7.515625 14.75 
Q 15.625 6.453125 25.6875 6.34375 
Q 34.671875 6.34375 38.578125 12.59375 
Q 40.625 15.828125 40.625 19.921875 
Q 40.4375 34.46875 17.78125 34.578125 
L 17.78125 41.609375 
Q 37.890625 41.796875 38.09375 55.5625 
Q 38.09375 63.484375 31.25 66.3125 
Q 28.71875 67.28125 25.6875 67.390625 
Q 17.578125 67 10.546875 60.0625 
L 5.5625 65.921875 
Q 15.140625 74.703125 26.078125 74.703125 
Q 38.484375 74.703125 44.140625 67.09375 
Q 47.359375 62.5 47.359375 56.34375 
Q 47.359375 44.828125 36.625 39.546875 
Q 35.453125 39.0625 34.28125 38.578125 
L 34.28125 38.1875 
Q 43.65625 36.03125 47.75 28.515625 
Q 49.90625 24.421875 49.90625 19.625 
Q 49.90625 8.5 40.828125 2.640625 
Q 34.578125 -1.265625 26.375 -1.265625 
z
" id="TaipeiSansTCBeta-Regular-51"/>
      <path d="M 19.828125 0 
Q 21 26.953125 28.515625 44.625 
Q 32.90625 54.984375 40.4375 65.53125 
L 4.890625 65.53125 
L 4.890625 73.34375 
L 50.78125 73.34375 
L 50.78125 67.78125 
Q 37.40625 50.6875 33.015625 32.90625 
Q 30.078125 20.703125 29.296875 0 
z
" id="TaipeiSansTCBeta-Regular-55"/>
      <path d="M 13.875 -1.265625 
Q 9.671875 -1.265625 8.015625 2.4375 
Q 7.328125 3.90625 7.328125 5.5625 
Q 7.328125 10.0625 10.9375 12.015625 
Q 12.40625 12.703125 13.875 12.703125 
Q 17.78125 12.703125 19.734375 9.078125 
Q 20.515625 7.421875 20.515625 5.5625 
Q 20.515625 1.078125 16.609375 -0.6875 
Q 15.234375 -1.265625 13.875 -1.265625 
z
" id="TaipeiSansTCBeta-Regular-46"/>
      <path d="M 20.515625 28.421875 
Q 10.75 28.421875 6.453125 37.890625 
Q 3.90625 43.65625 3.90625 51.65625 
Q 3.90625 66.890625 12.3125 72.359375 
Q 15.921875 74.703125 20.515625 74.703125 
Q 30.375 74.703125 34.765625 65.140625 
Q 37.203125 59.46875 37.203125 51.65625 
Q 37.203125 36.328125 28.8125 30.765625 
Q 25.09375 28.421875 20.515625 28.421875 
z
M 20.515625 34.078125 
Q 26.953125 34.078125 29.296875 42.671875 
Q 30.28125 46.578125 30.28125 51.65625 
Q 30.28125 65.625 23.640625 68.5625 
Q 22.078125 69.140625 20.515625 69.140625 
Q 14.15625 69.140625 11.921875 60.640625 
Q 10.84375 56.734375 10.84375 51.65625 
Q 10.84375 37.984375 17.28125 34.859375 
Q 18.84375 34.078125 20.515625 34.078125 
z
M 22.65625 -1.265625 
L 63.09375 74.703125 
L 69.34375 74.703125 
L 28.8125 -1.265625 
z
M 71.578125 -1.265625 
Q 61.8125 -1.265625 57.515625 8.109375 
Q 54.890625 13.875 54.890625 21.875 
Q 54.890625 36.921875 63.1875 42.484375 
Q 66.890625 44.921875 71.578125 44.921875 
Q 81.453125 44.921875 85.75 35.359375 
Q 88.1875 29.6875 88.1875 21.875 
Q 88.1875 6.546875 79.78125 1.078125 
Q 76.171875 -1.265625 71.578125 -1.265625 
z
M 71.578125 4.296875 
Q 77.828125 4.296875 80.171875 12.5 
Q 81.34375 16.5 81.34375 21.875 
Q 81.34375 35.453125 74.8125 38.578125 
Q 73.25 39.265625 71.578125 39.265625 
Q 64.9375 39.265625 62.796875 30.46875 
Q 61.8125 26.765625 61.8125 21.875 
Q 61.8125 8.109375 68.359375 4.984375 
Q 69.921875 4.296875 71.578125 4.296875 
z
" id="TaipeiSansTCBeta-Regular-37"/>
     </defs>
     <use xlink:href="#TaipeiSansTCBeta-Regular-51"/>
     <use x="55.46875" xlink:href="#TaipeiSansTCBeta-Regular-55"/>
     <use x="110.9375" xlink:href="#TaipeiSansTCBeta-Regular-46"/>
     <use x="138.671875" xlink:href="#TaipeiSansTCBeta-Regular-55"/>
     <use x="194.140625" xlink:href="#TaipeiSansTCBeta-Regular-37"/>
    </g>
   </g>
   <g id="text_3">
    <!-- 人行道路寬過小 -->
    <g style="fill:#262626;" transform="translate(2.613184 240.215458)scale(0.11 -0.11)">
     <defs>
      <path d="M 54.59375 28.421875 
L 84.375 28.421875 
Q 77.046875 32.8125 69.625 40.234375 
Q 62.796875 33.5 54.59375 28.421875 
z
M 57.03125 2.734375 
L 82.03125 2.734375 
L 82.03125 21.875 
L 57.03125 21.875 
z
M 42.390625 34.578125 
L 42.390625 29.78125 
Q 55.171875 35.25 65.046875 45.40625 
Q 60.0625 51.375 55.765625 59.078125 
Q 51.5625 52.640625 46.6875 47.5625 
Q 43.84375 50.390625 41.5 51.953125 
L 41.5 49.03125 
L 29.984375 49.03125 
L 29.984375 34.578125 
z
M 15.828125 73.046875 
L 15.828125 55.46875 
L 34.578125 55.46875 
L 34.578125 73.046875 
z
M 79.5 67 
L 60.359375 67 
L 59.375 65.140625 
Q 63.765625 56.734375 69.34375 50.09375 
Q 75.6875 57.8125 79.5 67 
z
M 84.078125 73.828125 
L 88.671875 71.6875 
Q 84.078125 57.234375 74.125 45.125 
Q 84.578125 35.0625 96.875 30.375 
Q 94.34375 27.9375 92.28125 24.3125 
Q 91.703125 24.609375 90.53125 25.09375 
Q 89.546875 25.484375 89.0625 25.6875 
L 89.0625 -7.234375 
L 82.03125 -7.234375 
L 82.03125 -3.90625 
L 57.03125 -3.90625 
L 57.03125 -7.515625 
L 50.09375 -7.515625 
L 50.09375 25.78125 
Q 48.828125 25.203125 44.140625 23.046875 
Q 43.0625 25.296875 40.53125 28.03125 
L 29.984375 28.03125 
L 29.984375 10.0625 
Q 34.375 11.03125 43.0625 13.1875 
L 43.84375 6.546875 
Q 38.875 5.375 29 2.9375 
Q 12.203125 -1.171875 5.46875 -2.828125 
L 4.109375 4.390625 
L 9.1875 5.46875 
L 9.1875 39.65625 
L 15.53125 39.65625 
L 15.53125 6.84375 
L 23.25 8.59375 
L 23.25 49.03125 
L 9.1875 49.03125 
L 9.1875 79.5 
L 41.5 79.5 
L 41.5 53.03125 
Q 53.328125 64.265625 59.28125 82.625 
Q 59.46875 83.203125 59.578125 83.6875 
L 66.703125 82.03125 
Q 66.015625 79.984375 63.484375 73.53125 
L 82.8125 73.53125 
z
" id="TaipeiSansTCBeta-Regular-36335"/>
      <path d="M 14.265625 69.53125 
L 14.265625 58.296875 
L 7.625 58.296875 
L 7.625 75.296875 
L 46.296875 75.296875 
L 46.296875 83.6875 
L 53.609375 83.6875 
L 53.609375 75.296875 
L 92.578125 75.296875 
L 92.578125 58.296875 
L 85.75 58.296875 
L 85.75 69.53125 
z
M 26.265625 24.609375 
L 26.265625 19.046875 
L 74.3125 19.046875 
L 74.3125 24.609375 
z
M 26.265625 34.578125 
L 26.265625 29.203125 
L 74.3125 29.203125 
L 74.3125 34.578125 
z
M 26.265625 44.53125 
L 26.265625 39.15625 
L 74.3125 39.15625 
L 74.3125 44.53125 
z
M 40.921875 55.46875 
L 40.921875 49.515625 
L 58.890625 49.515625 
L 58.890625 55.46875 
z
M 68.453125 -1.171875 
L 83.984375 -1.171875 
Q 87.015625 -1.171875 87.796875 0.78125 
Q 88.578125 2.828125 88.875 9.078125 
Q 91.609375 7.515625 95.21875 6.9375 
Q 94.53125 -2.640625 91.5 -5.078125 
Q 89.359375 -6.734375 84.765625 -6.734375 
L 67.78125 -6.734375 
Q 59.375 -6.734375 57.234375 -4.109375 
Q 55.859375 -2.25 55.859375 1.5625 
L 55.859375 13.96875 
L 41.609375 13.96875 
Q 38.671875 3.609375 29.78125 -1.46875 
Q 22.265625 -5.5625 8.203125 -7.8125 
Q 6.84375 -4.296875 4.390625 -1.65625 
Q 23.140625 0.6875 29.296875 6.734375 
Q 32.234375 9.671875 33.59375 13.96875 
L 19.234375 13.96875 
L 19.234375 49.515625 
L 33.984375 49.515625 
L 33.984375 55.46875 
L 14.75 55.46875 
L 14.75 61.03125 
L 33.984375 61.03125 
L 33.984375 67.28125 
L 40.921875 67.28125 
L 40.921875 61.03125 
L 58.890625 61.03125 
L 58.890625 67.1875 
L 65.828125 67.1875 
L 65.828125 61.03125 
L 85.546875 61.03125 
L 85.546875 55.46875 
L 65.828125 55.46875 
L 65.828125 49.515625 
L 81.84375 49.515625 
L 81.84375 13.96875 
L 74.515625 13.96875 
Q 81.9375 9.765625 86.53125 5.765625 
L 81.453125 1.46875 
Q 76.5625 6.15625 67.671875 11.140625 
L 71.296875 13.96875 
L 63.1875 13.96875 
L 63.1875 1.5625 
Q 63.1875 -0.59375 64.75 -0.984375 
Q 65.828125 -1.171875 68.453125 -1.171875 
z
" id="TaipeiSansTCBeta-Regular-23532"/>
      <path d="M 48.640625 74.421875 
L 48.640625 49.515625 
L 58.40625 49.515625 
L 58.40625 66.3125 
L 76.265625 66.3125 
L 76.265625 74.421875 
z
M 63.96875 49.515625 
L 76.265625 49.515625 
L 76.265625 61.140625 
L 63.96875 61.140625 
z
M 40.921875 43.5625 
L 40.921875 6.453125 
L 34.28125 6.453125 
L 34.28125 49.515625 
L 42.09375 49.515625 
L 42.09375 80.171875 
L 83.015625 80.171875 
L 83.015625 49.515625 
L 90.71875 49.515625 
L 90.71875 13.671875 
Q 90.71875 9.1875 88.484375 7.90625 
Q 87.984375 7.71875 87.59375 7.515625 
Q 85.0625 6.453125 75.390625 6.453125 
Q 74.90625 9.375 73.4375 12.40625 
Q 77.640625 12.3125 82.328125 12.3125 
Q 83.796875 12.59375 83.890625 13.671875 
L 83.890625 43.5625 
z
M 69.4375 21.296875 
L 69.4375 31.9375 
L 55.078125 31.9375 
L 55.078125 21.296875 
z
M 75.203125 37.203125 
L 75.203125 16.109375 
L 55.078125 16.109375 
L 55.078125 12.203125 
L 49.3125 12.203125 
L 49.3125 37.203125 
z
M 30.671875 70.515625 
L 25.484375 65.4375 
Q 21 70.90625 10.9375 76.859375 
Q 10.0625 77.4375 9.28125 77.828125 
L 14.15625 82.421875 
Q 25.09375 76.5625 30.28125 71 
Q 30.46875 70.703125 30.671875 70.515625 
z
M 27.828125 50.984375 
L 22.65625 45.703125 
Q 17.390625 51.265625 7.125 56.734375 
Q 6.15625 57.234375 5.375 57.625 
L 10.25 62.40625 
Q 20.3125 57.8125 26.765625 51.953125 
Q 27.4375 51.375 27.828125 50.984375 
z
M 25.296875 37.5 
L 25.296875 12.5 
Q 32.234375 1.953125 50.484375 1.171875 
Q 73.34375 0.59375 94.34375 1.765625 
Q 95.3125 1.765625 96.09375 1.859375 
Q 94.234375 -1.265625 93.5625 -5.46875 
Q 70.515625 -6.25 50.59375 -5.765625 
Q 31.9375 -4.890625 22.953125 5.078125 
Q 22.46875 5.5625 22.078125 6.0625 
Q 16.890625 1.078125 7.625 -6.734375 
L 3.71875 0.59375 
Q 10.640625 5.375 18.0625 12.015625 
L 18.0625 30.5625 
L 4.984375 30.5625 
L 4.984375 37.5 
z
" id="TaipeiSansTCBeta-Regular-36942"/>
      <path d="M 46.484375 82.234375 
L 54.390625 82.234375 
L 54.390625 2.734375 
Q 54.390625 -3.71875 50.875 -5.671875 
Q 50.203125 -6.0625 49.421875 -6.34375 
Q 44.921875 -7.8125 30.28125 -7.625 
Q 29.390625 -3.90625 27.25 0.09375 
Q 37.5 -0.296875 43.5625 0 
Q 46.390625 0.390625 46.484375 2.734375 
z
M 70.40625 57.03125 
L 77.4375 59.671875 
Q 89.0625 41.21875 94.921875 23.4375 
Q 96.296875 19.140625 97.078125 15.625 
L 89.265625 12.3125 
Q 86.234375 26.953125 75.6875 47.46875 
Q 73.046875 52.640625 70.40625 57.03125 
z
M 20.40625 58.984375 
L 28.609375 57.515625 
Q 21.96875 28.125 10.640625 13.96875 
Q 7.234375 16.40625 3.609375 17.875 
Q 14.0625 30.28125 19.4375 54 
Q 19.921875 56.546875 20.40625 58.984375 
z
" id="TaipeiSansTCBeta-Regular-23567"/>
     </defs>
     <use xlink:href="#TaipeiSansTCBeta-Regular-20154"/>
     <use x="100" xlink:href="#TaipeiSansTCBeta-Regular-34892"/>
     <use x="200" xlink:href="#TaipeiSansTCBeta-Regular-36947"/>
     <use x="300" xlink:href="#TaipeiSansTCBeta-Regular-36335"/>
     <use x="400" xlink:href="#TaipeiSansTCBeta-Regular-23532"/>
     <use x="500" xlink:href="#TaipeiSansTCBeta-Regular-36942"/>
     <use x="600" xlink:href="#TaipeiSansTCBeta-Regular-23567"/>
    </g>
   </g>
   <g id="text_4">
    <!-- 29.6% -->
    <g style="fill:#262626;" transform="translate(126.887674 230.419554)scale(0.12 -0.12)">
     <defs>
      <path d="M 4.390625 0 
L 4.390625 5.375 
Q 31.640625 29.203125 36.71875 44.828125 
Q 37.984375 48.921875 37.984375 52.734375 
Q 37.984375 62.796875 30.765625 66.015625 
Q 27.9375 67.1875 24.515625 67.1875 
Q 16.40625 67.09375 9.28125 58.6875 
L 4 63.875 
Q 12.59375 73.34375 22.171875 74.515625 
Q 23.921875 74.703125 25.59375 74.703125 
Q 37.890625 74.703125 43.5625 65.71875 
Q 46.875 60.359375 46.875 53.03125 
Q 46.875 37.59375 28.328125 17.484375 
Q 23.828125 12.59375 18.171875 7.234375 
Q 27.046875 7.90625 30.171875 7.90625 
L 50.484375 7.90625 
L 50.484375 0 
z
" id="TaipeiSansTCBeta-Regular-50"/>
      <path d="M 26.078125 34.578125 
Q 34.578125 34.671875 41.40625 44.4375 
Q 40.140625 64.546875 28.71875 67.09375 
Q 27.046875 67.484375 25.390625 67.484375 
Q 18.75 67.484375 15.234375 60.9375 
Q 12.984375 56.546875 12.984375 50.875 
Q 12.984375 38.765625 20.796875 35.546875 
Q 23.25 34.578125 26.078125 34.578125 
z
M 5.765625 6.15625 
L 10.84375 11.921875 
Q 15.828125 6.453125 23.140625 6.34375 
Q 34.859375 6.34375 39.265625 21 
Q 41.21875 27.640625 41.5 36.921875 
Q 35.453125 29.296875 27.15625 28.03125 
Q 25.875 27.828125 24.609375 27.828125 
Q 11.625 27.828125 6.734375 38.484375 
Q 4.390625 43.75 4.390625 50.875 
Q 4.390625 62.796875 12.3125 69.734375 
Q 17.96875 74.703125 25.390625 74.703125 
Q 38.1875 74.703125 44.828125 63.28125 
Q 50 54.203125 50 39.84375 
Q 50 12.984375 37.015625 3.21875 
Q 31.0625 -1.265625 23.4375 -1.265625 
Q 12.796875 -1.171875 5.765625 6.15625 
z
" id="TaipeiSansTCBeta-Regular-57"/>
      <path d="M 30.078125 5.765625 
Q 36.625 5.765625 40.140625 12.3125 
Q 42.484375 16.703125 42.484375 22.46875 
Q 42.484375 35.25 33.796875 37.984375 
Q 31.734375 38.671875 29.296875 38.671875 
Q 21.1875 38.671875 14.75 29.984375 
Q 14.453125 29.59375 14.265625 29.296875 
Q 15.625 9.46875 26.171875 6.34375 
Q 28.125 5.765625 30.078125 5.765625 
z
M 49.8125 67.1875 
L 44.828125 61.53125 
Q 40.140625 67 33.015625 67.09375 
Q 20.703125 67.09375 16.21875 52.640625 
Q 14.265625 45.90625 14.0625 36.625 
Q 20.015625 43.84375 28.03125 45.21875 
Q 29.5 45.515625 30.765625 45.515625 
Q 44.4375 45.515625 49.125 34.078125 
Q 51.078125 29.109375 51.078125 22.46875 
Q 51.078125 10.546875 43.265625 3.71875 
Q 37.5 -1.265625 30.078125 -1.265625 
Q 17.390625 -1.265625 10.75 10.546875 
Q 5.5625 19.921875 5.5625 34.96875 
Q 5.5625 61.03125 18.953125 70.40625 
Q 25 74.703125 32.71875 74.703125 
Q 42.78125 74.609375 49.8125 67.1875 
z
" id="TaipeiSansTCBeta-Regular-54"/>
     </defs>
     <use xlink:href="#TaipeiSansTCBeta-Regular-50"/>
     <use x="55.46875" xlink:href="#TaipeiSansTCBeta-Regular-57"/>
     <use x="110.9375" xlink:href="#TaipeiSansTCBeta-Regular-46"/>
     <use x="138.671875" xlink:href="#TaipeiSansTCBeta-Regular-54"/>
     <use x="194.140625" xlink:href="#TaipeiSansTCBeta-Regular-37"/>
    </g>
   </g>
   <g id="text_5">
    <!-- 柏油路／磚造馬路離目的地較近 -->
    <g style="fill:#262626;" transform="translate(64.617157 361.523807)scale(0.11 -0.11)">
     <defs>
      <path d="M 25.59375 57.421875 
L 25.59375 55.671875 
Q 29.984375 49.609375 37.703125 36.328125 
Q 38.28125 35.359375 38.578125 34.765625 
L 33.296875 28.8125 
Q 31.25 33.890625 25.59375 44.53125 
L 25.59375 -7.71875 
L 18.5625 -7.71875 
L 18.5625 37.796875 
Q 13.375 20.796875 7.8125 11.921875 
Q 6.734375 14.65625 3.609375 18.65625 
Q 10.75 29.78125 15.828125 49.421875 
Q 16.890625 53.609375 17.671875 57.421875 
L 4.890625 57.421875 
L 4.890625 64.359375 
L 18.5625 64.359375 
L 18.5625 83.59375 
L 25.59375 83.59375 
L 25.59375 64.359375 
L 37.5 64.359375 
L 37.5 57.421875 
z
M 50.390625 5.078125 
L 82.71875 5.078125 
L 82.71875 28.71875 
L 50.390625 28.71875 
z
M 82.71875 58.6875 
L 50.390625 58.6875 
L 50.390625 35.84375 
L 82.71875 35.84375 
z
M 66.015625 65.828125 
L 90.234375 65.828125 
L 90.234375 -6.734375 
L 82.71875 -6.734375 
L 82.71875 -1.859375 
L 50.390625 -1.859375 
L 50.390625 -7.421875 
L 43.0625 -7.421875 
L 43.0625 65.828125 
L 58.59375 65.828125 
Q 61.8125 76.375 62.890625 83.5 
L 71.484375 82.515625 
Q 68.265625 71.78125 66.015625 65.828125 
z
" id="TaipeiSansTCBeta-Regular-26575"/>
      <path d="M 27.34375 45.125 
L 23.25 38.765625 
Q 16.796875 43.953125 4.78125 49.609375 
Q 4.59375 49.703125 4.5 49.703125 
L 8.59375 55.171875 
Q 21.875 49.125 27.34375 45.125 
z
M 14.265625 -6.0625 
L 7.8125 -1.265625 
Q 16.109375 10.84375 24.21875 26.765625 
L 29.6875 22.171875 
Q 22.171875 6.9375 14.265625 -6.0625 
z
M 9.578125 76.953125 
L 13.765625 82.421875 
Q 25.984375 77.15625 32.8125 71.96875 
Q 33.015625 71.78125 33.109375 71.6875 
L 28.8125 65.625 
Q 22.265625 70.796875 9.578125 76.953125 
z
M 67.484375 5.5625 
L 84.578125 5.5625 
L 84.578125 27.546875 
L 67.484375 27.546875 
z
M 43.84375 27.546875 
L 43.84375 5.5625 
L 60.15625 5.5625 
L 60.15625 27.546875 
z
M 60.15625 55.671875 
L 43.84375 55.671875 
L 43.84375 34.578125 
L 60.15625 34.578125 
z
M 84.578125 55.671875 
L 67.484375 55.671875 
L 67.484375 34.578125 
L 84.578125 34.578125 
z
M 67.484375 62.796875 
L 91.796875 62.796875 
L 91.796875 -6.84375 
L 84.578125 -6.84375 
L 84.578125 -1.46875 
L 43.84375 -1.46875 
L 43.84375 -7.421875 
L 36.71875 -7.421875 
L 36.71875 62.796875 
L 60.15625 62.796875 
L 60.15625 83.5 
L 67.484375 83.5 
z
" id="TaipeiSansTCBeta-Regular-27833"/>
      <path d="M 3.421875 -5.5625 
L 93.5625 84.578125 
L 96.578125 81.640625 
L 6.453125 -8.59375 
z
" id="TaipeiSansTCBeta-Regular-65295"/>
      <path d="M 30.46875 12.109375 
L 30.46875 41.3125 
L 18.359375 41.3125 
L 18.359375 12.109375 
z
M 4.890625 70.40625 
L 4.890625 77.25 
L 40.234375 77.25 
L 40.234375 70.40625 
L 23.53125 70.40625 
Q 21.6875 57.90625 19.046875 47.65625 
L 37.109375 47.65625 
L 37.109375 5.46875 
L 18.359375 5.46875 
L 18.359375 -2.9375 
L 12.015625 -2.9375 
L 12.015625 27.9375 
Q 10.15625 24.03125 7.71875 20.3125 
Q 6.25 23.34375 3.21875 26.859375 
Q 12.3125 40.53125 16.40625 70.40625 
z
M 48.046875 9.96875 
L 52.9375 13.28125 
Q 59.96875 7.8125 63.765625 2.34375 
L 58.5 -1.5625 
Q 55.375 3.609375 48.34375 9.671875 
Q 48.140625 9.859375 48.046875 9.96875 
z
M 71.296875 37.703125 
L 71.296875 31.15625 
L 82.515625 31.453125 
Q 79.984375 33.796875 77.34375 35.84375 
L 80.671875 37.703125 
z
M 51.375 42.390625 
L 64.359375 42.390625 
L 64.359375 48.828125 
L 51.375 48.828125 
z
M 51.375 59.46875 
L 51.375 53.21875 
L 64.359375 53.21875 
L 64.359375 59.46875 
z
M 84.46875 59.46875 
L 71.296875 59.46875 
L 71.296875 53.21875 
L 84.46875 53.21875 
z
M 84.46875 42.390625 
L 84.46875 48.828125 
L 71.296875 48.828125 
L 71.296875 42.390625 
z
M 80.953125 25.984375 
L 80.953125 19.53125 
L 95.796875 19.53125 
L 95.796875 13.671875 
L 80.953125 13.671875 
L 80.953125 -0.203125 
Q 80.953125 -4.6875 78.90625 -5.953125 
Q 78.328125 -6.34375 77.734375 -6.546875 
Q 74.8125 -7.625 64.9375 -7.625 
Q 64.453125 -4.78125 62.703125 -1.46875 
Q 70.40625 -1.65625 72.359375 -1.46875 
Q 73.921875 -1.078125 74.03125 0 
L 74.03125 13.671875 
L 40.4375 13.671875 
L 40.4375 19.53125 
L 74.03125 19.53125 
L 74.03125 25.6875 
Q 58.015625 25.203125 41.5 24.8125 
L 41.015625 30.859375 
Q 46.6875 30.859375 64.359375 31.0625 
L 64.359375 37.703125 
L 44.921875 37.703125 
L 44.921875 64.0625 
L 64.359375 64.0625 
L 64.359375 69.4375 
L 42.78125 69.4375 
L 42.78125 75.390625 
L 64.359375 75.390625 
L 64.359375 82.625 
L 71.296875 82.625 
L 71.296875 75.390625 
L 94.53125 75.390625 
L 94.53125 69.4375 
L 71.296875 69.4375 
L 71.296875 64.0625 
L 91.3125 64.0625 
L 91.3125 37.703125 
L 83.5 37.703125 
Q 92.1875 30.859375 96.390625 25.59375 
L 91.21875 22.265625 
Q 90.328125 23.53125 87.890625 26.171875 
z
" id="TaipeiSansTCBeta-Regular-30938"/>
      <path d="M 58.984375 64.65625 
L 43.953125 64.65625 
Q 40.71875 59.078125 36.328125 54.109375 
Q 33.40625 56.25 29.890625 57.8125 
Q 39.15625 66.5 44.234375 81.734375 
Q 44.34375 82.125 44.4375 82.328125 
L 51.375 80.5625 
Q 50.296875 77.34375 47.46875 71.09375 
L 58.984375 71.09375 
L 58.984375 83.5 
L 66.3125 83.5 
L 66.3125 71.09375 
L 90.140625 71.09375 
L 90.140625 64.65625 
L 66.3125 64.65625 
L 66.3125 51.859375 
L 94.4375 51.859375 
L 94.4375 45.40625 
L 30.671875 45.40625 
L 30.671875 51.859375 
L 58.984375 51.859375 
z
M 46.875 17 
L 79.6875 17 
L 79.6875 31.640625 
L 46.875 31.640625 
z
M 87.015625 7.328125 
L 79.6875 7.328125 
L 79.6875 10.640625 
L 46.875 10.640625 
L 46.875 7.03125 
L 39.75 7.03125 
L 39.75 37.703125 
L 87.015625 37.703125 
z
M 30.671875 70.40625 
L 25.484375 65.328125 
Q 20.609375 71 10.453125 77.15625 
Q 9.859375 77.546875 9.28125 77.828125 
L 14.15625 82.421875 
Q 25.984375 75.875 30.671875 70.40625 
z
M 27.734375 50.875 
L 22.5625 45.609375 
Q 17.578125 51.078125 6.34375 57.125 
Q 5.765625 57.421875 5.375 57.625 
L 10.25 62.40625 
Q 21.09375 57.125 27.046875 51.5625 
Q 27.4375 51.171875 27.734375 50.875 
z
M 25.296875 37.40625 
L 25.296875 12.40625 
Q 32.234375 1.859375 50.484375 1.078125 
Q 73.34375 0.484375 94.34375 1.65625 
Q 95.3125 1.65625 96.09375 1.765625 
Q 94.34375 -1.375 93.5625 -5.46875 
Q 70.515625 -6.25 50.59375 -5.765625 
Q 32.234375 -4.984375 23.25 4.5 
Q 22.5625 5.28125 21.96875 5.953125 
Q 16.796875 0.984375 7.515625 -6.84375 
L 3.71875 0.484375 
Q 11.71875 6.34375 17.96875 11.921875 
L 17.96875 30.46875 
L 4.984375 30.46875 
L 4.984375 37.40625 
z
" id="TaipeiSansTCBeta-Regular-36896"/>
      <path d="M 9.96875 -6.734375 
L 4 -2.9375 
Q 12.59375 4.390625 15.234375 19.734375 
Q 15.234375 19.828125 15.234375 19.921875 
L 21.78125 18.0625 
Q 18.0625 0.09375 9.96875 -6.734375 
z
M 29.5 16.5 
L 35.9375 17.484375 
Q 38.765625 7.03125 39.15625 -2.34375 
L 32.625 -3.421875 
Q 32.421875 4.984375 29.5 16.5 
z
M 46.6875 17.09375 
L 52.4375 18.359375 
Q 57.03125 9.96875 58.59375 1.46875 
Q 58.6875 1.171875 58.6875 0.984375 
L 52.546875 -0.78125 
Q 51.375 7.03125 46.6875 17.09375 
z
M 24.125 40.53125 
L 24.125 30.671875 
L 47.359375 30.671875 
L 47.359375 40.53125 
z
M 47.359375 72.171875 
L 24.125 72.171875 
L 24.125 62.40625 
L 47.359375 62.40625 
z
M 47.359375 46.578125 
L 47.359375 56.453125 
L 24.125 56.453125 
L 24.125 46.578125 
z
M 54.6875 30.671875 
L 92.96875 30.671875 
Q 92.96875 30.5625 92.671875 27.546875 
Q 91.109375 2.34375 88.1875 -3.21875 
Q 87.59375 -4.109375 87.109375 -4.6875 
Q 84.765625 -7.234375 80.671875 -7.515625 
Q 75.390625 -7.90625 67.96875 -7.328125 
Q 67.484375 -3.125 66.015625 -0.484375 
Q 70.90625 -1.078125 77.34375 -1.078125 
Q 79.890625 -0.984375 80.859375 -0.09375 
Q 83.59375 3.125 85.0625 24.125 
L 16.890625 24.125 
L 16.890625 78.8125 
L 86.71875 78.8125 
L 86.71875 72.171875 
L 54.6875 72.171875 
L 54.6875 62.40625 
L 83.296875 62.40625 
L 83.296875 56.453125 
L 54.6875 56.453125 
L 54.6875 46.578125 
L 83.296875 46.578125 
L 83.296875 40.53125 
L 54.6875 40.53125 
z
M 76.859375 7.421875 
L 71.1875 4.78125 
Q 68.5625 11.234375 62.703125 18.5625 
L 68.0625 20.796875 
Q 74.125 13.96875 76.765625 7.625 
Q 76.859375 7.515625 76.859375 7.421875 
z
" id="TaipeiSansTCBeta-Regular-39340"/>
      <path d="M 52.640625 75.09375 
L 52.640625 69.046875 
L 4.59375 69.046875 
L 4.59375 75.09375 
L 25 75.09375 
L 25 83.6875 
L 32.234375 83.6875 
L 32.234375 75.09375 
z
M 40.328125 49.609375 
L 37.109375 45.703125 
Q 34.46875 48.25 29.6875 51.859375 
Q 25.59375 47.078125 20.703125 43.265625 
Q 18.65625 45.21875 16.40625 46.6875 
Q 21.6875 50.484375 25.484375 54.890625 
Q 20.515625 58.203125 17.484375 59.765625 
L 20.609375 63.1875 
Q 23.734375 61.625 28.515625 58.59375 
Q 31.546875 63.28125 32.90625 66.40625 
L 38.09375 65.140625 
Q 35.546875 59.671875 32.71875 55.765625 
Q 38.28125 51.765625 40.328125 49.609375 
z
M 63.875 18.0625 
L 63.875 4.296875 
L 75.484375 4.296875 
L 75.484375 18.0625 
z
M 75.484375 44.625 
L 75.484375 57.90625 
L 63.875 57.90625 
L 63.875 44.625 
z
M 75.484375 24.609375 
L 75.484375 38.09375 
L 63.875 38.09375 
L 63.875 24.609375 
z
M 95.90625 4.296875 
L 95.90625 -2.4375 
L 63.875 -2.4375 
L 63.875 -7.71875 
L 57.234375 -7.71875 
L 57.234375 48.640625 
Q 55.953125 46.390625 52.734375 41.5 
Q 51.65625 42.671875 47.75 45.609375 
L 47.75 37.40625 
L 31.546875 37.40625 
L 30.171875 30.671875 
L 50.59375 30.671875 
L 50.59375 -0.484375 
Q 50.59375 -5.078125 47.859375 -6.34375 
Q 47.5625 -6.453125 47.46875 -6.546875 
Q 44.921875 -7.515625 35.25 -7.515625 
Q 34.578125 -4.203125 33.203125 -1.65625 
Q 35.75 -1.765625 42.578125 -1.765625 
Q 44.140625 -1.265625 44.234375 -0.390625 
L 44.234375 24.90625 
L 28.90625 24.90625 
Q 27.4375 18.0625 25.875 12.203125 
L 34.96875 12.796875 
Q 33.59375 16.3125 31.9375 19.734375 
L 36.234375 21 
Q 41.015625 12.59375 42.484375 4.984375 
Q 42.578125 4.78125 42.578125 4.6875 
L 37.984375 3.125 
Q 37.796875 4.59375 36.8125 7.8125 
Q 31.734375 7.421875 22.265625 6.640625 
L 21.484375 6.640625 
L 21.390625 6.546875 
L 20.21875 6.546875 
L 20.125 6.453125 
L 19.046875 6.453125 
L 18.953125 6.34375 
L 17.875 6.34375 
L 17.78125 6.25 
L 16.609375 6.25 
L 16.5 6.15625 
L 15.921875 6.15625 
L 15.328125 11.625 
L 20.40625 11.921875 
Q 22.359375 20.125 23.140625 24.90625 
L 12.890625 24.90625 
L 12.890625 -7.71875 
L 6.734375 -7.71875 
L 6.734375 30.671875 
L 24.125 30.671875 
Q 24.21875 31.546875 24.515625 33.296875 
Q 24.90625 36.140625 25 37.40625 
L 9.375 37.40625 
L 9.375 64.9375 
L 14.9375 64.9375 
L 14.9375 42.671875 
L 42.1875 42.671875 
L 42.1875 64.9375 
L 47.75 64.9375 
L 47.75 46.6875 
Q 57.8125 60.359375 63.578125 83.015625 
Q 63.578125 83.40625 63.671875 83.59375 
L 70.40625 82.03125 
Q 67.671875 72.078125 64.75 64.75 
L 75.390625 64.75 
Q 78.90625 73.25 81.0625 82.625 
L 88.09375 80.859375 
Q 84.671875 70.609375 82.03125 64.75 
L 94.828125 64.75 
L 94.828125 57.90625 
L 81.9375 57.90625 
L 81.9375 44.625 
L 93.953125 44.625 
L 93.953125 38.09375 
L 81.9375 38.09375 
L 81.9375 24.609375 
L 93.953125 24.609375 
L 93.953125 18.0625 
L 81.9375 18.0625 
L 81.9375 4.296875 
z
" id="TaipeiSansTCBeta-Regular-38626"/>
      <path d="M 23.4375 7.03125 
L 75.6875 7.03125 
L 75.6875 23.4375 
L 23.4375 23.4375 
z
M 75.6875 46.875 
L 23.4375 46.875 
L 23.4375 30.46875 
L 75.6875 30.46875 
z
M 75.6875 70.21875 
L 23.4375 70.21875 
L 23.4375 54 
L 75.6875 54 
z
M 16.109375 77.4375 
L 83.40625 77.4375 
L 83.40625 -7.125 
L 75.6875 -7.125 
L 75.6875 -0.296875 
L 23.4375 -0.296875 
L 23.4375 -7.125 
L 16.109375 -7.125 
z
" id="TaipeiSansTCBeta-Regular-30446"/>
      <path d="M 36.8125 40.140625 
L 36.8125 61.03125 
L 15.828125 61.03125 
L 15.828125 40.140625 
z
M 15.828125 9.46875 
L 36.8125 9.46875 
L 36.8125 33.5 
L 15.828125 33.5 
z
M 24.21875 83.890625 
L 32.234375 82.421875 
Q 29.109375 73.25 26.953125 67.671875 
L 43.5625 67.671875 
L 43.5625 2.828125 
L 15.828125 2.828125 
L 15.828125 -5.078125 
L 8.984375 -5.078125 
L 8.984375 67.671875 
L 20.21875 67.671875 
Q 23.34375 77.9375 24.21875 83.890625 
z
M 92.484375 67.96875 
L 92.484375 64.15625 
Q 90.828125 17.09375 88.578125 5.859375 
Q 87.40625 0.484375 85.640625 -1.65625 
Q 82.90625 -5.171875 78.125 -5.671875 
Q 77.828125 -5.671875 77.734375 -5.671875 
Q 73.4375 -6.15625 62.890625 -5.5625 
Q 62.5 -1.765625 60.359375 1.65625 
Q 66.890625 1.078125 75.203125 1.078125 
Q 78.125 1.171875 79.296875 2.640625 
Q 82.625 6.15625 84.078125 31.453125 
Q 84.765625 42.671875 85.359375 61.140625 
L 59.96875 61.140625 
Q 55.078125 49.609375 50.59375 43.5625 
Q 49.125 44.921875 44.53125 47.75 
Q 54.203125 60.359375 59.765625 84.078125 
L 66.890625 82.421875 
Q 65.140625 75.203125 62.59375 67.96875 
z
M 76.65625 23.046875 
L 70.40625 19.140625 
Q 65.828125 28.03125 55.171875 42.1875 
L 61.03125 45.609375 
Q 71.875 31.640625 76.65625 23.046875 
z
" id="TaipeiSansTCBeta-Regular-30340"/>
      <path d="M 24.3125 52.734375 
L 24.3125 23.828125 
Q 35.25 28.421875 35.75 28.609375 
L 37.203125 21.96875 
Q 31.0625 19.046875 6.546875 8.203125 
L 3.609375 15.625 
Q 9.765625 17.78125 17.28125 21 
L 17.28125 52.734375 
L 4.5 52.734375 
L 4.5 59.765625 
L 17.28125 59.765625 
L 17.28125 82.515625 
L 24.3125 82.515625 
L 24.3125 59.765625 
L 36.03125 59.765625 
L 36.03125 52.734375 
z
M 57.8125 1.265625 
L 81.9375 1.265625 
Q 86.234375 1.265625 87.59375 4.296875 
Q 88.875 7.03125 89.359375 15.53125 
Q 92.578125 13.28125 96.09375 12.59375 
Q 95.125 1.265625 92.09375 -2.15625 
Q 89.0625 -5.375 82.125 -5.375 
L 57.625 -5.375 
Q 48.140625 -5.375 45.3125 -1.953125 
Q 42.875 0.984375 42.875 8.015625 
L 42.875 39.453125 
L 34.96875 36.234375 
L 32.125 42.578125 
L 42.875 47.171875 
L 42.875 74.421875 
L 50 74.421875 
L 50 50.203125 
L 63.375 55.859375 
L 63.375 83.6875 
L 70.515625 83.6875 
L 70.515625 58.796875 
L 83.6875 64.359375 
L 85.25 65.828125 
L 86.71875 66.890625 
L 91.890625 64.9375 
L 91.5 63.484375 
Q 91.5 30.859375 90.53125 26.078125 
Q 89.75 20.703125 85.15625 19.53125 
Q 82.234375 18.84375 75.78125 18.84375 
Q 75.09375 23.25 74.03125 25.203125 
Q 76.46875 25.09375 80.671875 25.09375 
Q 83.015625 25.09375 83.59375 27.546875 
Q 83.6875 27.640625 83.6875 27.734375 
Q 84.375 31.34375 84.375 57.125 
L 70.515625 51.171875 
L 70.515625 14.453125 
L 63.375 14.453125 
L 63.375 48.25 
L 50 42.484375 
L 50 7.90625 
Q 50 3.21875 52.25 2.046875 
Q 54 1.265625 57.8125 1.265625 
z
" id="TaipeiSansTCBeta-Regular-22320"/>
      <path d="M 95.3125 70.703125 
L 95.3125 63.875 
L 47.171875 63.875 
L 47.171875 70.703125 
L 67.578125 70.703125 
L 67.578125 83.6875 
L 74.90625 83.6875 
L 74.90625 70.703125 
z
M 77.15625 58.984375 
L 83.015625 62.015625 
Q 92.28125 50.6875 96.390625 41.796875 
Q 96.484375 41.703125 96.484375 41.609375 
L 90.328125 38.09375 
Q 86.53125 46.875 77.4375 58.59375 
Q 77.25 58.890625 77.15625 58.984375 
z
M 58.6875 61.71875 
L 65.71875 59.765625 
Q 60.359375 47.171875 51.5625 38.09375 
Q 51.171875 37.703125 50.875 37.40625 
Q 47.359375 40.140625 44.921875 41.609375 
Q 53.515625 49.21875 58.6875 61.71875 
z
M 13.1875 39.0625 
L 13.1875 29.984375 
L 23.046875 29.984375 
L 23.046875 39.0625 
z
M 13.1875 53.328125 
L 13.1875 44.4375 
L 23.046875 44.4375 
L 23.046875 53.328125 
z
M 38.1875 44.4375 
L 38.1875 53.328125 
L 28.421875 53.328125 
L 28.421875 44.4375 
z
M 38.1875 29.984375 
L 38.1875 39.0625 
L 28.421875 39.0625 
L 28.421875 29.984375 
z
M 47.5625 9.671875 
L 29 9.671875 
L 29 -7.71875 
L 22.359375 -7.71875 
L 22.359375 9.671875 
L 4.296875 9.671875 
L 4.296875 16.3125 
L 22.359375 16.3125 
L 22.359375 24.421875 
L 7.625 24.421875 
L 7.625 58.890625 
L 22.359375 58.890625 
L 22.359375 66.3125 
L 5.28125 66.3125 
L 5.28125 72.75 
L 22.359375 72.75 
L 22.359375 83.59375 
L 29 83.59375 
L 29 72.75 
L 45.515625 72.75 
L 45.515625 66.3125 
L 29 66.3125 
L 29 58.890625 
L 44.140625 58.890625 
L 44.140625 24.421875 
L 29 24.421875 
L 29 16.3125 
L 47.5625 16.3125 
z
M 79.984375 42.390625 
L 86.921875 41.015625 
Q 83.203125 25.875 75.390625 14.84375 
Q 84.28125 3.421875 96.78125 -1.859375 
Q 94.046875 -4.296875 92 -7.90625 
Q 79.6875 -2.046875 70.90625 9.078125 
Q 61.328125 -1.265625 46.78125 -7.90625 
Q 44.53125 -4.296875 42.09375 -2.34375 
Q 57.515625 4.296875 66.609375 15.046875 
Q 59.578125 25.875 54.984375 40.71875 
L 61.53125 42.28125 
Q 65.046875 30.171875 71.09375 20.796875 
Q 77.4375 30.671875 79.984375 42.390625 
z
" id="TaipeiSansTCBeta-Regular-36611"/>
      <path d="M 69.046875 46.875 
L 49.515625 46.875 
Q 48.25 21.1875 35.640625 7.515625 
Q 33.984375 10.15625 30.953125 12.203125 
Q 30.5625 12.5 30.28125 12.703125 
Q 41.890625 25.09375 42.484375 49.125 
Q 42.484375 50.875 42.484375 52.640625 
L 42.484375 75.875 
L 48.53125 74.515625 
Q 72.359375 79 82.625 83.296875 
L 88.96875 77.734375 
Q 74.90625 72.5625 49.609375 68.359375 
L 49.609375 53.71875 
L 94.828125 53.71875 
L 94.828125 46.875 
L 76.375 46.875 
L 76.375 5.859375 
L 69.046875 5.859375 
z
M 30.671875 70.515625 
L 25.484375 65.4375 
Q 21 70.90625 10.9375 76.859375 
Q 10.0625 77.4375 9.28125 77.828125 
L 14.15625 82.421875 
Q 25.09375 76.5625 30.28125 71 
Q 30.46875 70.703125 30.671875 70.515625 
z
M 27.828125 50.984375 
L 22.65625 45.703125 
Q 17.390625 51.265625 7.125 56.734375 
Q 6.15625 57.234375 5.375 57.625 
L 10.25 62.40625 
Q 20.3125 57.8125 26.765625 51.953125 
Q 27.4375 51.375 27.828125 50.984375 
z
M 25.296875 37.5 
L 25.296875 12.5 
Q 32.234375 1.953125 50.484375 1.171875 
Q 73.34375 0.59375 94.34375 1.765625 
Q 95.3125 1.765625 96.09375 1.859375 
Q 94.234375 -1.265625 93.5625 -5.46875 
Q 70.515625 -6.25 50.59375 -5.765625 
Q 31.9375 -4.890625 22.953125 5.078125 
Q 22.46875 5.5625 22.078125 6.0625 
Q 16.890625 1.078125 7.625 -6.734375 
L 3.71875 0.59375 
Q 10.640625 5.375 18.0625 12.015625 
L 18.0625 30.5625 
L 4.984375 30.5625 
L 4.984375 37.5 
z
" id="TaipeiSansTCBeta-Regular-36817"/>
     </defs>
     <use xlink:href="#TaipeiSansTCBeta-Regular-26575"/>
     <use x="100" xlink:href="#TaipeiSansTCBeta-Regular-27833"/>
     <use x="200" xlink:href="#TaipeiSansTCBeta-Regular-36335"/>
     <use x="300" xlink:href="#TaipeiSansTCBeta-Regular-65295"/>
     <use x="400" xlink:href="#TaipeiSansTCBeta-Regular-30938"/>
     <use x="500" xlink:href="#TaipeiSansTCBeta-Regular-36896"/>
     <use x="600" xlink:href="#TaipeiSansTCBeta-Regular-39340"/>
     <use x="700" xlink:href="#TaipeiSansTCBeta-Regular-36335"/>
     <use x="800" xlink:href="#TaipeiSansTCBeta-Regular-38626"/>
     <use x="900" xlink:href="#TaipeiSansTCBeta-Regular-30446"/>
     <use x="1000" xlink:href="#TaipeiSansTCBeta-Regular-30340"/>
     <use x="1100" xlink:href="#TaipeiSansTCBeta-Regular-22320"/>
     <use x="1200" xlink:href="#TaipeiSansTCBeta-Regular-36611"/>
     <use x="1300" xlink:href="#TaipeiSansTCBeta-Regular-36817"/>
    </g>
   </g>
   <g id="text_6">
    <!-- 14.8% -->
    <g style="fill:#262626;" transform="translate(202.708023 296.587744)scale(0.12 -0.12)">
     <defs>
      <path d="M 8.796875 0 
L 8.796875 7.625 
L 25.09375 7.625 
L 25.09375 62.3125 
L 12.109375 62.3125 
L 12.109375 68.0625 
Q 21.09375 69.734375 27.34375 73.34375 
L 34.28125 73.34375 
L 34.28125 7.625 
L 49.03125 7.625 
L 49.03125 0 
z
" id="TaipeiSansTCBeta-Regular-49"/>
      <path d="M 11.53125 27.546875 
L 33.890625 27.546875 
L 33.890625 50 
Q 33.890625 52.046875 34.46875 63.28125 
L 34.078125 63.28125 
Q 31.640625 58.296875 28.21875 52.546875 
z
M 52.34375 27.546875 
L 52.34375 20.21875 
L 42.578125 20.21875 
L 42.578125 0 
L 33.890625 0 
L 33.890625 20.21875 
L 1.953125 20.21875 
L 1.953125 26.171875 
L 32.515625 73.34375 
L 42.578125 73.34375 
L 42.578125 27.546875 
z
" id="TaipeiSansTCBeta-Regular-52"/>
      <path d="M 27.9375 -1.265625 
Q 15.921875 -1.265625 9.1875 6.0625 
Q 4.5 11.234375 4.5 18.171875 
Q 4.5 29.203125 14.75 36.421875 
Q 16.3125 37.5 17.96875 38.375 
L 17.96875 38.875 
Q 8.203125 45.796875 8.109375 55.765625 
Q 8.109375 65.71875 16.015625 71 
Q 21.1875 74.421875 28.21875 74.421875 
Q 39.9375 74.421875 45.3125 66.109375 
Q 48.34375 61.328125 48.34375 55.078125 
Q 48.34375 46.390625 40.328125 38.96875 
Q 39.359375 38.09375 38.484375 37.40625 
L 38.484375 36.921875 
Q 50.78125 29.6875 50.875 17.671875 
Q 50.875 8.40625 42.96875 3.03125 
Q 36.71875 -1.265625 27.9375 -1.265625 
z
M 32.90625 39.84375 
Q 40.4375 46.578125 40.53125 54.59375 
Q 40.53125 62.203125 34.96875 65.828125 
Q 31.9375 67.671875 28.03125 67.671875 
Q 21.09375 67.671875 17.96875 62.109375 
Q 16.40625 59.28125 16.40625 55.765625 
Q 16.40625 48.046875 25.390625 43.265625 
Q 28.125 41.703125 32.90625 39.84375 
z
M 28.125 5.46875 
Q 36.71875 5.46875 40.4375 11.421875 
Q 42.1875 14.359375 42.1875 17.875 
Q 42.1875 25.6875 33.40625 30.765625 
Q 30.078125 32.71875 22.75 35.640625 
Q 13.28125 28.609375 12.796875 19.046875 
Q 12.796875 11.8125 19.046875 7.90625 
Q 23.046875 5.46875 28.125 5.46875 
z
" id="TaipeiSansTCBeta-Regular-56"/>
     </defs>
     <use xlink:href="#TaipeiSansTCBeta-Regular-49"/>
     <use x="55.46875" xlink:href="#TaipeiSansTCBeta-Regular-52"/>
     <use x="110.9375" xlink:href="#TaipeiSansTCBeta-Regular-46"/>
     <use x="138.671875" xlink:href="#TaipeiSansTCBeta-Regular-56"/>
     <use x="194.140625" xlink:href="#TaipeiSansTCBeta-Regular-37"/>
    </g>
   </g>
   <g id="text_7">
    <!-- 沒有特殊原因 -->
    <g style="fill:#262626;" transform="translate(342.807858 294.56076)scale(0.11 -0.11)">
     <defs>
      <path d="M 81.640625 67.671875 
L 53.421875 67.671875 
Q 48.34375 49.515625 37.203125 39.453125 
Q 34.28125 42.09375 30.859375 44.234375 
Q 45.3125 55.671875 48.828125 83.6875 
L 56.453125 82.71875 
Q 55.859375 78.71875 54.984375 74.609375 
L 89.453125 74.609375 
Q 89.453125 74.515625 89.15625 71.390625 
Q 87.703125 50.484375 85.0625 45.796875 
Q 84.578125 45.015625 84.078125 44.4375 
Q 81.734375 42.09375 77.546875 41.796875 
Q 72.65625 41.40625 64.9375 41.890625 
Q 64.546875 45.703125 62.59375 48.734375 
Q 68.84375 48.25 74.421875 48.25 
Q 76.953125 48.34375 77.9375 49.125 
Q 80.46875 51.65625 81.640625 67.671875 
z
M 31.9375 71.875 
L 27.546875 66.015625 
Q 21.875 71.390625 10.9375 76.859375 
Q 10.15625 77.25 9.46875 77.546875 
L 13.578125 82.8125 
Q 24.703125 78.03125 31.25 72.46875 
Q 31.640625 72.171875 31.9375 71.875 
z
M 26.65625 46 
L 22.5625 39.84375 
Q 16.21875 45.21875 4.5 50.59375 
Q 4.296875 50.6875 4.203125 50.6875 
L 8.203125 56.0625 
Q 19.53125 51.5625 26.171875 46.390625 
Q 26.46875 46.1875 26.65625 46 
z
M 25.203125 30.5625 
L 30.671875 25.875 
Q 23.34375 10.15625 13.671875 -6.15625 
L 7.421875 -1.375 
Q 16.3125 12.109375 25.203125 30.5625 
z
M 79.59375 30.46875 
L 49.90625 30.46875 
Q 55.28125 20.609375 64.453125 13.28125 
Q 74.21875 20.40625 79.59375 30.46875 
z
M 84.859375 37.5 
L 89.75 35.359375 
Q 84.078125 19.828125 70.609375 8.984375 
Q 82.125 1.953125 96.09375 -0.984375 
Q 93.453125 -3.328125 91.3125 -7.625 
Q 75.875 -3.515625 64.265625 4.59375 
Q 50.984375 -3.609375 33.109375 -7.515625 
Q 31.9375 -3.8125 29.390625 -0.875 
Q 45.515625 1.953125 58.40625 9.28125 
Q 48.828125 17.578125 42.96875 28.8125 
L 47.859375 30.46875 
L 36.328125 30.46875 
L 36.328125 37.203125 
L 83.5 37.203125 
z
" id="TaipeiSansTCBeta-Regular-27794"/>
      <path d="M 74.703125 35.359375 
L 74.703125 45.515625 
L 33.015625 45.515625 
L 33.015625 35.359375 
z
M 33.015625 18.453125 
L 74.703125 18.453125 
L 74.703125 28.90625 
L 33.015625 28.90625 
z
M 93.65625 63.765625 
L 39.9375 63.765625 
Q 36.921875 57.421875 33.796875 52.25 
L 82.03125 52.25 
L 82.03125 1.65625 
Q 82.03125 -3.8125 79.203125 -5.46875 
Q 78.515625 -5.859375 77.828125 -6.15625 
Q 73.828125 -7.515625 60.359375 -7.515625 
Q 59.96875 -4.390625 58.015625 -0.203125 
Q 62.59375 -0.390625 72.359375 -0.390625 
Q 74.609375 -0.09375 74.703125 1.65625 
L 74.703125 12.109375 
L 33.015625 12.109375 
L 33.015625 -7.625 
L 25.6875 -7.625 
L 25.6875 40.625 
Q 17.875 31.0625 8.984375 24.8125 
Q 7.234375 27.734375 4.296875 30.46875 
Q 21.09375 41.890625 31.84375 63.765625 
L 6.734375 63.765625 
L 6.734375 70.796875 
L 34.859375 70.796875 
Q 37.890625 78.609375 39.265625 83.6875 
L 46.6875 81.9375 
Q 44.53125 75.09375 42.78125 70.796875 
L 93.65625 70.796875 
z
" id="TaipeiSansTCBeta-Regular-26377"/>
      <path d="M 45.015625 21.390625 
L 50.59375 24.8125 
Q 58.796875 17 62.796875 9.765625 
Q 63.09375 9.28125 63.28125 8.890625 
L 57.328125 5.078125 
Q 54.203125 11.8125 45.703125 20.703125 
Q 45.3125 21.09375 45.015625 21.390625 
z
M 95.515625 46.484375 
L 83.203125 46.484375 
L 83.203125 34.46875 
L 94.921875 34.46875 
L 94.921875 27.734375 
L 83.203125 27.734375 
L 83.203125 1.46875 
Q 83.203125 -4.109375 80.171875 -5.953125 
Q 79.59375 -6.25 79.109375 -6.453125 
Q 75.59375 -7.625 62.984375 -7.625 
Q 62.40625 -3.421875 60.640625 -0.203125 
Q 70.125 -0.484375 73.828125 -0.296875 
Q 75.6875 0.484375 75.875 1.5625 
L 75.875 27.734375 
L 39.84375 27.734375 
L 39.84375 33.109375 
L 29.296875 29.78125 
L 29.296875 -7.625 
L 22.46875 -7.625 
L 22.46875 27.734375 
L 5.859375 22.5625 
L 3.90625 29.59375 
Q 14.84375 32.515625 22.46875 34.859375 
L 22.46875 56.546875 
L 13.28125 56.546875 
Q 11.328125 47.5625 8.890625 41.796875 
Q 6.34375 43.65625 3.328125 45.125 
Q 7.8125 55.375 10.0625 78.328125 
L 16.609375 77.25 
Q 16.015625 71.96875 14.75 63.484375 
L 22.46875 63.484375 
L 22.46875 83.59375 
L 29.296875 83.59375 
L 29.296875 63.484375 
L 39.65625 63.484375 
L 39.65625 56.546875 
L 29.296875 56.546875 
L 29.296875 36.921875 
L 40.921875 40.4375 
L 41.796875 34.46875 
L 75.875 34.46875 
L 75.875 46.484375 
L 38.09375 46.484375 
L 38.09375 53.421875 
L 63.484375 53.421875 
L 63.484375 66.109375 
L 44.046875 66.109375 
L 44.046875 72.859375 
L 63.484375 72.859375 
L 63.484375 83.6875 
L 70.90625 83.6875 
L 70.90625 72.859375 
L 90.921875 72.859375 
L 90.921875 66.109375 
L 70.90625 66.109375 
L 70.90625 53.421875 
L 95.515625 53.421875 
z
" id="TaipeiSansTCBeta-Regular-29305"/>
      <path d="M 32.90625 51.953125 
L 19.921875 51.953125 
Q 18.359375 47.078125 15.625 40.71875 
Q 23.640625 35.84375 28.328125 31.546875 
Q 31.640625 41.890625 32.90625 51.953125 
z
M 94.828125 34.1875 
L 75.203125 34.1875 
Q 82.234375 19.828125 92.875 10.546875 
Q 95.21875 8.5 97.46875 7.03125 
Q 94.53125 4.59375 92.28125 1.265625 
Q 81.734375 9.671875 73.34375 25.484375 
Q 72.265625 27.546875 71.390625 29.390625 
L 71.390625 -8.109375 
L 64.265625 -8.109375 
L 64.265625 28.03125 
Q 55.375 12.40625 42.390625 2.640625 
Q 40.4375 1.078125 38.578125 -0.09375 
Q 36.71875 2.828125 33.5 5.5625 
Q 45.3125 12.015625 55.171875 25.59375 
Q 58.296875 29.890625 60.640625 34.1875 
L 40.625 34.1875 
L 40.625 41.015625 
L 64.265625 41.015625 
L 64.265625 58.40625 
L 51.953125 58.40625 
Q 48.828125 49.90625 44.921875 44.4375 
Q 42.578125 46.390625 39.0625 48.046875 
Q 32.328125 8.984375 11.625 -7.234375 
Q 11.234375 -7.421875 11.03125 -7.625 
Q 8.59375 -4.390625 5.765625 -2.4375 
Q 18.359375 6.640625 25.78125 24.421875 
Q 20.90625 29.296875 12.796875 34.859375 
Q 11.328125 32.125 8.296875 27.734375 
Q 6.25 30.078125 2.640625 32.625 
Q 12.59375 45.3125 17.671875 72.265625 
L 5.171875 72.265625 
L 5.171875 79.109375 
L 43.84375 79.109375 
L 43.84375 72.265625 
L 24.90625 72.265625 
Q 24.21875 68.359375 21.875 58.6875 
L 34.859375 58.6875 
L 36.234375 58.984375 
L 40.53125 57.515625 
Q 40.140625 54.296875 39.15625 48.53125 
Q 46.484375 58.40625 50.296875 78.609375 
L 57.234375 77.546875 
Q 56.25 72.359375 54.296875 65.234375 
L 64.265625 65.234375 
L 64.265625 83.109375 
L 71.390625 83.109375 
L 71.390625 65.234375 
L 91.015625 65.234375 
L 91.015625 58.40625 
L 71.390625 58.40625 
L 71.390625 41.015625 
L 94.828125 41.015625 
z
" id="TaipeiSansTCBeta-Regular-27530"/>
      <path d="M 37.3125 20.703125 
L 44.34375 18.65625 
Q 37.109375 6.9375 25.78125 -2.046875 
Q 24.8125 -2.828125 24.03125 -3.421875 
Q 22.078125 -1.5625 17.875 0.984375 
Q 28.515625 7.8125 35.75 18.359375 
Q 36.625 19.625 37.3125 20.703125 
z
M 37.015625 41.015625 
L 37.015625 31.84375 
L 78.328125 31.84375 
L 78.328125 41.015625 
z
M 37.015625 55.671875 
L 37.015625 46.578125 
L 78.328125 46.578125 
L 78.328125 55.671875 
z
M 85.9375 25.875 
L 61.140625 25.875 
L 61.140625 0.390625 
Q 61.140625 -4.6875 58.5 -6.0625 
Q 57.90625 -6.34375 57.328125 -6.546875 
Q 54 -7.625 41.796875 -7.625 
Q 41.40625 -5.171875 39.453125 -1.078125 
Q 48.640625 -1.375 51.953125 -1.171875 
Q 53.8125 -0.984375 53.90625 0.484375 
L 53.90625 25.875 
L 29.6875 25.875 
L 29.6875 61.625 
L 50.59375 61.625 
Q 52.34375 68.0625 52.9375 71.390625 
L 20.703125 71.390625 
L 20.703125 49.421875 
Q 20.703125 11.328125 10.15625 -7.421875 
Q 7.125 -4.890625 3.8125 -3.609375 
Q 13.09375 12.890625 13.375 46.09375 
Q 13.375 47.75 13.375 49.515625 
L 13.375 78.125 
L 94.046875 78.125 
L 94.046875 71.390625 
L 61.625 71.390625 
Q 60.453125 67.28125 58.40625 61.625 
L 85.9375 61.625 
z
M 69.734375 17.484375 
L 75.390625 21.09375 
Q 86.71875 12.3125 93.84375 3.515625 
Q 94.921875 2.15625 95.703125 1.078125 
L 89.75 -3.03125 
Q 84.765625 4.6875 73.25 14.546875 
Q 71.390625 16.109375 69.734375 17.484375 
z
" id="TaipeiSansTCBeta-Regular-21407"/>
      <path d="M 78.609375 45.3125 
L 54.59375 45.3125 
Q 60.359375 21.96875 79.59375 15.328125 
Q 77.046875 12.984375 75 9.28125 
Q 57.03125 16.40625 50.203125 37.59375 
Q 50.203125 37.796875 50.09375 37.984375 
Q 46 21.578125 33.40625 13.375 
Q 29.5 10.84375 24.609375 8.890625 
Q 23.046875 12.203125 20.21875 14.65625 
Q 35.359375 20.40625 41.015625 33.015625 
Q 43.359375 38.1875 44.625 45.3125 
L 21.390625 45.3125 
L 21.390625 51.953125 
L 45.515625 51.953125 
Q 46 56.9375 46.390625 67.671875 
L 53.328125 67.671875 
Q 52.9375 56.9375 52.4375 51.953125 
L 78.609375 51.953125 
z
M 15.921875 4 
L 84.078125 4 
L 84.078125 71.875 
L 15.921875 71.875 
z
M 8.5 79 
L 91.703125 79 
L 91.703125 -7.625 
L 84.078125 -7.625 
L 84.078125 -3.125 
L 15.921875 -3.125 
L 15.921875 -7.625 
L 8.5 -7.625 
z
" id="TaipeiSansTCBeta-Regular-22240"/>
     </defs>
     <use xlink:href="#TaipeiSansTCBeta-Regular-27794"/>
     <use x="100" xlink:href="#TaipeiSansTCBeta-Regular-26377"/>
     <use x="200" xlink:href="#TaipeiSansTCBeta-Regular-29305"/>
     <use x="300" xlink:href="#TaipeiSansTCBeta-Regular-27530"/>
     <use x="400" xlink:href="#TaipeiSansTCBeta-Regular-21407"/>
     <use x="500" xlink:href="#TaipeiSansTCBeta-Regular-22240"/>
    </g>
   </g>
   <g id="text_8">
    <!-- 17.9% -->
    <g style="fill:#262626;" transform="translate(270.448406 260.062446)scale(0.12 -0.12)">
     <use xlink:href="#TaipeiSansTCBeta-Regular-49"/>
     <use x="55.46875" xlink:href="#TaipeiSansTCBeta-Regular-55"/>
     <use x="110.9375" xlink:href="#TaipeiSansTCBeta-Regular-46"/>
     <use x="138.671875" xlink:href="#TaipeiSansTCBeta-Regular-57"/>
     <use x="194.140625" xlink:href="#TaipeiSansTCBeta-Regular-37"/>
    </g>
   </g>
  </g>
 </g>
</svg>
